{
.appVersion = "3151";
.formatVersion = 3;
DisplayStrings = (
"AÁĂÂÄÀĀĄÅǺÃÆǼBCĆČÇĈĊDÐĎĐEÉĔĚÊËĖÈĒEĘFGĞĜGĢĠHĦĤIJĲÍĬÎÏİÌĪIĮĨJĴ
KĶLĹĽĻĿLŁMNŃŇŅÑŊOÓŎÔÖÒŐŌØǾÕŒPÞQRŔŘŖSŚ/caroncomb.case ŠŞŜȘTŦ/caroncomb.case ŤŢȚ
UÚŬÛÜÙŰŪŲŮŨVWẂŴẄẀXYÝŶŸỲZŹŽŻ
aáăâäàāąåǻãæǽbcćčçĉċdðďđ
eéĕěêëėèēęfgğĝģġhħĥiıíĭîï/idotaccent ìĳīįĩjȷĵ
kķĸlĺľļŀłmnńŉňņñŋoóŏôöòőōøǿõœ
pþqrŕřŗsśšşŝșßtŧťţțuúŭûüùűūųůũ
vwẃŵẅẁxyýŷÿỳzźžż/dcroat.alt/h.alt"
);
classes = (
{
automatic = 1;
code = "A Aacute Abreve Acircumflex Adieresis Agrave Amacron Aogonek Aring Aringacute Atilde AE AEacute B C Cacute Ccaron Ccedilla Ccircumflex Cdotaccent D Eth Dcaron Dcroat E Eacute Ebreve Ecaron Ecircumflex Edieresis Edotaccent Egrave Emacron Eogonek F G Gbreve Gcircumflex Gdotaccent H Hbar Hcircumflex I IJ Iacute Ibreve Icircumflex Idieresis Idotaccent Igrave Imacron Iogonek Itilde J Jcircumflex K L Lacute Lcaron Ldot Lslash M N Nacute Ncaron Ntilde Eng O Oacute Obreve Ocircumflex Odieresis Ograve Ohungarumlaut Omacron Oslash Oslashacute Otilde OE P Thorn Q R Racute Rcaron S Sacute Scaron Scedilla Scircumflex T Tbar Tcaron U Uacute Ubreve Ucircumflex Udieresis Ugrave Uhungarumlaut Umacron Uogonek Uring Utilde V W Wacute Wcircumflex Wdieresis Wgrave X Y Yacute Ycircumflex Ydieresis Ygrave Z Zacute Zcaron Zdotaccent uni0122 uni0136 uni013B uni0145 uni0156 uni0162 uni0218 uni021A uni0394 uni03A9";
name = Uppercase;
}
);
customParameters = (
{
name = fsType;
value = (
);
},
{
name = "Use Typo Metrics";
value = 1;
}
);
date = "2023-03-01 10:10:39 +0000";
familyName = Lemon;
featurePrefixes = (
{
automatic = 1;
code = "languagesystem DFLT dflt;

languagesystem latn dflt;
languagesystem latn CAT;
";
name = Languagesystems;
},
{
code = "#
# Feature definitions
#

###
# OpenType Layout feature definitions
# Format: Adobe FDK for OpenType (AFDKO) version 2.5
# Generated on: 2013-11-26 10:33
# Generated by: Fontlab
# Tool options: fea-inline-lookups: yes, fea-inline-classes: 0, fea-additional-tables: yes, fea-table-overrides: no

glyphs = (
{
glyphname = A;
lastChange = "2023-03-01 10:28:12 +0000";
layers = (
{
anchors = (
{
name = bottom;
pos = (365,0);
},
{
name = ogonek;
pos = (783,22);
},
{
name = top;
pos = (445,710);
}
);
background = {
shapes = (
{
closed = 1;
nodes = (
(-6,17,o),
(18,-26,o),
(83,-26,cs),
(124,-26,o),
(166,-10,o),
(215,21,c),
(209,37,o),
(207,52,o),
(207,74,cs),
(207,100,o),
(214,135,o),
(226,176,c),
(430,176,l),
(446,63,o),
(486,-26,o),
(584,-26,cs),
(641,-26,o),
(679,-11,o),
(724,17,c),
(642,64,o),
(627,202,o),
(627,340,cs),
(627,427,o),
(635,502,o),
(635,578,cs),
(635,651,o),
(625,725,o),
(550,725,cs),
(513,725,o),
(480,715,o),
(446,700,c),
(433,715,o),
(409,725,o),
(374,725,cs),
(282,725,o),
(222,693,o),
(162,652,c),
(170,618,o),
(180,579,o),
(187,546,c),
(131,419,o),
(-6,204,o),
(-6,82,cs,{
name = hr00;
})
);
},
{
closed = 1;
nodes = (
(428,465,o),
(423,392,o),
(423,281,c),
(268,281,l),
(305,365,o),
(356,466,o),
(402,555,c),
(434,555,l)
);
}
);
};
layerId = master01;
shapes = (
{
closed = 1;
nodes = (
(124,-26,o),
(166,-10,o),
(215,21,c),
(209,37,o),
(207,52,o),
(207,74,cs),
(207,100,o),
(214,135,o),
(226,176,c),
(430,176,l),
(446,63,o),
(486,-26,o),
(584,-26,cs),
(641,-26,o),
(679,-11,o),
(724,17,c),
(642,64,o),
(627,202,o),
(627,340,cs),
(627,427,o),
(635,502,o),
(635,578,cs),
(635,651,o),
(625,725,o),
(550,725,cs),
(513,725,o),
(480,715,o),
(446,700,c),
(433,715,o),
(409,725,o),
(374,725,cs),
(282,725,o),
(222,693,o),
(162,652,c),
(170,618,o),
(180,579,o),
(187,546,c),
(131,419,o),
(-6,204,o),
(-6,82,cs,{
name = hr00;
}),
(-6,17,o),
(18,-26,o),
(83,-26,cs)
);
},
{
closed = 1;
nodes = (
(305,365,o),
(356,466,o),
(402,555,c),
(434,555,l),
(428,465,o),
(423,392,o),
(423,281,c),
(268,281,l)
);
}
);
width = 729;
}
);
unicode = 65;
},
{
glyphname = Aacute;
lastChange = "2023-03-01 10:27:37 +0000";
layers = (
{
background = {
shapes = (
{
closed = 1;
nodes = (
(124,-26,o),
(166,-10,o),
(215,21,c),
(209,37,o),
(207,52,o),
(207,74,cs),
(207,100,o),
(214,135,o),
(226,176,c),
(430,176,l),
(446,63,o),
(486,-26,o),
(584,-26,cs),
(641,-26,o),
(679,-11,o),
(724,17,c),
(642,64,o),
(627,202,o),
(627,340,cs),
(627,427,o),
(635,502,o),
(635,578,cs),
(635,651,o),
(625,725,o),
(550,725,cs),
(513,725,o),
(480,715,o),
(446,700,c),
(433,715,o),
(409,725,o),
(374,725,cs),
(282,725,o),
(222,693,o),
(162,652,c),
(170,618,o),
(180,579,o),
(187,546,c),
(131,419,o),
(-6,204,o),
(-6,82,cs,{
name = hr00;
}),
(-6,17,o),
(18,-26,o),
(83,-26,cs)
);
},
{
closed = 1;
nodes = (
(305,365,o),
(356,466,o),
(402,555,c),
(434,555,l),
(428,465,o),
(423,392,o),
(423,281,c),
(268,281,l)
);
},
{
closed = 1;
nodes = (
(421,753,o),
(491,820,o),
(582,820,cs),
(589,820,o),
(598,819,o),
(605,818,c),
(612,842,o),
(615,868,o),
(615,891,cs),
(615,963,o),
(589,986,o),
(559,986,cs),
(471,986,o),
(384,854,o),
(279,829,c),
(283,773,o),
(308,753,o),
(335,753,c,{
name = hr00;
})
);
}
);
};
layerId = master01;
shapes = (
{
ref = A;
},
{
pos = (207,0);
ref = acutecomb.case;
}
);
width = 729;
}
);
unicode = 193;
},
{
glyphname = Abreve;
lastChange = "2023-03-01 10:27:37 +0000";
layers = (
{
background = {
shapes = (
{
closed = 1;
nodes = (
(124,-26,o),
(166,-10,o),
(215,21,c),
(209,37,o),
(207,52,o),
(207,74,cs),
(207,100,o),
(214,135,o),
(226,176,c),
(430,176,l),
(446,63,o),
(486,-26,o),
(584,-26,cs),
(641,-26,o),
(679,-11,o),
(724,17,c),
(642,64,o),
(627,202,o),
(627,340,cs),
(627,427,o),
(635,502,o),
(635,578,cs),
(635,651,o),
(625,725,o),
(550,725,cs),
(513,725,o),
(480,715,o),
(446,700,c),
(433,715,o),
(409,725,o),
(374,725,cs),
(282,725,o),
(222,693,o),
(162,652,c),
(170,618,o),
(180,579,o),
(187,546,c),
(131,419,o),
(-6,204,o),
(-6,82,cs,{
name = hr00;
}),
(-6,17,o),
(18,-26,o),
(83,-26,cs)
);
},
{
closed = 1;
nodes = (
(305,365,o),
(356,466,o),
(402,555,c),
(434,555,l),
(428,465,o),
(423,392,o),
(423,281,c),
(268,281,l)
);
},
{
closed = 1;
nodes = (
(502,762,o),
(628,811,o),
(628,930,cs),
(628,945,o),
(626,961,o),
(623,978,c),
(574,927,o),
(502,896,o),
(436,896,cs),
(368,896,o),
(315,910,o),
(274,958,c),
(266,930,o),
(264,907,o),
(264,883,cs),
(264,797,o),
(320,762,o),
(400,762,cs,{
name = hr00;
})
);
}
);
};
layerId = master01;
shapes = (
{
ref = A;
},
{
pos = (206,0);
ref = brevecomb.case;
}
);
width = 729;
}
);
unicode = 258;
},
{
glyphname = Acircumflex;
lastChange = "2023-03-01 10:27:50 +0000";
layers = (
{
background = {
shapes = (
{
closed = 1;
nodes = (
(124,-26,o),
(166,-10,o),
(215,21,c),
(209,37,o),
(207,52,o),
(207,74,cs),
(207,100,o),
(214,135,o),
(226,176,c),
(430,176,l),
(446,63,o),
(486,-26,o),
(584,-26,cs),
(641,-26,o),
(679,-11,o),
(724,17,c),
(642,64,o),
(627,202,o),
(627,340,cs),
(627,427,o),
(635,502,o),
(635,578,cs),
(635,651,o),
(625,725,o),
(550,725,cs),
(513,725,o),
(480,715,o),
(446,700,c),
(433,715,o),
(409,725,o),
(374,725,cs),
(282,725,o),
(222,693,o),
(162,652,c),
(170,618,o),
(180,579,o),
(187,546,c),
(131,419,o),
(-6,204,o),
(-6,82,cs,{
name = hr00;
}),
(-6,17,o),
(18,-26,o),
(83,-26,cs)
);
},
{
closed = 1;
nodes = (
(305,365,o),
(356,466,o),
(402,555,c),
(434,555,l),
(428,465,o),
(423,392,o),
(423,281,c),
(268,281,l)
);
},
{
closed = 1;
nodes = (
(329,759,o),
(367,762,o),
(408,771,c),
(408,819,o),
(433,878,o),
(468,921,c),
(494,921,l),
(491,893,o),
(487,865,o),
(487,841,cs),
(487,793,o),
(504,759,o),
(583,759,cs),
(608,759,o),
(631,761,o),
(654,767,c),
(646,781,o),
(640,800,o),
(640,823,cs),
(640,867,o),
(650,899,o),
(650,946,cs),
(650,973,o),
(595,983,o),
(533,983,cs),
(464,983,o),
(386,971,o),
(363,958,c),
(327,918,o),
(239,817,o),
(239,778,cs),
(239,767,o),
(254,759,o),
(296,759,c,{
name = hr00;
})
);
}
);
};
layerId = master01;
shapes = (
{
ref = A;
},
{
pos = (157,0);
ref = circumflexcomb.case;
}
);
width = 729;
}
);
unicode = 194;
},
{
glyphname = Adieresis;
lastChange = "2023-03-01 10:27:37 +0000";
layers = (
{
background = {
shapes = (
{
closed = 1;
nodes = (
(124,-26,o),
(166,-10,o),
(215,21,c),
(209,37,o),
(207,52,o),
(207,74,cs),
(207,100,o),
(214,135,o),
(226,176,c),
(430,176,l),
(446,63,o),
(486,-26,o),
(584,-26,cs),
(641,-26,o),
(679,-11,o),
(724,17,c),
(642,64,o),
(627,202,o),
(627,340,cs),
(627,427,o),
(635,502,o),
(635,578,cs),
(635,651,o),
(625,725,o),
(550,725,cs),
(513,725,o),
(480,715,o),
(446,700,c),
(433,715,o),
(409,725,o),
(374,725,cs),
(282,725,o),
(222,693,o),
(162,652,c),
(170,618,o),
(180,579,o),
(187,546,c),
(131,419,o),
(-6,204,o),
(-6,82,cs,{
name = hr00;
}),
(-6,17,o),
(18,-26,o),
(83,-26,cs)
);
},
{
closed = 1;
nodes = (
(305,365,o),
(356,466,o),
(402,555,c),
(434,555,l),
(428,465,o),
(423,392,o),
(423,281,c),
(268,281,l)
);
},
{
closed = 1;
nodes = (
(648,771,o),
(707,813,o),
(707,878,cs),
(707,925,o),
(667,954,o),
(613,954,cs),
(560,954,o),
(488,920,o),
(488,846,cs),
(488,799,o),
(528,771,o),
(582,771,cs,{
name = hr00;
})
);
},
{
closed = 1;
nodes = (
(347,771,o),
(406,813,o),
(406,878,cs),
(406,925,o),
(366,954,o),
(312,954,cs),
(259,954,o),
(187,920,o),
(187,846,cs),
(187,799,o),
(227,771,o),
(281,771,cs)
);
}
);
};
layerId = master01;
shapes = (
{
ref = A;
},
{
pos = (99,0);
ref = dieresiscomb.case;
}
);
width = 729;
}
);
unicode = 196;
},
{
glyphname = Agrave;
lastChange = "2023-03-01 10:27:37 +0000";
layers = (
{
background = {
shapes = (
{
closed = 1;
nodes = (
(124,-26,o),
(166,-10,o),
(215,21,c),
(209,37,o),
(207,52,o),
(207,74,cs),
(207,100,o),
(214,135,o),
(226,176,c),
(430,176,l),
(446,63,o),
(486,-26,o),
(584,-26,cs),
(641,-26,o),
(679,-11,o),
(724,17,c),
(642,64,o),
(627,202,o),
(627,340,cs),
(627,427,o),
(635,502,o),
(635,578,cs),
(635,651,o),
(625,725,o),
(550,725,cs),
(513,725,o),
(480,715,o),
(446,700,c),
(433,715,o),
(409,725,o),
(374,725,cs),
(282,725,o),
(222,693,o),
(162,652,c),
(170,618,o),
(180,579,o),
(187,546,c),
(131,419,o),
(-6,204,o),
(-6,82,cs,{
name = hr00;
}),
(-6,17,o),
(18,-26,o),
(83,-26,cs)
);
},
{
closed = 1;
nodes = (
(305,365,o),
(356,466,o),
(402,555,c),
(434,555,l),
(428,465,o),
(423,392,o),
(423,281,c),
(268,281,l)
);
},
{
closed = 1;
nodes = (
(586,753,o),
(611,773,o),
(615,829,c),
(510,854,o),
(423,986,o),
(335,986,cs),
(305,986,o),
(279,963,o),
(279,891,cs),
(279,868,o),
(282,842,o),
(289,818,c),
(296,819,o),
(305,820,o),
(312,820,cs),
(403,820,o),
(473,753,o),
(559,753,c,{
name = hr00;
})
);
}
);
};
layerId = master01;
shapes = (
{
ref = A;
},
{
pos = (257,0);
ref = gravecomb.case;
}
);
width = 729;
}
);
unicode = 192;
},
{
glyphname = Amacron;
lastChange = "2023-03-01 10:27:37 +0000";
layers = (
{
background = {
shapes = (
{
closed = 1;
nodes = (
(124,-26,o),
(166,-10,o),
(215,21,c),
(209,37,o),
(207,52,o),
(207,74,cs),
(207,100,o),
(214,135,o),
(226,176,c),
(430,176,l),
(446,63,o),
(486,-26,o),
(584,-26,cs),
(641,-26,o),
(679,-11,o),
(724,17,c),
(642,64,o),
(627,202,o),
(627,340,cs),
(627,427,o),
(635,502,o),
(635,578,cs),
(635,651,o),
(625,725,o),
(550,725,cs),
(513,725,o),
(480,715,o),
(446,700,c),
(433,715,o),
(409,725,o),
(374,725,cs),
(282,725,o),
(222,693,o),
(162,652,c),
(170,618,o),
(180,579,o),
(187,546,c),
(131,419,o),
(-6,204,o),
(-6,82,cs,{
name = hr00;
}),
(-6,17,o),
(18,-26,o),
(83,-26,cs)
);
},
{
closed = 1;
nodes = (
(305,365,o),
(356,466,o),
(402,555,c),
(434,555,l),
(428,465,o),
(423,392,o),
(423,281,c),
(268,281,l)
);
},
{
closed = 1;
nodes = (
(371,785,o),
(467,809,o),
(546,809,cs),
(566,809,o),
(606,805,o),
(622,795,c),
(633,819,o),
(636,844,o),
(636,867,cs),
(636,919,o),
(610,938,o),
(565,938,cs),
(495,938,o),
(428,932,o),
(364,932,cs),
(349,932,o),
(310,935,o),
(290,944,c,{
name = hr01;
}),
(273,909,o),
(261,879,o),
(261,838,cs),
(261,797,o),
(277,785,o),
(296,785,c)
);
}
);
};
layerId = master01;
shapes = (
{
ref = A;
},
{
pos = (167,0);
ref = macroncomb.case;
}
);
width = 729;
}
);
unicode = 256;
},
{
glyphname = Aogonek;
lastChange = "2023-03-01 10:28:12 +0000";
layers = (
{
background = {
shapes = (
{
closed = 1;
nodes = (
(124,-26,o),
(166,-10,o),
(215,21,c),
(209,37,o),
(207,52,o),
(207,74,cs),
(207,100,o),
(214,135,o),
(226,176,c),
(430,176,l),
(446,63,o),
(486,-26,o),
(584,-26,cs),
(641,-26,o),
(679,-11,o),
(724,17,c),
(642,64,o),
(627,202,o),
(627,340,cs),
(627,427,o),
(635,502,o),
(635,578,cs),
(635,651,o),
(625,725,o),
(550,725,cs),
(513,725,o),
(480,715,o),
(446,700,c),
(433,715,o),
(409,725,o),
(374,725,cs),
(282,725,o),
(222,693,o),
(162,652,c),
(170,618,o),
(180,579,o),
(187,546,c),
(131,419,o),
(-6,204,o),
(-6,82,cs,{
name = hr00;
}),
(-6,17,o),
(18,-26,o),
(83,-26,cs)
);
},
{
closed = 1;
nodes = (
(305,365,o),
(356,466,o),
(402,555,c),
(434,555,l),
(428,465,o),
(423,392,o),
(423,281,c),
(268,281,l)
);
},
{
closed = 1;
nodes = (
(707,-285,o),
(783,-215,o),
(783,-153,cs),
(783,-117,o),
(759,-85,o),
(702,-70,c),
(705,-78,o),
(706,-87,o),
(706,-95,cs),
(706,-138,o),
(674,-186,o),
(626,-186,cs),
(597,-186,o),
(573,-167,o),
(573,-134,cs),
(573,-76,o),
(611,-26,o),
(705,6,c),
(705,22,l),
(653,22,l,{
name = hr00;
}),
(538,2,o),
(446,-82,o),
(446,-168,cs),
(446,-231,o),
(489,-285,o),
(592,-285,cs)
);
}
);
};
layerId = master01;
shapes = (
{
ref = A;
},
{
pos = (275,0);
ref = ogonekcomb;
}
);
width = 729;
}
);
unicode = 260;
},
{
glyphname = Aring;
lastChange = "2023-03-01 10:27:37 +0000";
layers = (
{
background = {
shapes = (
{
closed = 1;
nodes = (
(124,-26,o),
(166,-10,o),
(215,21,c),
(209,37,o),
(207,52,o),
(207,74,cs),
(207,100,o),
(214,135,o),
(226,176,c),
(430,176,l),
(446,63,o),
(486,-26,o),
(584,-26,cs),
(641,-26,o),
(679,-11,o),
(724,17,c),
(642,64,o),
(627,202,o),
(627,340,cs),
(627,427,o),
(635,502,o),
(635,578,cs),
(635,651,o),
(625,725,o),
(550,725,cs),
(513,725,o),
(480,715,o),
(446,700,c),
(433,715,o),
(409,725,o),
(374,725,cs),
(282,725,o),
(222,693,o),
(162,652,c),
(170,618,o),
(180,579,o),
(187,546,c),
(131,419,o),
(-6,204,o),
(-6,82,cs,{
name = hr00;
}),
(-6,17,o),
(18,-26,o),
(83,-26,cs)
);
},
{
closed = 1;
nodes = (
(305,365,o),
(356,466,o),
(402,555,c),
(434,555,l),
(428,465,o),
(423,392,o),
(423,281,c),
(268,281,l)
);
},
{
closed = 1;
nodes = (
(545,732,o),
(626,796,o),
(626,894,cs),
(626,968,o),
(568,1019,o),
(466,1019,cs),
(350,1019,o),
(269,954,o),
(269,857,cs),
(269,783,o),
(327,732,o),
(429,732,cs)
);
},
{
closed = 1;
nodes = (
(400,797,o),
(381,826,o),
(381,861,cs),
(381,889,o),
(392,923,o),
(416,950,c),
(426,951,o),
(432,952,o),
(442,952,cs),
(492,952,o),
(502,925,o),
(502,895,cs),
(502,844,o),
(469,797,o),
(431,797,cs,{
name = hr00;
})
);
}
);
};
layerId = master01;
shapes = (
{
ref = A;
},
{
pos = (204,0);
ref = ringcomb.case;
}
);
width = 729;
}
);
unicode = 197;
},
{
glyphname = Aringacute;
lastChange = "2023-03-01 10:28:25 +0000";
layers = (
{
background = {
shapes = (
{
closed = 1;
nodes = (
(124,-26,o),
(166,-10,o),
(215,21,c),
(209,37,o),
(207,52,o),
(207,74,cs),
(207,100,o),
(214,135,o),
(226,176,c),
(430,176,l),
(446,63,o),
(486,-26,o),
(584,-26,cs),
(641,-26,o),
(679,-11,o),
(724,17,c),
(642,64,o),
(627,202,o),
(627,340,cs),
(627,427,o),
(635,502,o),
(635,578,cs),
(635,651,o),
(625,725,o),
(550,725,cs),
(513,725,o),
(480,715,o),
(446,700,c),
(433,715,o),
(409,725,o),
(374,725,cs),
(282,725,o),
(222,693,o),
(162,652,c),
(170,618,o),
(180,579,o),
(187,546,c),
(131,419,o),
(-6,204,o),
(-6,82,cs,{
name = hr00;
}),
(-6,17,o),
(18,-26,o),
(83,-26,cs)
);
},
{
closed = 1;
nodes = (
(305,365,o),
(356,466,o),
(402,555,c),
(434,555,l),
(428,465,o),
(423,392,o),
(423,281,c),
(268,281,l)
);
},
{
closed = 1;
nodes = (
(553,732,o),
(634,796,o),
(634,894,cs),
(634,919,o),
(627,942,o),
(614,961,c),
(641,971,o),
(669,980,o),
(700,980,cs),
(706,980,o),
(714,979,o),
(720,978,c),
(727,1000,o),
(729,1023,o),
(729,1044,cs),
(729,1109,o),
(706,1129,o),
(679,1129,cs),
(619,1129,o),
(559,1061,o),
(492,1018,c),
(486,1019,o),
(480,1019,o),
(474,1019,cs,{
name = hr01;
}),
(358,1019,o),
(277,954,o),
(277,857,cs),
(277,783,o),
(335,732,o),
(437,732,cs)
);
},
{
closed = 1;
nodes = (
(408,797,o),
(389,826,o),
(389,861,cs),
(389,889,o),
(400,923,o),
(424,950,c),
(434,951,o),
(440,952,o),
(450,952,cs),
(500,952,o),
(510,925,o),
(510,895,cs),
(510,844,o),
(477,797,o),
(439,797,cs)
);
}
);
};
layerId = master01;
shapes = (
{
closed = 1;
nodes = (
(553,732,o),
(634,796,o),
(634,894,cs),
(634,919,o),
(627,942,o),
(614,961,c),
(641,971,o),
(669,980,o),
(700,980,cs),
(706,980,o),
(714,979,o),
(720,978,c),
(727,1000,o),
(729,1023,o),
(729,1044,cs),
(729,1109,o),
(706,1129,o),
(679,1129,cs),
(619,1129,o),
(559,1061,o),
(492,1018,c),
(486,1019,o),
(480,1019,o),
(474,1019,cs,{
name = hr01;
}),
(358,1019,o),
(277,954,o),
(277,857,cs),
(277,783,o),
(335,732,o),
(437,732,cs)
);
},
{
ref = A;
},
{
closed = 1;
nodes = (
(408,797,o),
(389,826,o),
(389,861,cs),
(389,889,o),
(400,923,o),
(424,950,c),
(434,951,o),
(440,952,o),
(450,952,cs),
(500,952,o),
(510,925,o),
(510,895,cs),
(510,844,o),
(477,797,o),
(439,797,cs)
);
}
);
width = 729;
}
);
unicode = 506;
},
{
glyphname = Atilde;
lastChange = "2023-03-01 10:27:37 +0000";
layers = (
{
background = {
shapes = (
{
closed = 1;
nodes = (
(124,-26,o),
(166,-10,o),
(215,21,c),
(209,37,o),
(207,52,o),
(207,74,cs),
(207,100,o),
(214,135,o),
(226,176,c),
(430,176,l),
(446,63,o),
(486,-26,o),
(584,-26,cs),
(641,-26,o),
(679,-11,o),
(724,17,c),
(642,64,o),
(627,202,o),
(627,340,cs),
(627,427,o),
(635,502,o),
(635,578,cs),
(635,651,o),
(625,725,o),
(550,725,cs),
(513,725,o),
(480,715,o),
(446,700,c),
(433,715,o),
(409,725,o),
(374,725,cs),
(282,725,o),
(222,693,o),
(162,652,c),
(170,618,o),
(180,579,o),
(187,546,c),
(131,419,o),
(-6,204,o),
(-6,82,cs,{
name = hr00;
}),
(-6,17,o),
(18,-26,o),
(83,-26,cs)
);
},
{
closed = 1;
nodes = (
(305,365,o),
(356,466,o),
(402,555,c),
(434,555,l),
(428,465,o),
(423,392,o),
(423,281,c),
(268,281,l)
);
},
{
closed = 1;
nodes = (
(383,766,o),
(454,825,o),
(539,825,cs),
(566,825,o),
(594,819,o),
(622,805,c),
(639,842,o),
(649,881,o),
(649,910,cs,{
name = hr02;
}),
(649,958,o),
(622,973,o),
(585,973,cs),
(507,973,o),
(436,914,o),
(351,914,cs),
(324,914,o),
(296,920,o),
(268,934,c),
(251,897,o),
(241,858,o),
(241,829,cs,{
name = hr01;
}),
(241,781,o),
(268,766,o),
(305,766,cs)
);
}
);
};
layerId = master01;
shapes = (
{
ref = A;
},
{
pos = (171,0);
ref = tildecomb.case;
}
);
width = 729;
}
);
unicode = 195;
},
{
glyphname = AE;
lastChange = "2023-03-01 10:28:33 +0000";
layers = (
{
anchors = (
{
name = bottom;
pos = (484,0);
},
{
name = top;
pos = (583,710);
}
);
background = {
shapes = (
{
closed = 1;
nodes = (
(764,246,o),
(814,274,o),
(814,338,cs),
(814,348,o),
(814,369,o),
(809,386,c),
(783,378,o),
(745,363,o),
(719,363,cs),
(655,363,l),
(665,415,o),
(676,470,o),
(684,517,c),
(721,501,o),
(760,493,o),
(796,493,cs),
(900,493,o),
(987,542,o),
(987,656,cs),
(987,675,o),
(985,696,o),
(979,721,c),
(880,693,o),
(766,672,o),
(696,670,c),
(687,702,o),
(659,726,o),
(584,726,cs),
(440,726,o),
(283,691,o),
(162,652,c),
(187,546,l),
(131,419,o),
(-6,204,o),
(-6,82,cs),
(-6,17,o),
(18,-26,o),
(83,-26,cs),
(124,-26,o),
(166,-10,o),
(215,21,c),
(209,37,o),
(207,52,o),
(207,74,cs),
(207,123,o),
(222,183,o),
(246,246,c),
(419,246,l),
(412,195,o),
(408,156,o),
(408,129,cs),
(408,25,o),
(440,-26,o),
(530,-26,cs),
(565,-26,o),
(597,-17,o),
(630,3,c),
(665,-1,o),
(693,-7,o),
(718,-12,cs),
(753,-19,o),
(784,-25,o),
(815,-25,cs,{
name = hr01;
}),
(903,-25,o),
(945,56,o),
(945,126,cs),
(945,145,o),
(944,160,o),
(939,175,c),
(887,156,o),
(835,143,o),
(786,136,c),
(624,136,l),
(624,180,o),
(628,210,o),
(634,246,c),
(705,246,ls)
);
},
{
closed = 1;
nodes = (
(438,363,l),
(297,363,l),
(332,435,o),
(371,503,o),
(402,555,c),
(473,555,l)
);
}
);
};
layerId = master01;
shapes = (
{
closed = 1;
nodes = (
(124,-26,o),
(166,-10,o),
(215,21,c),
(209,37,o),
(207,52,o),
(207,74,cs),
(207,123,o),
(222,183,o),
(246,246,c),
(419,246,l),
(412,195,o),
(408,156,o),
(408,129,cs),
(408,25,o),
(440,-26,o),
(530,-26,cs),
(565,-26,o),
(597,-17,o),
(630,3,c),
(665,-1,o),
(693,-7,o),
(718,-12,cs),
(753,-19,o),
(784,-25,o),
(815,-25,cs,{
name = hr01;
}),
(903,-25,o),
(945,56,o),
(945,126,cs),
(945,145,o),
(944,160,o),
(939,175,c),
(887,156,o),
(835,143,o),
(786,136,c),
(624,136,l),
(624,180,o),
(628,210,o),
(634,246,c),
(705,246,ls),
(764,246,o),
(814,274,o),
(814,338,cs),
(814,348,o),
(814,369,o),
(809,386,c),
(783,378,o),
(745,363,o),
(719,363,cs),
(655,363,l),
(665,415,o),
(676,470,o),
(684,517,c),
(721,501,o),
(760,493,o),
(796,493,cs),
(900,493,o),
(987,542,o),
(987,656,cs),
(987,675,o),
(985,696,o),
(979,721,c),
(880,693,o),
(766,672,o),
(696,670,c),
(687,702,o),
(659,726,o),
(584,726,cs),
(440,726,o),
(283,691,o),
(162,652,c),
(187,546,l),
(131,419,o),
(-6,204,o),
(-6,82,cs),
(-6,17,o),
(18,-26,o),
(83,-26,cs)
);
},
{
closed = 1;
nodes = (
(332,435,o),
(371,503,o),
(402,555,c),
(473,555,l),
(438,363,l),
(297,363,l)
);
}
);
width = 967;
}
);
unicode = 198;
},
{
glyphname = AEacute;
lastChange = "2023-03-01 10:28:33 +0000";
layers = (
{
background = {
shapes = (
{
closed = 1;
nodes = (
(124,-26,o),
(166,-10,o),
(215,21,c),
(209,37,o),
(207,52,o),
(207,74,cs),
(207,123,o),
(222,183,o),
(246,246,c),
(419,246,l),
(412,195,o),
(408,156,o),
(408,129,cs),
(408,25,o),
(440,-26,o),
(530,-26,cs),
(565,-26,o),
(597,-17,o),
(630,3,c),
(665,-1,o),
(693,-7,o),
(718,-12,cs),
(753,-19,o),
(784,-25,o),
(815,-25,cs,{
name = hr01;
}),
(903,-25,o),
(945,56,o),
(945,126,cs),
(945,145,o),
(944,160,o),
(939,175,c),
(887,156,o),
(835,143,o),
(786,136,c),
(624,136,l),
(624,180,o),
(628,210,o),
(634,246,c),
(705,246,ls),
(764,246,o),
(814,274,o),
(814,338,cs),
(814,348,o),
(814,369,o),
(809,386,c),
(783,378,o),
(745,363,o),
(719,363,cs),
(655,363,l),
(665,415,o),
(676,470,o),
(684,517,c),
(721,501,o),
(760,493,o),
(796,493,cs),
(900,493,o),
(987,542,o),
(987,656,cs),
(987,675,o),
(985,696,o),
(979,721,c),
(880,693,o),
(766,672,o),
(696,670,c),
(687,702,o),
(659,726,o),
(584,726,cs),
(440,726,o),
(283,691,o),
(162,652,c),
(187,546,l),
(131,419,o),
(-6,204,o),
(-6,82,cs),
(-6,17,o),
(18,-26,o),
(83,-26,cs)
);
},
{
closed = 1;
nodes = (
(332,435,o),
(371,503,o),
(402,555,c),
(473,555,l),
(438,363,l),
(297,363,l)
);
},
{
closed = 1;
nodes = (
(557,753,o),
(627,820,o),
(718,820,cs),
(725,820,o),
(734,819,o),
(741,818,c),
(748,842,o),
(751,868,o),
(751,891,cs),
(751,963,o),
(725,986,o),
(695,986,cs),
(607,986,o),
(520,854,o),
(415,829,c),
(419,773,o),
(444,753,o),
(471,753,cs,{
name = hr00;
})
);
}
);
};
layerId = master01;
shapes = (
{
ref = AE;
},
{
pos = (345,0);
ref = acutecomb.case;
}
);
width = 967;
}
);
unicode = 508;
},
{
glyphname = B;
lastChange = "2023-03-01 10:27:04 +0000";
layers = (
{
anchors = (
{
name = bottom;
pos = (379,0);
},
{
name = center;
pos = (379,355);
},
{
name = top;
pos = (379,710);
}
);
background = {
shapes = (
{
closed = 1;
nodes = (
(60,25,o),
(92,-26,o),
(182,-26,cs),
(224,-26,o),
(263,-12,o),
(303,17,c),
(338,-7,o),
(389,-25,o),
(464,-25,cs,{
name = hr01;
}),
(587,-25,o),
(727,49,o),
(727,189,cs),
(727,305,o),
(653,353,o),
(567,368,c),
(670,410,o),
(724,482,o),
(724,574,cs),
(724,694,o),
(629,725,o),
(552,725,cs),
(479,725,o),
(411,701,o),
(350,666,c),
(343,700,o),
(323,726,o),
(276,726,cs,{
name = hr02;
}),
(205,726,o),
(132,693,o),
(70,653,c),
(123,546,l),
(83,325,o),
(60,196,o),
(60,129,cs)
);
},
{
closed = 1;
nodes = (
(451,302,o),
(496,277,o),
(496,213,cs),
(496,146,o),
(443,115,o),
(383,115,cs),
(346,115,o),
(306,124,o),
(276,138,c),
(276,164,ls),
(276,186,o),
(282,230,o),
(292,283,c),
(325,294,o),
(363,302,o),
(397,302,cs)
);
},
{
closed = 1;
nodes = (
(482,593,o),
(509,568,o),
(509,518,cs),
(509,424,o),
(407,385,o),
(310,378,c),
(324,451,o),
(339,527,o),
(347,578,c),
(374,587,o),
(401,593,o),
(431,593,cs,{
name = hr03;
})
);
}
);
};
layerId = master01;
shapes = (
{
closed = 1;
nodes = (
(224,-26,o),
(263,-12,o),
(303,17,c),
(338,-7,o),
(389,-25,o),
(464,-25,cs,{
name = hr01;
}),
(587,-25,o),
(727,49,o),
(727,189,cs),
(727,305,o),
(653,353,o),
(567,368,c),
(670,410,o),
(724,482,o),
(724,574,cs),
(724,694,o),
(629,725,o),
(552,725,cs),
(479,725,o),
(411,701,o),
(350,666,c),
(343,700,o),
(323,726,o),
(276,726,cs,{
name = hr02;
}),
(205,726,o),
(132,693,o),
(70,653,c),
(123,546,l),
(83,325,o),
(60,196,o),
(60,129,cs),
(60,25,o),
(92,-26,o),
(182,-26,cs)
);
},
{
closed = 1;
nodes = (
(346,115,o),
(306,124,o),
(276,138,c),
(276,164,ls),
(276,186,o),
(282,230,o),
(292,283,c),
(325,294,o),
(363,302,o),
(397,302,cs),
(451,302,o),
(496,277,o),
(496,213,cs),
(496,146,o),
(443,115,o),
(383,115,cs)
);
},
{
closed = 1;
nodes = (
(324,451,o),
(339,527,o),
(347,578,c),
(374,587,o),
(401,593,o),
(431,593,cs,{
name = hr03;
}),
(482,593,o),
(509,568,o),
(509,518,cs),
(509,424,o),
(407,385,o),
(310,378,c)
);
}
);
width = 757;
}
);
unicode = 66;
},
{
glyphname = C;
lastChange = "2023-03-01 10:28:46 +0000";
layers = (
{
anchors = (
{
name = bottom;
pos = (226,0);
},
{
name = top;
pos = (431,710);
}
);
background = {
shapes = (
{
closed = 1;
nodes = (
(30,80,o),
(161,-25,o),
(333,-25,cs),
(526,-25,o),
(649,103,o),
(649,204,cs),
(649,280,o),
(582,289,o),
(461,289,c),
(461,199,o),
(403,129,o),
(347,129,cs),
(278,129,o),
(248,203,o),
(248,285,cs),
(248,401,o),
(309,515,o),
(380,549,c),
(414,492,o),
(475,462,o),
(534,462,cs),
(607,462,o),
(673,506,o),
(673,592,cs),
(673,679,o),
(590,725,o),
(482,725,cs),
(188,725,o),
(30,489,o),
(30,307,c,{
name = hr00;
})
);
}
);
};
layerId = master01;
shapes = (
{
closed = 1;
nodes = (
(526,-25,o),
(649,103,o),
(649,204,cs),
(649,280,o),
(582,289,o),
(461,289,c),
(461,199,o),
(403,129,o),
(347,129,cs),
(278,129,o),
(248,203,o),
(248,285,cs),
(248,401,o),
(309,515,o),
(380,549,c),
(414,492,o),
(475,462,o),
(534,462,cs),
(607,462,o),
(673,506,o),
(673,592,cs),
(673,679,o),
(590,725,o),
(482,725,cs),
(188,725,o),
(30,489,o),
(30,307,c,{
name = hr00;
}),
(30,80,o),
(161,-25,o),
(333,-25,cs)
);
}
);
width = 683;
}
);
unicode = 67;
},
{
glyphname = Cacute;
lastChange = "2023-03-01 10:28:40 +0000";
layers = (
{
background = {
shapes = (
{
closed = 1;
nodes = (
(526,-25,o),
(649,103,o),
(649,204,cs),
(649,280,o),
(582,289,o),
(461,289,c),
(461,199,o),
(403,129,o),
(347,129,cs),
(278,129,o),
(248,203,o),
(248,285,cs),
(248,401,o),
(309,515,o),
(380,549,c),
(414,492,o),
(475,462,o),
(534,462,cs),
(607,462,o),
(673,506,o),
(673,592,cs),
(673,679,o),
(590,725,o),
(482,725,cs),
(188,725,o),
(30,489,o),
(30,307,c,{
name = hr00;
}),
(30,80,o),
(161,-25,o),
(333,-25,cs)
);
},
{
closed = 1;
nodes = (
(404,753,o),
(474,820,o),
(565,820,cs),
(572,820,o),
(581,819,o),
(588,818,c),
(595,842,o),
(598,868,o),
(598,891,cs),
(598,963,o),
(572,986,o),
(542,986,cs),
(454,986,o),
(367,854,o),
(262,829,c),
(266,773,o),
(291,753,o),
(318,753,cs,{
name = hr00;
})
);
}
);
};
layerId = master01;
shapes = (
{
ref = C;
},
{
pos = (193,0);
ref = acutecomb.case;
}
);
width = 683;
}
);
unicode = 262;
},
{
glyphname = Ccaron;
lastChange = "2023-03-01 10:33:23 +0000";
layers = (
{
background = {
shapes = (
{
closed = 1;
nodes = (
(526,-25,o),
(649,103,o),
(649,204,cs),
(649,280,o),
(582,289,o),
(461,289,c),
(461,199,o),
(403,129,o),
(347,129,cs),
(278,129,o),
(248,203,o),
(248,285,cs),
(248,401,o),
(309,515,o),
(380,549,c),
(414,492,o),
(475,462,o),
(534,462,cs),
(607,462,o),
(673,506,o),
(673,592,cs),
(673,679,o),
(590,725,o),
(482,725,cs),
(188,725,o),
(30,489,o),
(30,307,c,{
name = hr00;
}),
(30,80,o),
(161,-25,o),
(333,-25,cs)
);
},
{
closed = 1;
nodes = (
(433,734,o),
(492,745,o),
(525,761,c,{
name = hr00;
}),
(559,799,o),
(633,873,o),
(633,919,cs),
(633,942,o),
(613,958,o),
(556,958,cs),
(518,958,o),
(486,950,o),
(460,940,c),
(461,928,o),
(462,916,o),
(462,905,cs),
(462,863,o),
(443,819,o),
(421,796,c),
(391,796,l),
(396,827,o),
(402,860,o),
(402,883,cs),
(402,940,o),
(369,958,o),
(321,958,cs),
(288,958,o),
(252,949,o),
(227,939,c),
(244,927,o),
(258,908,o),
(258,874,cs),
(258,791,ls),
(258,750,o),
(312,734,o),
(378,734,cs)
);
}
);
};
layerId = master01;
shapes = (
{
ref = C;
},
{
pos = (180,0);
ref = caroncomb.case;
}
);
width = 683;
}
);
unicode = 268;
},
{
glyphname = Ccedilla;
lastChange = "2023-03-01 10:28:46 +0000";
layers = (
{
background = {
shapes = (
{
closed = 1;
nodes = (
(526,-25,o),
(649,103,o),
(649,204,cs),
(649,280,o),
(582,289,o),
(461,289,c),
(461,199,o),
(403,129,o),
(347,129,cs),
(278,129,o),
(248,203,o),
(248,285,cs),
(248,401,o),
(309,515,o),
(380,549,c),
(414,492,o),
(475,462,o),
(534,462,cs),
(607,462,o),
(673,506,o),
(673,592,cs),
(673,679,o),
(590,725,o),
(482,725,cs),
(188,725,o),
(30,489,o),
(30,307,c,{
name = hr00;
}),
(30,80,o),
(161,-25,o),
(333,-25,cs)
);
},
{
closed = 1;
nodes = (
(331,-287,o),
(406,-196,o),
(406,-111,cs),
(406,-39,o),
(351,28,o),
(232,28,cs),
(194,28,l),
(194,17,l),
(255,-8,o),
(283,-55,o),
(283,-97,cs,{
name = hr00;
}),
(283,-155,o),
(240,-188,o),
(203,-188,cs),
(176,-188,o),
(152,-170,o),
(152,-130,cs),
(152,-104,o),
(163,-75,o),
(180,-60,c),
(101,-60,o),
(46,-115,o),
(46,-180,cs),
(46,-228,o),
(84,-287,o),
(196,-287,cs)
);
}
);
};
layerId = master01;
shapes = (
{
ref = C;
},
{
pos = (-25,0);
ref = cedillacomb;
}
);
width = 683;
}
);
unicode = 199;
},
{
glyphname = Ccircumflex;
lastChange = "2023-03-01 10:28:40 +0000";
layers = (
{
background = {
shapes = (
{
closed = 1;
nodes = (
(526,-25,o),
(649,103,o),
(649,204,cs),
(649,280,o),
(582,289,o),
(461,289,c),
(461,199,o),
(403,129,o),
(347,129,cs),
(278,129,o),
(248,203,o),
(248,285,cs),
(248,401,o),
(309,515,o),
(380,549,c),
(414,492,o),
(475,462,o),
(534,462,cs),
(607,462,o),
(673,506,o),
(673,592,cs),
(673,679,o),
(590,725,o),
(482,725,cs),
(188,725,o),
(30,489,o),
(30,307,c,{
name = hr00;
}),
(30,80,o),
(161,-25,o),
(333,-25,cs)
);
},
{
closed = 1;
nodes = (
(313,744,o),
(351,747,o),
(392,756,c),
(392,804,o),
(417,863,o),
(452,906,c),
(478,906,l),
(475,878,o),
(471,850,o),
(471,826,cs),
(471,778,o),
(488,744,o),
(567,744,cs),
(592,744,o),
(615,746,o),
(638,752,c),
(630,766,o),
(624,785,o),
(624,808,cs),
(624,852,o),
(634,884,o),
(634,931,cs),
(634,958,o),
(579,968,o),
(517,968,cs),
(448,968,o),
(370,956,o),
(347,943,c),
(311,903,o),
(223,802,o),
(223,763,cs),
(223,752,o),
(238,744,o),
(280,744,c,{
name = hr00;
})
);
}
);
};
layerId = master01;
shapes = (
{
ref = C;
},
{
pos = (143,0);
ref = circumflexcomb.case;
}
);
width = 683;
}
);
unicode = 264;
},
{
glyphname = Cdotaccent;
lastChange = "2023-03-01 10:28:40 +0000";
layers = (
{
background = {
shapes = (
{
closed = 1;
nodes = (
(526,-25,o),
(649,103,o),
(649,204,cs),
(649,280,o),
(582,289,o),
(461,289,c),
(461,199,o),
(403,129,o),
(347,129,cs),
(278,129,o),
(248,203,o),
(248,285,cs),
(248,401,o),
(309,515,o),
(380,549,c),
(414,492,o),
(475,462,o),
(534,462,cs),
(607,462,o),
(673,506,o),
(673,592,cs),
(673,679,o),
(590,725,o),
(482,725,cs),
(188,725,o),
(30,489,o),
(30,307,c,{
name = hr00;
}),
(30,80,o),
(161,-25,o),
(333,-25,cs)
);
},
{
closed = 1;
nodes = (
(498,748,o),
(563,804,o),
(563,887,cs),
(563,944,o),
(520,983,o),
(449,983,cs),
(362,983,o),
(297,927,o),
(297,843,cs),
(297,787,o),
(340,748,o),
(411,748,cs,{
name = hr00;
})
);
}
);
};
layerId = master01;
shapes = (
{
ref = C;
},
{
pos = (228,0);
ref = dotaccentcomb.case;
}
);
width = 683;
}
);
unicode = 266;
},
{
glyphname = D;
lastChange = "2023-03-01 10:28:53 +0000";
layers = (
{
anchors = (
{
name = bottom;
pos = (388,0);
},
{
name = center;
pos = (388,355);
},
{
name = top;
pos = (438,710);
}
);
background = {
shapes = (
{
closed = 1;
nodes = (
(60,37,o),
(154,-25,o),
(283,-25,cs),
(613,-25,o),
(776,220,o),
(776,429,cs),
(776,587,o),
(684,724,o),
(502,724,cs),
(457,724,o),
(406,715,o),
(349,695,c),
(336,713,o),
(315,725,o),
(283,725,cs,{
name = hr01;
}),
(207,725,o),
(141,695,o),
(67,653,c),
(120,546,l),
(94,394,o),
(60,239,o),
(60,163,cs)
);
},
{
closed = 1;
nodes = (
(289,246,o),
(332,486,o),
(347,592,c),
(361,594,o),
(375,596,o),
(387,596,cs,{
name = hr02;
}),
(495,596,o),
(550,513,o),
(550,393,cs),
(550,248,o),
(471,121,o),
(319,121,cs),
(304,121,o),
(288,122,o),
(272,125,c)
);
}
);
};
layerId = master01;
shapes = (
{
closed = 1;
nodes = (
(613,-25,o),
(776,220,o),
(776,429,cs),
(776,587,o),
(684,724,o),
(502,724,cs),
(457,724,o),
(406,715,o),
(349,695,c),
(336,713,o),
(315,725,o),
(283,725,cs,{
name = hr01;
}),
(207,725,o),
(141,695,o),
(67,653,c),
(120,546,l),
(94,394,o),
(60,239,o),
(60,163,cs),
(60,37,o),
(154,-25,o),
(283,-25,cs)
);
},
{
closed = 1;
nodes = (
(304,121,o),
(288,122,o),
(272,125,c),
(289,246,o),
(332,486,o),
(347,592,c),
(361,594,o),
(375,596,o),
(387,596,cs,{
name = hr02;
}),
(495,596,o),
(550,513,o),
(550,393,cs),
(550,248,o),
(471,121,o),
(319,121,cs)
);
}
);
width = 776;
}
);
unicode = 68;
},
{
glyphname = Eth;
lastChange = "2023-03-01 10:29:13 +0000";
layers = (
{
background = {
shapes = (
{
closed = 1;
nodes = (
(162,234,o),
(259,304,o),
(391,304,cs),
(413,304,o),
(435,302,o),
(455,294,c),
(482,325,o),
(496,362,o),
(496,389,cs),
(496,439,o),
(459,453,o),
(415,453,cs),
(334,453,o),
(237,383,o),
(105,383,cs),
(83,383,o),
(61,385,o),
(41,393,c),
(14,362,o),
(0,325,o),
(0,298,cs),
(0,248,o),
(37,234,o),
(81,234,c)
);
},
{
closed = 1;
nodes = (
(635,-25,o),
(798,220,o),
(798,429,cs),
(798,587,o),
(706,724,o),
(524,724,cs),
(479,724,o),
(428,715,o),
(371,695,c),
(358,713,o),
(337,725,o),
(305,725,cs,{
name = hr01;
}),
(229,725,o),
(163,695,o),
(89,653,c),
(142,546,l),
(116,394,o),
(82,239,o),
(82,163,cs),
(82,37,o),
(176,-25,o),
(305,-25,cs)
);
},
{
closed = 1;
nodes = (
(326,121,o),
(310,122,o),
(294,125,c),
(311,246,o),
(354,486,o),
(369,592,c),
(383,594,o),
(397,596,o),
(409,596,cs,{
name = hr02;
}),
(517,596,o),
(572,513,o),
(572,393,cs),
(572,248,o),
(493,121,o),
(341,121,cs)
);
},
{
closed = 1;
nodes = (
(166,247,o),
(255,314,o),
(359,314,c),
(392,314,o),
(428,308,o),
(461,293,c),
(483,320,o),
(495,350,o),
(495,374,cs),
(495,420,o),
(459,437,o),
(412,437,cs),
(320,437,o),
(241,376,o),
(145,376,cs,{
name = hr01;
}),
(113,376,o),
(77,380,o),
(45,391,c),
(23,363,o),
(10,328,o),
(10,303,cs),
(10,260,o),
(32,247,o),
(64,247,cs)
);
}
);
};
layerId = master01;
shapes = (
{
closed = 1;
nodes = (
(162,234,o),
(259,304,o),
(391,304,cs),
(413,304,o),
(435,302,o),
(455,294,c),
(482,325,o),
(496,362,o),
(496,389,cs),
(496,439,o),
(459,453,o),
(415,453,cs),
(334,453,o),
(237,383,o),
(105,383,cs),
(83,383,o),
(61,385,o),
(41,393,c),
(14,362,o),
(0,325,o),
(0,298,cs),
(0,248,o),
(37,234,o),
(81,234,c)
);
},
{
pos = (22,0);
ref = D;
}
);
width = 798;
}
);
unicode = 208;
},
{
glyphname = Dcaron;
lastChange = "2023-03-01 10:33:23 +0000";
layers = (
{
background = {
shapes = (
{
closed = 1;
nodes = (
(613,-25,o),
(776,220,o),
(776,429,cs),
(776,587,o),
(684,724,o),
(502,724,cs),
(457,724,o),
(406,715,o),
(349,695,c),
(336,713,o),
(315,725,o),
(283,725,cs,{
name = hr01;
}),
(207,725,o),
(141,695,o),
(67,653,c),
(120,546,l),
(94,394,o),
(60,239,o),
(60,163,cs),
(60,37,o),
(154,-25,o),
(283,-25,cs)
);
},
{
closed = 1;
nodes = (
(304,121,o),
(288,122,o),
(272,125,c),
(289,246,o),
(332,486,o),
(347,592,c),
(361,594,o),
(375,596,o),
(387,596,cs,{
name = hr02;
}),
(495,596,o),
(550,513,o),
(550,393,cs),
(550,248,o),
(471,121,o),
(319,121,cs)
);
},
{
closed = 1;
nodes = (
(441,734,o),
(500,745,o),
(533,761,c,{
name = hr00;
}),
(567,799,o),
(641,873,o),
(641,919,cs),
(641,942,o),
(621,958,o),
(564,958,cs),
(526,958,o),
(494,950,o),
(468,940,c),
(469,928,o),
(470,916,o),
(470,905,cs),
(470,863,o),
(451,819,o),
(429,796,c),
(399,796,l),
(404,827,o),
(410,860,o),
(410,883,cs),
(410,940,o),
(377,958,o),
(329,958,cs),
(296,958,o),
(260,949,o),
(235,939,c),
(252,927,o),
(266,908,o),
(266,874,cs),
(266,791,ls),
(266,750,o),
(320,734,o),
(386,734,cs)
);
}
);
};
layerId = master01;
shapes = (
{
ref = D;
},
{
pos = (187,0);
ref = caroncomb.case;
}
);
width = 776;
}
);
unicode = 270;
},
{
glyphname = Dcroat;
lastChange = "2023-03-01 10:29:13 +0000";
layers = (
{
background = {
shapes = (
{
closed = 1;
nodes = (
(613,-25,o),
(776,220,o),
(776,429,cs),
(776,587,o),
(684,724,o),
(502,724,cs),
(457,724,o),
(406,715,o),
(349,695,c),
(336,713,o),
(315,725,o),
(283,725,cs,{
name = hr01;
}),
(207,725,o),
(141,695,o),
(67,653,c),
(120,546,l),
(94,394,o),
(60,239,o),
(60,163,cs),
(60,37,o),
(154,-25,o),
(283,-25,cs)
);
},
{
closed = 1;
nodes = (
(304,121,o),
(288,122,o),
(272,125,c),
(289,246,o),
(332,486,o),
(347,592,c),
(361,594,o),
(375,596,o),
(387,596,cs,{
name = hr02;
}),
(495,596,o),
(550,513,o),
(550,393,cs),
(550,248,o),
(471,121,o),
(319,121,cs)
);
},
{
closed = 1;
nodes = (
(144,247,o),
(233,314,o),
(337,314,c),
(370,314,o),
(406,308,o),
(439,293,c),
(461,320,o),
(473,350,o),
(473,374,cs),
(473,420,o),
(437,437,o),
(390,437,cs),
(298,437,o),
(219,376,o),
(123,376,cs,{
name = hr01;
}),
(91,376,o),
(55,380,o),
(23,391,c),
(1,363,o),
(-12,328,o),
(-12,303,cs),
(-12,260,o),
(10,247,o),
(42,247,cs)
);
}
);
};
layerId = master01;
shapes = (
{
ref = Eth;
}
);
width = 798;
}
);
unicode = 272;
},
{
glyphname = E;
lastChange = "2023-03-01 10:29:35 +0000";
layers = (
{
anchors = (
{
name = bottom;
pos = (310,0);
},
{
name = ogonek;
pos = (626,22);
},
{
name = top;
pos = (411,710);
},
{
name = topleft;
pos = (20,710);
}
);
background = {
shapes = (
{
closed = 1;
nodes = (
(60,25,o),
(92,-26,o),
(182,-26,cs),
(217,-26,o),
(249,-17,o),
(282,3,c),
(317,-1,o),
(345,-7,o),
(370,-12,cs),
(405,-19,o),
(436,-25,o),
(467,-25,cs,{
name = hr01;
}),
(555,-25,o),
(597,56,o),
(597,126,cs),
(597,145,o),
(596,160,o),
(591,175,c),
(539,156,o),
(487,143,o),
(438,136,c),
(276,136,l),
(276,182,o),
(280,215,o),
(287,255,c),
(309,250,o),
(331,246,o),
(357,246,cs),
(416,246,o),
(466,274,o),
(466,338,cs),
(466,348,o),
(466,369,o),
(461,386,c),
(435,378,o),
(397,368,o),
(371,363,c),
(349,363,o),
(329,366,o),
(308,370,c),
(318,421,o),
(328,472,o),
(336,517,c),
(373,501,o),
(412,493,o),
(448,493,cs),
(552,493,o),
(639,542,o),
(639,656,cs),
(639,675,o),
(637,696,o),
(631,721,c),
(532,693,o),
(418,672,o),
(349,670,c),
(341,702,o),
(321,726,o),
(276,726,cs),
(205,726,o),
(132,693,o),
(70,653,c),
(123,546,l),
(83,325,o),
(60,196,o),
(60,129,cs)
);
}
);
};
layerId = master01;
shapes = (
{
closed = 1;
nodes = (
(217,-26,o),
(249,-17,o),
(282,3,c),
(317,-1,o),
(345,-7,o),
(370,-12,cs),
(405,-19,o),
(436,-25,o),
(467,-25,cs,{
name = hr01;
}),
(555,-25,o),
(597,56,o),
(597,126,cs),
(597,145,o),
(596,160,o),
(591,175,c),
(539,156,o),
(487,143,o),
(438,136,c),
(276,136,l),
(276,182,o),
(280,215,o),
(287,255,c),
(309,250,o),
(331,246,o),
(357,246,cs),
(416,246,o),
(466,274,o),
(466,338,cs),
(466,348,o),
(466,369,o),
(461,386,c),
(435,378,o),
(397,368,o),
(371,363,c),
(349,363,o),
(329,366,o),
(308,370,c),
(318,421,o),
(328,472,o),
(336,517,c),
(373,501,o),
(412,493,o),
(448,493,cs),
(552,493,o),
(639,542,o),
(639,656,cs),
(639,675,o),
(637,696,o),
(631,721,c),
(532,693,o),
(418,672,o),
(349,670,c),
(341,702,o),
(321,726,o),
(276,726,cs),
(205,726,o),
(132,693,o),
(70,653,c),
(123,546,l),
(83,325,o),
(60,196,o),
(60,129,cs),
(60,25,o),
(92,-26,o),
(182,-26,cs)
);
}
);
width = 619;
}
);
unicode = 69;
},
{
glyphname = Eacute;
lastChange = "2023-03-01 10:29:24 +0000";
layers = (
{
background = {
shapes = (
{
closed = 1;
nodes = (
(217,-26,o),
(249,-17,o),
(282,3,c),
(317,-1,o),
(345,-7,o),
(370,-12,cs),
(405,-19,o),
(436,-25,o),
(467,-25,cs,{
name = hr01;
}),
(555,-25,o),
(597,56,o),
(597,126,cs),
(597,145,o),
(596,160,o),
(591,175,c),
(539,156,o),
(487,143,o),
(438,136,c),
(276,136,l),
(276,182,o),
(280,215,o),
(287,255,c),
(309,250,o),
(331,246,o),
(357,246,cs),
(416,246,o),
(466,274,o),
(466,338,cs),
(466,348,o),
(466,369,o),
(461,386,c),
(435,378,o),
(397,368,o),
(371,363,c),
(349,363,o),
(329,366,o),
(308,370,c),
(318,421,o),
(328,472,o),
(336,517,c),
(373,501,o),
(412,493,o),
(448,493,cs),
(552,493,o),
(639,542,o),
(639,656,cs),
(639,675,o),
(637,696,o),
(631,721,c),
(532,693,o),
(418,672,o),
(349,670,c),
(341,702,o),
(321,726,o),
(276,726,cs),
(205,726,o),
(132,693,o),
(70,653,c),
(123,546,l),
(83,325,o),
(60,196,o),
(60,129,cs),
(60,25,o),
(92,-26,o),
(182,-26,cs)
);
},
{
closed = 1;
nodes = (
(397,753,o),
(467,820,o),
(558,820,cs),
(565,820,o),
(574,819,o),
(581,818,c),
(588,842,o),
(591,868,o),
(591,891,cs),
(591,963,o),
(565,986,o),
(535,986,cs),
(447,986,o),
(360,854,o),
(255,829,c),
(259,773,o),
(284,753,o),
(311,753,c,{
name = hr00;
})
);
}
);
};
layerId = master01;
shapes = (
{
ref = E;
},
{
pos = (173,0);
ref = acutecomb.case;
}
);
width = 619;
}
);
unicode = 201;
},
{
glyphname = Ebreve;
lastChange = "2023-03-01 10:29:24 +0000";
layers = (
{
background = {
shapes = (
{
closed = 1;
nodes = (
(217,-26,o),
(249,-17,o),
(282,3,c),
(317,-1,o),
(345,-7,o),
(370,-12,cs),
(405,-19,o),
(436,-25,o),
(467,-25,cs,{
name = hr01;
}),
(555,-25,o),
(597,56,o),
(597,126,cs),
(597,145,o),
(596,160,o),
(591,175,c),
(539,156,o),
(487,143,o),
(438,136,c),
(276,136,l),
(276,182,o),
(280,215,o),
(287,255,c),
(309,250,o),
(331,246,o),
(357,246,cs),
(416,246,o),
(466,274,o),
(466,338,cs),
(466,348,o),
(466,369,o),
(461,386,c),
(435,378,o),
(397,368,o),
(371,363,c),
(349,363,o),
(329,366,o),
(308,370,c),
(318,421,o),
(328,472,o),
(336,517,c),
(373,501,o),
(412,493,o),
(448,493,cs),
(552,493,o),
(639,542,o),
(639,656,cs),
(639,675,o),
(637,696,o),
(631,721,c),
(532,693,o),
(418,672,o),
(349,670,c),
(341,702,o),
(321,726,o),
(276,726,cs),
(205,726,o),
(132,693,o),
(70,653,c),
(123,546,l),
(83,325,o),
(60,196,o),
(60,129,cs),
(60,25,o),
(92,-26,o),
(182,-26,cs)
);
},
{
closed = 1;
nodes = (
(475,762,o),
(601,811,o),
(601,930,cs),
(601,945,o),
(599,961,o),
(596,978,c),
(547,927,o),
(475,896,o),
(409,896,cs),
(341,896,o),
(288,910,o),
(247,958,c),
(239,930,o),
(237,907,o),
(237,883,cs),
(237,797,o),
(293,762,o),
(373,762,cs,{
name = hr00;
})
);
}
);
};
layerId = master01;
shapes = (
{
ref = E;
},
{
pos = (172,0);
ref = brevecomb.case;
}
);
width = 619;
}
);
unicode = 276;
},
{
glyphname = Ecaron;
lastChange = "2023-03-01 10:33:23 +0000";
layers = (
{
background = {
shapes = (
{
closed = 1;
nodes = (
(217,-26,o),
(249,-17,o),
(282,3,c),
(317,-1,o),
(345,-7,o),
(370,-12,cs),
(405,-19,o),
(436,-25,o),
(467,-25,cs,{
name = hr01;
}),
(555,-25,o),
(597,56,o),
(597,126,cs),
(597,145,o),
(596,160,o),
(591,175,c),
(539,156,o),
(487,143,o),
(438,136,c),
(276,136,l),
(276,182,o),
(280,215,o),
(287,255,c),
(309,250,o),
(331,246,o),
(357,246,cs),
(416,246,o),
(466,274,o),
(466,338,cs),
(466,348,o),
(466,369,o),
(461,386,c),
(435,378,o),
(397,368,o),
(371,363,c),
(349,363,o),
(329,366,o),
(308,370,c),
(318,421,o),
(328,472,o),
(336,517,c),
(373,501,o),
(412,493,o),
(448,493,cs),
(552,493,o),
(639,542,o),
(639,656,cs),
(639,675,o),
(637,696,o),
(631,721,c),
(532,693,o),
(418,672,o),
(349,670,c),
(341,702,o),
(321,726,o),
(276,726,cs),
(205,726,o),
(132,693,o),
(70,653,c),
(123,546,l),
(83,325,o),
(60,196,o),
(60,129,cs),
(60,25,o),
(92,-26,o),
(182,-26,cs)
);
},
{
closed = 1;
nodes = (
(422,734,o),
(481,745,o),
(514,761,c,{
name = hr00;
}),
(548,799,o),
(622,873,o),
(622,919,cs),
(622,942,o),
(602,958,o),
(545,958,cs),
(507,958,o),
(475,950,o),
(449,940,c),
(450,928,o),
(451,916,o),
(451,905,cs),
(451,863,o),
(432,819,o),
(410,796,c),
(380,796,l),
(385,827,o),
(391,860,o),
(391,883,cs),
(391,940,o),
(358,958,o),
(310,958,cs),
(277,958,o),
(241,949,o),
(216,939,c),
(233,927,o),
(247,908,o),
(247,874,cs),
(247,791,ls),
(247,750,o),
(301,734,o),
(367,734,cs)
);
}
);
};
layerId = master01;
shapes = (
{
ref = E;
},
{
pos = (160,0);
ref = caroncomb.case;
}
);
width = 619;
}
);
unicode = 282;
},
{
glyphname = Ecircumflex;
lastChange = "2023-03-01 10:29:24 +0000";
layers = (
{
background = {
shapes = (
{
closed = 1;
nodes = (
(217,-26,o),
(249,-17,o),
(282,3,c),
(317,-1,o),
(345,-7,o),
(370,-12,cs),
(405,-19,o),
(436,-25,o),
(467,-25,cs,{
name = hr01;
}),
(555,-25,o),
(597,56,o),
(597,126,cs),
(597,145,o),
(596,160,o),
(591,175,c),
(539,156,o),
(487,143,o),
(438,136,c),
(276,136,l),
(276,182,o),
(280,215,o),
(287,255,c),
(309,250,o),
(331,246,o),
(357,246,cs),
(416,246,o),
(466,274,o),
(466,338,cs),
(466,348,o),
(466,369,o),
(461,386,c),
(435,378,o),
(397,368,o),
(371,363,c),
(349,363,o),
(329,366,o),
(308,370,c),
(318,421,o),
(328,472,o),
(336,517,c),
(373,501,o),
(412,493,o),
(448,493,cs),
(552,493,o),
(639,542,o),
(639,656,cs),
(639,675,o),
(637,696,o),
(631,721,c),
(532,693,o),
(418,672,o),
(349,670,c),
(341,702,o),
(321,726,o),
(276,726,cs),
(205,726,o),
(132,693,o),
(70,653,c),
(123,546,l),
(83,325,o),
(60,196,o),
(60,129,cs),
(60,25,o),
(92,-26,o),
(182,-26,cs)
);
},
{
closed = 1;
nodes = (
(263,759,o),
(301,762,o),
(342,771,c),
(342,819,o),
(367,878,o),
(402,921,c),
(428,921,l),
(425,893,o),
(421,865,o),
(421,841,cs),
(421,793,o),
(438,759,o),
(517,759,cs),
(542,759,o),
(565,761,o),
(588,767,c),
(580,781,o),
(574,800,o),
(574,823,cs),
(574,867,o),
(584,899,o),
(584,946,cs),
(584,973,o),
(529,983,o),
(467,983,cs),
(398,983,o),
(320,971,o),
(297,958,c),
(261,918,o),
(173,817,o),
(173,778,cs),
(173,767,o),
(188,759,o),
(230,759,c,{
name = hr00;
})
);
}
);
};
layerId = master01;
shapes = (
{
ref = E;
},
{
pos = (123,0);
ref = circumflexcomb.case;
}
);
width = 619;
}
);
unicode = 202;
},
{
glyphname = Edieresis;
lastChange = "2023-03-01 10:29:24 +0000";
layers = (
{
background = {
shapes = (
{
closed = 1;
nodes = (
(217,-26,o),
(249,-17,o),
(282,3,c),
(317,-1,o),
(345,-7,o),
(370,-12,cs),
(405,-19,o),
(436,-25,o),
(467,-25,cs,{
name = hr01;
}),
(555,-25,o),
(597,56,o),
(597,126,cs),
(597,145,o),
(596,160,o),
(591,175,c),
(539,156,o),
(487,143,o),
(438,136,c),
(276,136,l),
(276,182,o),
(280,215,o),
(287,255,c),
(309,250,o),
(331,246,o),
(357,246,cs),
(416,246,o),
(466,274,o),
(466,338,cs),
(466,348,o),
(466,369,o),
(461,386,c),
(435,378,o),
(397,368,o),
(371,363,c),
(349,363,o),
(329,366,o),
(308,370,c),
(318,421,o),
(328,472,o),
(336,517,c),
(373,501,o),
(412,493,o),
(448,493,cs),
(552,493,o),
(639,542,o),
(639,656,cs),
(639,675,o),
(637,696,o),
(631,721,c),
(532,693,o),
(418,672,o),
(349,670,c),
(341,702,o),
(321,726,o),
(276,726,cs),
(205,726,o),
(132,693,o),
(70,653,c),
(123,546,l),
(83,325,o),
(60,196,o),
(60,129,cs),
(60,25,o),
(92,-26,o),
(182,-26,cs)
);
},
{
closed = 1;
nodes = (
(609,771,o),
(668,813,o),
(668,878,cs),
(668,925,o),
(628,954,o),
(574,954,cs),
(521,954,o),
(449,920,o),
(449,846,cs),
(449,799,o),
(489,771,o),
(543,771,cs,{
name = hr00;
})
);
},
{
closed = 1;
nodes = (
(308,771,o),
(367,813,o),
(367,878,cs),
(367,925,o),
(327,954,o),
(273,954,cs),
(220,954,o),
(148,920,o),
(148,846,cs),
(148,799,o),
(188,771,o),
(242,771,cs)
);
}
);
};
layerId = master01;
shapes = (
{
ref = E;
},
{
pos = (65,0);
ref = dieresiscomb.case;
}
);
width = 619;
}
);
unicode = 203;
},
{
glyphname = Edotaccent;
lastChange = "2023-03-01 10:29:24 +0000";
layers = (
{
background = {
shapes = (
{
closed = 1;
nodes = (
(217,-26,o),
(249,-17,o),
(282,3,c),
(317,-1,o),
(345,-7,o),
(370,-12,cs),
(405,-19,o),
(436,-25,o),
(467,-25,cs,{
name = hr01;
}),
(555,-25,o),
(597,56,o),
(597,126,cs),
(597,145,o),
(596,160,o),
(591,175,c),
(539,156,o),
(487,143,o),
(438,136,c),
(276,136,l),
(276,182,o),
(280,215,o),
(287,255,c),
(309,250,o),
(331,246,o),
(357,246,cs),
(416,246,o),
(466,274,o),
(466,338,cs),
(466,348,o),
(466,369,o),
(461,386,c),
(435,378,o),
(397,368,o),
(371,363,c),
(349,363,o),
(329,366,o),
(308,370,c),
(318,421,o),
(328,472,o),
(336,517,c),
(373,501,o),
(412,493,o),
(448,493,cs),
(552,493,o),
(639,542,o),
(639,656,cs),
(639,675,o),
(637,696,o),
(631,721,c),
(532,693,o),
(418,672,o),
(349,670,c),
(341,702,o),
(321,726,o),
(276,726,cs),
(205,726,o),
(132,693,o),
(70,653,c),
(123,546,l),
(83,325,o),
(60,196,o),
(60,129,cs),
(60,25,o),
(92,-26,o),
(182,-26,cs)
);
},
{
closed = 1;
nodes = (
(487,748,o),
(552,804,o),
(552,887,cs),
(552,944,o),
(509,983,o),
(438,983,cs),
(351,983,o),
(286,927,o),
(286,843,cs),
(286,787,o),
(329,748,o),
(400,748,cs,{
name = hr00;
})
);
}
);
};
layerId = master01;
shapes = (
{
ref = E;
},
{
pos = (208,0);
ref = dotaccentcomb.case;
}
);
width = 619;
}
);
unicode = 278;
},
{
glyphname = Egrave;
lastChange = "2023-03-01 10:29:24 +0000";
layers = (
{
background = {
shapes = (
{
closed = 1;
nodes = (
(217,-26,o),
(249,-17,o),
(282,3,c),
(317,-1,o),
(345,-7,o),
(370,-12,cs),
(405,-19,o),
(436,-25,o),
(467,-25,cs,{
name = hr01;
}),
(555,-25,o),
(597,56,o),
(597,126,cs),
(597,145,o),
(596,160,o),
(591,175,c),
(539,156,o),
(487,143,o),
(438,136,c),
(276,136,l),
(276,182,o),
(280,215,o),
(287,255,c),
(309,250,o),
(331,246,o),
(357,246,cs),
(416,246,o),
(466,274,o),
(466,338,cs),
(466,348,o),
(466,369,o),
(461,386,c),
(435,378,o),
(397,368,o),
(371,363,c),
(349,363,o),
(329,366,o),
(308,370,c),
(318,421,o),
(328,472,o),
(336,517,c),
(373,501,o),
(412,493,o),
(448,493,cs),
(552,493,o),
(639,542,o),
(639,656,cs),
(639,675,o),
(637,696,o),
(631,721,c),
(532,693,o),
(418,672,o),
(349,670,c),
(341,702,o),
(321,726,o),
(276,726,cs),
(205,726,o),
(132,693,o),
(70,653,c),
(123,546,l),
(83,325,o),
(60,196,o),
(60,129,cs),
(60,25,o),
(92,-26,o),
(182,-26,cs)
);
},
{
closed = 1;
nodes = (
(547,753,o),
(572,773,o),
(576,829,c),
(471,854,o),
(384,986,o),
(296,986,cs),
(266,986,o),
(240,963,o),
(240,891,cs),
(240,868,o),
(243,842,o),
(250,818,c),
(257,819,o),
(266,820,o),
(273,820,cs),
(364,820,o),
(434,753,o),
(520,753,c,{
name = hr00;
})
);
}
);
};
layerId = master01;
shapes = (
{
ref = E;
},
{
pos = (223,0);
ref = gravecomb.case;
}
);
width = 619;
}
);
unicode = 200;
},
{
glyphname = Emacron;
lastChange = "2023-03-01 10:29:24 +0000";
layers = (
{
background = {
shapes = (
{
closed = 1;
nodes = (
(217,-26,o),
(249,-17,o),
(282,3,c),
(317,-1,o),
(345,-7,o),
(370,-12,cs),
(405,-19,o),
(436,-25,o),
(467,-25,cs,{
name = hr01;
}),
(555,-25,o),
(597,56,o),
(597,126,cs),
(597,145,o),
(596,160,o),
(591,175,c),
(539,156,o),
(487,143,o),
(438,136,c),
(276,136,l),
(276,182,o),
(280,215,o),
(287,255,c),
(309,250,o),
(331,246,o),
(357,246,cs),
(416,246,o),
(466,274,o),
(466,338,cs),
(466,348,o),
(466,369,o),
(461,386,c),
(435,378,o),
(397,368,o),
(371,363,c),
(349,363,o),
(329,366,o),
(308,370,c),
(318,421,o),
(328,472,o),
(336,517,c),
(373,501,o),
(412,493,o),
(448,493,cs),
(552,493,o),
(639,542,o),
(639,656,cs),
(639,675,o),
(637,696,o),
(631,721,c),
(532,693,o),
(418,672,o),
(349,670,c),
(341,702,o),
(321,726,o),
(276,726,cs),
(205,726,o),
(132,693,o),
(70,653,c),
(123,546,l),
(83,325,o),
(60,196,o),
(60,129,cs),
(60,25,o),
(92,-26,o),
(182,-26,cs)
);
},
{
closed = 1;
nodes = (
(342,785,o),
(438,809,o),
(517,809,cs),
(537,809,o),
(577,805,o),
(593,795,c),
(604,819,o),
(607,844,o),
(607,867,cs),
(607,919,o),
(581,938,o),
(536,938,cs),
(466,938,o),
(399,932,o),
(335,932,cs),
(320,932,o),
(281,935,o),
(261,944,c,{
name = hr01;
}),
(244,909,o),
(232,879,o),
(232,838,cs),
(232,797,o),
(248,785,o),
(267,785,c)
);
}
);
};
layerId = master01;
shapes = (
{
ref = E;
},
{
pos = (133,0);
ref = macroncomb.case;
}
);
width = 619;
}
);
unicode = 274;
},
{
glyphname = Eogonek;
lastChange = "2023-03-01 10:29:35 +0000";
layers = (
{
background = {
shapes = (
{
closed = 1;
nodes = (
(217,-26,o),
(249,-17,o),
(282,3,c),
(317,-1,o),
(345,-7,o),
(370,-12,cs),
(405,-19,o),
(436,-25,o),
(467,-25,cs,{
name = hr01;
}),
(555,-25,o),
(597,56,o),
(597,126,cs),
(597,145,o),
(596,160,o),
(591,175,c),
(539,156,o),
(487,143,o),
(438,136,c),
(276,136,l),
(276,182,o),
(280,215,o),
(287,255,c),
(309,250,o),
(331,246,o),
(357,246,cs),
(416,246,o),
(466,274,o),
(466,338,cs),
(466,348,o),
(466,369,o),
(461,386,c),
(435,378,o),
(397,368,o),
(371,363,c),
(349,363,o),
(329,366,o),
(308,370,c),
(318,421,o),
(328,472,o),
(336,517,c),
(373,501,o),
(412,493,o),
(448,493,cs),
(552,493,o),
(639,542,o),
(639,656,cs),
(639,675,o),
(637,696,o),
(631,721,c),
(532,693,o),
(418,672,o),
(349,670,c),
(341,702,o),
(321,726,o),
(276,726,cs),
(205,726,o),
(132,693,o),
(70,653,c),
(123,546,l),
(83,325,o),
(60,196,o),
(60,129,cs),
(60,25,o),
(92,-26,o),
(182,-26,cs)
);
},
{
closed = 1;
nodes = (
(550,-285,o),
(626,-215,o),
(626,-153,cs),
(626,-117,o),
(602,-85,o),
(545,-70,c),
(548,-78,o),
(549,-87,o),
(549,-95,cs),
(549,-138,o),
(517,-186,o),
(469,-186,cs),
(440,-186,o),
(416,-167,o),
(416,-134,cs),
(416,-76,o),
(454,-26,o),
(548,6,c),
(548,22,l),
(496,22,l,{
name = hr00;
}),
(381,2,o),
(289,-82,o),
(289,-168,cs),
(289,-231,o),
(332,-285,o),
(435,-285,cs)
);
}
);
};
layerId = master01;
shapes = (
{
ref = E;
},
{
pos = (118,0);
ref = ogonekcomb;
}
);
width = 619;
}
);
unicode = 280;
},
{
glyphname = F;
lastChange = "2023-03-01 10:27:04 +0000";
layers = (
{
anchors = (
{
name = bottom;
pos = (295,0);
},
{
name = top;
pos = (295,710);
}
);
background = {
shapes = (
{
closed = 1;
nodes = (
(60,25,o),
(92,-26,o),
(182,-26,cs),
(225,-26,o),
(265,-12,o),
(306,19,c),
(286,51,o),
(276,96,o),
(276,164,cs),
(276,182,o),
(280,215,o),
(287,255,c),
(309,250,o),
(331,246,o),
(358,246,cs),
(417,246,o),
(467,274,o),
(467,338,cs),
(467,348,o),
(467,369,o),
(462,386,c),
(436,378,o),
(398,368,o),
(372,363,c),
(350,363,o),
(329,366,o),
(308,371,c),
(319,429,o),
(332,490,o),
(340,539,c),
(381,519,o),
(418,508,o),
(459,508,cs),
(552,508,o),
(629,556,o),
(629,645,cs),
(629,666,o),
(626,693,o),
(621,721,c),
(522,693,o),
(416,672,o),
(349,670,c),
(341,702,o),
(321,726,o),
(276,726,cs),
(205,726,o),
(132,693,o),
(70,653,c),
(123,546,l),
(83,325,o),
(60,196,o),
(60,129,cs,{
name = hr00;
})
);
}
);
};
layerId = master01;
shapes = (
{
closed = 1;
nodes = (
(225,-26,o),
(265,-12,o),
(306,19,c),
(286,51,o),
(276,96,o),
(276,164,cs),
(276,182,o),
(280,215,o),
(287,255,c),
(309,250,o),
(331,246,o),
(358,246,cs),
(417,246,o),
(467,274,o),
(467,338,cs),
(467,348,o),
(467,369,o),
(462,386,c),
(436,378,o),
(398,368,o),
(372,363,c),
(350,363,o),
(329,366,o),
(308,371,c),
(319,429,o),
(332,490,o),
(340,539,c),
(381,519,o),
(418,508,o),
(459,508,cs),
(552,508,o),
(629,556,o),
(629,645,cs),
(629,666,o),
(626,693,o),
(621,721,c),
(522,693,o),
(416,672,o),
(349,670,c),
(341,702,o),
(321,726,o),
(276,726,cs),
(205,726,o),
(132,693,o),
(70,653,c),
(123,546,l),
(83,325,o),
(60,196,o),
(60,129,cs,{
name = hr00;
}),
(60,25,o),
(92,-26,o),
(182,-26,cs)
);
}
);
width = 589;
}
);
unicode = 70;
},
{
glyphname = G;
lastChange = "2023-03-01 10:29:52 +0000";
layers = (
{
anchors = (
{
name = bottom;
pos = (301,0);
},
{
name = top;
pos = (418,710);
}
);
background = {
shapes = (
{
closed = 1;
nodes = (
(594,-166,o),
(637,-152,o),
(674,-125,c),
(656,-105,o),
(647,-72,o),
(647,-34,cs),
(647,79,o),
(702,228,o),
(702,287,cs),
(702,334,o),
(687,368,o),
(630,368,cs),
(564,368,o),
(494,335,o),
(437,297,c),
(453,262,o),
(472,226,o),
(488,192,c),
(452,146,o),
(404,122,o),
(362,122,cs),
(301,122,o),
(248,173,o),
(248,285,cs),
(248,401,o),
(309,515,o),
(380,549,c),
(414,492,o),
(475,462,o),
(534,462,cs),
(607,462,o),
(673,506,o),
(673,592,cs),
(673,679,o),
(590,725,o),
(482,725,cs),
(188,725,o),
(30,489,o),
(30,307,cs),
(30,80,o),
(161,-25,o),
(333,-25,cs),
(374,-25,o),
(411,-19,o),
(445,-9,c),
(445,-104,o),
(471,-166,o),
(559,-166,cs,{
name = hr00;
})
);
}
);
};
layerId = master01;
shapes = (
{
closed = 1;
nodes = (
(594,-166,o),
(637,-152,o),
(674,-125,c),
(656,-105,o),
(647,-72,o),
(647,-34,cs),
(647,79,o),
(702,228,o),
(702,287,cs),
(702,334,o),
(687,368,o),
(630,368,cs),
(564,368,o),
(494,335,o),
(437,297,c),
(453,262,o),
(472,226,o),
(488,192,c),
(452,146,o),
(404,122,o),
(362,122,cs),
(301,122,o),
(248,173,o),
(248,285,cs),
(248,401,o),
(309,515,o),
(380,549,c),
(414,492,o),
(475,462,o),
(534,462,cs),
(607,462,o),
(673,506,o),
(673,592,cs),
(673,679,o),
(590,725,o),
(482,725,cs),
(188,725,o),
(30,489,o),
(30,307,cs),
(30,80,o),
(161,-25,o),
(333,-25,cs),
(374,-25,o),
(411,-19,o),
(445,-9,c),
(445,-104,o),
(471,-166,o),
(559,-166,cs,{
name = hr00;
})
);
}
);
width = 722;
}
);
unicode = 71;
},
{
glyphname = Gbreve;
lastChange = "2023-03-01 10:29:45 +0000";
layers = (
{
background = {
shapes = (
{
closed = 1;
nodes = (
(594,-166,o),
(637,-152,o),
(674,-125,c),
(656,-105,o),
(647,-72,o),
(647,-34,cs),
(647,79,o),
(702,228,o),
(702,287,cs),
(702,334,o),
(687,368,o),
(630,368,cs),
(564,368,o),
(494,335,o),
(437,297,c),
(453,262,o),
(472,226,o),
(488,192,c),
(452,146,o),
(404,122,o),
(362,122,cs),
(301,122,o),
(248,173,o),
(248,285,cs),
(248,401,o),
(309,515,o),
(380,549,c),
(414,492,o),
(475,462,o),
(534,462,cs),
(607,462,o),
(673,506,o),
(673,592,cs),
(673,679,o),
(590,725,o),
(482,725,cs),
(188,725,o),
(30,489,o),
(30,307,cs),
(30,80,o),
(161,-25,o),
(333,-25,cs),
(374,-25,o),
(411,-19,o),
(445,-9,c),
(445,-104,o),
(471,-166,o),
(559,-166,cs,{
name = hr00;
})
);
},
{
closed = 1;
nodes = (
(473,762,o),
(599,811,o),
(599,930,cs),
(599,945,o),
(597,961,o),
(594,978,c),
(545,927,o),
(473,896,o),
(407,896,cs),
(339,896,o),
(286,910,o),
(245,958,c),
(237,930,o),
(235,907,o),
(235,883,cs),
(235,797,o),
(291,762,o),
(371,762,cs,{
name = hr00;
})
);
}
);
};
layerId = master01;
shapes = (
{
ref = G;
},
{
pos = (179,0);
ref = brevecomb.case;
}
);
width = 722;
}
);
unicode = 286;
},
{
glyphname = Gcircumflex;
lastChange = "2023-03-01 10:29:45 +0000";
layers = (
{
background = {
shapes = (
{
closed = 1;
nodes = (
(594,-166,o),
(637,-152,o),
(674,-125,c),
(656,-105,o),
(647,-72,o),
(647,-34,cs),
(647,79,o),
(702,228,o),
(702,287,cs),
(702,334,o),
(687,368,o),
(630,368,cs),
(564,368,o),
(494,335,o),
(437,297,c),
(453,262,o),
(472,226,o),
(488,192,c),
(452,146,o),
(404,122,o),
(362,122,cs),
(301,122,o),
(248,173,o),
(248,285,cs),
(248,401,o),
(309,515,o),
(380,549,c),
(414,492,o),
(475,462,o),
(534,462,cs),
(607,462,o),
(673,506,o),
(673,592,cs),
(673,679,o),
(590,725,o),
(482,725,cs),
(188,725,o),
(30,489,o),
(30,307,cs),
(30,80,o),
(161,-25,o),
(333,-25,cs),
(374,-25,o),
(411,-19,o),
(445,-9,c),
(445,-104,o),
(471,-166,o),
(559,-166,cs,{
name = hr00;
})
);
},
{
closed = 1;
nodes = (
(300,744,o),
(338,747,o),
(379,756,c),
(379,804,o),
(404,863,o),
(439,906,c),
(465,906,l),
(462,878,o),
(458,850,o),
(458,826,cs),
(458,778,o),
(475,744,o),
(554,744,cs),
(579,744,o),
(602,746,o),
(625,752,c),
(617,766,o),
(611,785,o),
(611,808,cs),
(611,852,o),
(621,884,o),
(621,931,cs),
(621,958,o),
(566,968,o),
(504,968,cs),
(435,968,o),
(357,956,o),
(334,943,c),
(298,903,o),
(210,802,o),
(210,763,cs),
(210,752,o),
(225,744,o),
(267,744,c,{
name = hr00;
})
);
}
);
};
layerId = master01;
shapes = (
{
ref = G;
},
{
pos = (130,0);
ref = circumflexcomb.case;
}
);
width = 722;
}
);
unicode = 284;
},
{
glyphname = Gcommaaccent;
lastChange = "2023-03-01 10:29:52 +0000";
layers = (
{
background = {
shapes = (
{
closed = 1;
nodes = (
(594,-166,o),
(637,-152,o),
(674,-125,c),
(656,-105,o),
(647,-72,o),
(647,-34,cs),
(647,79,o),
(702,228,o),
(702,287,cs),
(702,334,o),
(687,368,o),
(630,368,cs),
(564,368,o),
(494,335,o),
(437,297,c),
(453,262,o),
(472,226,o),
(488,192,c),
(452,146,o),
(404,122,o),
(362,122,cs),
(301,122,o),
(248,173,o),
(248,285,cs),
(248,401,o),
(309,515,o),
(380,549,c),
(414,492,o),
(475,462,o),
(534,462,cs),
(607,462,o),
(673,506,o),
(673,592,cs),
(673,679,o),
(590,725,o),
(482,725,cs),
(188,725,o),
(30,489,o),
(30,307,cs),
(30,80,o),
(161,-25,o),
(333,-25,cs),
(374,-25,o),
(411,-19,o),
(445,-9,c),
(445,-104,o),
(471,-166,o),
(559,-166,cs,{
name = hr00;
})
);
},
{
closed = 1;
nodes = (
(334,-394,o),
(423,-287,o),
(423,-164,cs),
(423,-110,o),
(388,-60,o),
(327,-60,cs,{
name = hr01;
}),
(266,-60,o),
(214,-111,o),
(211,-168,c),
(274,-249,l),
(274,-293,o),
(238,-356,o),
(179,-384,c),
(192,-424,l)
);
}
);
};
layerId = master01;
shapes = (
{
ref = G;
},
{
pos = (151,0);
ref = commaaccentcomb;
}
);
width = 722;
}
);
unicode = 290;
},
{
glyphname = Gdotaccent;
lastChange = "2023-03-01 10:29:45 +0000";
layers = (
{
background = {
shapes = (
{
closed = 1;
nodes = (
(594,-166,o),
(637,-152,o),
(674,-125,c),
(656,-105,o),
(647,-72,o),
(647,-34,cs),
(647,79,o),
(702,228,o),
(702,287,cs),
(702,334,o),
(687,368,o),
(630,368,cs),
(564,368,o),
(494,335,o),
(437,297,c),
(453,262,o),
(472,226,o),
(488,192,c),
(452,146,o),
(404,122,o),
(362,122,cs),
(301,122,o),
(248,173,o),
(248,285,cs),
(248,401,o),
(309,515,o),
(380,549,c),
(414,492,o),
(475,462,o),
(534,462,cs),
(607,462,o),
(673,506,o),
(673,592,cs),
(673,679,o),
(590,725,o),
(482,725,cs),
(188,725,o),
(30,489,o),
(30,307,cs),
(30,80,o),
(161,-25,o),
(333,-25,cs),
(374,-25,o),
(411,-19,o),
(445,-9,c),
(445,-104,o),
(471,-166,o),
(559,-166,cs,{
name = hr00;
})
);
},
{
closed = 1;
nodes = (
(485,748,o),
(550,804,o),
(550,887,cs),
(550,944,o),
(507,983,o),
(436,983,cs),
(349,983,o),
(284,927,o),
(284,843,cs),
(284,787,o),
(327,748,o),
(398,748,cs,{
name = hr00;
})
);
}
);
};
layerId = master01;
shapes = (
{
ref = G;
},
{
pos = (215,0);
ref = dotaccentcomb.case;
}
);
width = 722;
}
);
unicode = 288;
},
{
glyphname = H;
lastChange = "2023-03-01 10:30:05 +0000";
layers = (
{
anchors = (
{
name = bottom;
pos = (412,0);
},
{
name = center;
pos = (412,355);
},
{
name = top;
pos = (462,710);
},
{
name = topleft;
pos = (20,710);
}
);
background = {
shapes = (
{
closed = 1;
nodes = (
(501,25,o),
(533,-26,o),
(623,-26,cs),
(666,-26,o),
(706,-12,o),
(747,19,c),
(727,51,o),
(717,96,o),
(717,164,cs),
(717,238,o),
(794,567,o),
(794,632,cs),
(794,682,o),
(779,726,o),
(717,726,cs),
(646,726,o),
(573,693,o),
(511,653,c),
(564,546,l),
(553,486,o),
(543,433,o),
(535,386,c),
(311,386,l),
(331,490,o),
(353,598,o),
(353,632,cs),
(353,682,o),
(338,726,o),
(276,726,cs),
(205,726,o),
(132,693,o),
(70,653,c),
(123,546,l),
(83,325,o),
(60,196,o),
(60,129,cs),
(60,25,o),
(92,-26,o),
(182,-26,cs),
(225,-26,o),
(265,-12,o),
(306,19,c),
(286,51,o),
(276,96,o),
(276,164,cs),
(276,183,o),
(281,221,o),
(289,267,c),
(515,267,l),
(506,205,o),
(501,160,o),
(501,129,cs,{
name = hr00;
})
);
}
);
};
layerId = master01;
shapes = (
{
closed = 1;
nodes = (
(225,-26,o),
(265,-12,o),
(306,19,c),
(286,51,o),
(276,96,o),
(276,164,cs),
(276,183,o),
(281,221,o),
(289,267,c),
(515,267,l),
(506,205,o),
(501,160,o),
(501,129,cs,{
name = hr00;
}),
(501,25,o),
(533,-26,o),
(623,-26,cs),
(666,-26,o),
(706,-12,o),
(747,19,c),
(727,51,o),
(717,96,o),
(717,164,cs),
(717,238,o),
(794,567,o),
(794,632,cs),
(794,682,o),
(779,726,o),
(717,726,cs),
(646,726,o),
(573,693,o),
(511,653,c),
(564,546,l),
(553,486,o),
(543,433,o),
(535,386,c),
(311,386,l),
(331,490,o),
(353,598,o),
(353,632,cs),
(353,682,o),
(338,726,o),
(276,726,cs),
(205,726,o),
(132,693,o),
(70,653,c),
(123,546,l),
(83,325,o),
(60,196,o),
(60,129,cs),
(60,25,o),
(92,-26,o),
(182,-26,cs)
);
}
);
width = 824;
}
);
unicode = 72;
},
{
glyphname = Hbar;
lastChange = "2023-03-01 10:30:01 +0000";
layers = (
{
background = {
shapes = (
{
closed = 1;
nodes = (
(225,-26,o),
(265,-12,o),
(306,19,c),
(286,51,o),
(276,96,o),
(276,164,cs),
(276,183,o),
(281,221,o),
(289,267,c),
(515,267,l),
(506,205,o),
(501,160,o),
(501,129,cs,{
name = hr00;
}),
(501,25,o),
(533,-26,o),
(623,-26,cs),
(666,-26,o),
(706,-12,o),
(747,19,c),
(727,51,o),
(717,96,o),
(717,164,cs),
(717,238,o),
(794,567,o),
(794,632,cs),
(794,682,o),
(779,726,o),
(717,726,cs),
(646,726,o),
(573,693,o),
(511,653,c),
(564,546,l),
(553,486,o),
(543,433,o),
(535,386,c),
(311,386,l),
(331,490,o),
(353,598,o),
(353,632,cs),
(353,682,o),
(338,726,o),
(276,726,cs),
(205,726,o),
(132,693,o),
(70,653,c),
(123,546,l),
(83,325,o),
(60,196,o),
(60,129,cs),
(60,25,o),
(92,-26,o),
(182,-26,cs)
);
},
{
closed = 1;
nodes = (
(284,426,o),
(444,486,o),
(631,486,c),
(691,486,o),
(756,481,o),
(815,467,c),
(855,491,o),
(876,518,o),
(876,540,cs),
(876,581,o),
(811,597,o),
(727,597,cs),
(561,597,o),
(419,542,o),
(246,542,cs,{
name = hr01;
}),
(189,542,o),
(124,545,o),
(66,555,c),
(27,530,o),
(3,499,o),
(3,476,cs),
(3,437,o),
(43,426,o),
(100,426,cs)
);
}
);
};
layerId = master01;
shapes = (
{
closed = 1;
nodes = (
(284,426,o),
(444,486,o),
(631,486,c),
(691,486,o),
(756,481,o),
(815,467,c),
(855,491,o),
(876,518,o),
(876,540,cs),
(876,581,o),
(811,597,o),
(727,597,cs),
(561,597,o),
(419,542,o),
(246,542,cs,{
name = hr01;
}),
(189,542,o),
(124,545,o),
(66,555,c),
(27,530,o),
(3,499,o),
(3,476,cs),
(3,437,o),
(43,426,o),
(100,426,cs)
);
},
{
alignment = -1;
ref = H;
}
);
width = 824;
}
);
unicode = 294;
},
{
glyphname = Hcircumflex;
lastChange = "2023-03-01 10:30:05 +0000";
layers = (
{
background = {
shapes = (
{
closed = 1;
nodes = (
(225,-26,o),
(265,-12,o),
(306,19,c),
(286,51,o),
(276,96,o),
(276,164,cs),
(276,183,o),
(281,221,o),
(289,267,c),
(515,267,l),
(506,205,o),
(501,160,o),
(501,129,cs,{
name = hr00;
}),
(501,25,o),
(533,-26,o),
(623,-26,cs),
(666,-26,o),
(706,-12,o),
(747,19,c),
(727,51,o),
(717,96,o),
(717,164,cs),
(717,238,o),
(794,567,o),
(794,632,cs),
(794,682,o),
(779,726,o),
(717,726,cs),
(646,726,o),
(573,693,o),
(511,653,c),
(564,546,l),
(553,486,o),
(543,433,o),
(535,386,c),
(311,386,l),
(331,490,o),
(353,598,o),
(353,632,cs),
(353,682,o),
(338,726,o),
(276,726,cs),
(205,726,o),
(132,693,o),
(70,653,c),
(123,546,l),
(83,325,o),
(60,196,o),
(60,129,cs),
(60,25,o),
(92,-26,o),
(182,-26,cs)
);
},
{
closed = 1;
nodes = (
(344,744,o),
(382,747,o),
(423,756,c),
(423,804,o),
(448,863,o),
(483,906,c),
(509,906,l),
(506,878,o),
(502,850,o),
(502,826,cs),
(502,778,o),
(519,744,o),
(598,744,cs),
(623,744,o),
(646,746,o),
(669,752,c),
(661,766,o),
(655,785,o),
(655,808,cs),
(655,852,o),
(665,884,o),
(665,931,cs),
(665,958,o),
(610,968,o),
(548,968,cs),
(479,968,o),
(401,956,o),
(378,943,c),
(342,903,o),
(254,802,o),
(254,763,cs),
(254,752,o),
(269,744,o),
(311,744,c,{
name = hr00;
})
);
}
);
};
layerId = master01;
shapes = (
{
ref = H;
},
{
pos = (174,0);
ref = circumflexcomb.case;
}
);
width = 824;
}
);
unicode = 292;
},
{
glyphname = I;
lastChange = "2023-03-01 10:30:29 +0000";
layers = (
{
anchors = (
{
name = bottom;
pos = (194,0);
},
{
name = ogonek;
pos = (358,22);
},
{
name = top;
pos = (244,710);
},
{
name = topleft;
pos = (20,710);
}
);
background = {
shapes = (
{
closed = 1;
nodes = (
(65,25,o),
(97,-26,o),
(187,-26,cs),
(230,-26,o),
(270,-12,o),
(311,19,c),
(291,51,o),
(281,96,o),
(281,164,cs),
(281,238,o),
(358,567,o),
(358,632,cs),
(358,682,o),
(343,726,o),
(281,726,cs),
(210,726,o),
(137,693,o),
(75,653,c),
(128,546,l),
(88,325,o),
(65,196,o),
(65,129,cs,{
name = hr00;
})
);
}
);
};
layerId = master01;
shapes = (
{
closed = 1;
nodes = (
(230,-26,o),
(270,-12,o),
(311,19,c),
(291,51,o),
(281,96,o),
(281,164,cs),
(281,238,o),
(358,567,o),
(358,632,cs),
(358,682,o),
(343,726,o),
(281,726,cs),
(210,726,o),
(137,693,o),
(75,653,c),
(128,546,l),
(88,325,o),
(65,196,o),
(65,129,cs,{
name = hr00;
}),
(65,25,o),
(97,-26,o),
(187,-26,cs)
);
}
);
width = 388;
}
);
unicode = 73;
},
{
glyphname = IJ;
lastChange = "2023-03-01 10:27:25 +0000";
layers = (
{
background = {
shapes = (
{
closed = 1;
nodes = (
(230,-26,o),
(270,-12,o),
(311,19,c),
(291,51,o),
(281,96,o),
(281,164,cs),
(281,238,o),
(358,567,o),
(358,632,cs),
(358,682,o),
(343,726,o),
(281,726,cs),
(210,726,o),
(137,693,o),
(75,653,c),
(128,546,l),
(88,325,o),
(65,196,o),
(65,129,cs,{
name = hr00;
}),
(65,25,o),
(97,-26,o),
(187,-26,cs)
);
},
{
closed = 1;
nodes = (
(699,-45,o),
(847,44,o),
(873,260,cs),
(908,547,l),
(926,567,o),
(941,594,o),
(941,629,cs),
(941,679,o),
(909,724,o),
(848,724,cs),
(807,724,o),
(770,704,o),
(743,657,c),
(684,657,o),
(531,678,o),
(430,721,c),
(424,688,o),
(420,658,o),
(420,636,cs),
(420,517,o),
(513,489,o),
(690,489,c,{
name = hr00;
}),
(656,365,o),
(637,233,o),
(637,228,cs),
(637,193,o),
(646,158,o),
(664,108,c),
(639,88,l),
(611,175,o),
(554,212,o),
(499,212,cs),
(441,212,o),
(388,167,o),
(388,95,cs),
(388,14,o),
(468,-45,o),
(581,-45,cs)
);
}
);
};
layerId = master01;
shapes = (
{
ref = I;
},
{
pos = (388,0);
ref = J;
}
);
width = 941;
}
);
unicode = 306;
},
{
glyphname = Iacute;
lastChange = "2023-03-01 10:30:17 +0000";
layers = (
{
background = {
shapes = (
{
closed = 1;
nodes = (
(230,-26,o),
(270,-12,o),
(311,19,c),
(291,51,o),
(281,96,o),
(281,164,cs),
(281,238,o),
(358,567,o),
(358,632,cs),
(358,682,o),
(343,726,o),
(281,726,cs),
(210,726,o),
(137,693,o),
(75,653,c),
(128,546,l),
(88,325,o),
(65,196,o),
(65,129,cs,{
name = hr00;
}),
(65,25,o),
(97,-26,o),
(187,-26,cs)
);
},
{
closed = 1;
nodes = (
(217,753,o),
(287,820,o),
(378,820,cs),
(385,820,o),
(394,819,o),
(401,818,c),
(408,842,o),
(411,868,o),
(411,891,cs),
(411,963,o),
(385,986,o),
(355,986,cs),
(267,986,o),
(180,854,o),
(75,829,c),
(79,773,o),
(104,753,o),
(131,753,c,{
name = hr00;
})
);
}
);
};
layerId = master01;
shapes = (
{
ref = I;
},
{
pos = (6,0);
ref = acutecomb.case;
}
);
width = 388;
}
);
unicode = 205;
},
{
glyphname = Ibreve;
lastChange = "2023-03-01 10:30:17 +0000";
layers = (
{
background = {
shapes = (
{
closed = 1;
nodes = (
(230,-26,o),
(270,-12,o),
(311,19,c),
(291,51,o),
(281,96,o),
(281,164,cs),
(281,238,o),
(358,567,o),
(358,632,cs),
(358,682,o),
(343,726,o),
(281,726,cs),
(210,726,o),
(137,693,o),
(75,653,c),
(128,546,l),
(88,325,o),
(65,196,o),
(65,129,cs,{
name = hr00;
}),
(65,25,o),
(97,-26,o),
(187,-26,cs)
);
},
{
closed = 1;
nodes = (
(327,762,o),
(453,811,o),
(453,930,cs),
(453,945,o),
(451,961,o),
(448,978,c),
(399,927,o),
(327,896,o),
(261,896,cs),
(193,896,o),
(140,910,o),
(99,958,c),
(91,930,o),
(89,907,o),
(89,883,cs),
(89,797,o),
(145,762,o),
(225,762,cs,{
name = hr00;
})
);
}
);
};
layerId = master01;
shapes = (
{
ref = I;
},
{
pos = (5,0);
ref = brevecomb.case;
}
);
width = 388;
}
);
unicode = 300;
},
{
glyphname = Icircumflex;
lastChange = "2023-03-01 10:30:17 +0000";
layers = (
{
background = {
shapes = (
{
closed = 1;
nodes = (
(230,-26,o),
(270,-12,o),
(311,19,c),
(291,51,o),
(281,96,o),
(281,164,cs),
(281,238,o),
(358,567,o),
(358,632,cs),
(358,682,o),
(343,726,o),
(281,726,cs),
(210,726,o),
(137,693,o),
(75,653,c),
(128,546,l),
(88,325,o),
(65,196,o),
(65,129,cs,{
name = hr00;
}),
(65,25,o),
(97,-26,o),
(187,-26,cs)
);
},
{
closed = 1;
nodes = (
(138,759,o),
(176,762,o),
(217,771,c),
(217,819,o),
(242,878,o),
(277,921,c),
(303,921,l),
(300,893,o),
(296,865,o),
(296,841,cs),
(296,793,o),
(313,759,o),
(392,759,cs),
(417,759,o),
(440,761,o),
(463,767,c),
(455,781,o),
(449,800,o),
(449,823,cs),
(449,867,o),
(459,899,o),
(459,946,cs),
(459,973,o),
(404,983,o),
(342,983,cs),
(273,983,o),
(195,971,o),
(172,958,c),
(136,918,o),
(48,817,o),
(48,778,cs),
(48,767,o),
(63,759,o),
(105,759,c,{
name = hr00;
})
);
}
);
};
layerId = master01;
shapes = (
{
ref = I;
},
{
pos = (-44,0);
ref = circumflexcomb.case;
}
);
width = 388;
}
);
unicode = 206;
},
{
glyphname = Idieresis;
lastChange = "2023-03-01 10:30:17 +0000";
layers = (
{
background = {
shapes = (
{
closed = 1;
nodes = (
(230,-26,o),
(270,-12,o),
(311,19,c),
(291,51,o),
(281,96,o),
(281,164,cs),
(281,238,o),
(358,567,o),
(358,632,cs),
(358,682,o),
(343,726,o),
(281,726,cs),
(210,726,o),
(137,693,o),
(75,653,c),
(128,546,l),
(88,325,o),
(65,196,o),
(65,129,cs,{
name = hr00;
}),
(65,25,o),
(97,-26,o),
(187,-26,cs)
);
},
{
closed = 1;
nodes = (
(475,771,o),
(534,813,o),
(534,878,cs),
(534,925,o),
(494,954,o),
(440,954,cs),
(387,954,o),
(315,920,o),
(315,846,cs),
(315,799,o),
(355,771,o),
(409,771,cs,{
name = hr00;
})
);
},
{
closed = 1;
nodes = (
(174,771,o),
(233,813,o),
(233,878,cs),
(233,925,o),
(193,954,o),
(139,954,cs),
(86,954,o),
(14,920,o),
(14,846,cs),
(14,799,o),
(54,771,o),
(108,771,cs)
);
}
);
};
layerId = master01;
shapes = (
{
ref = I;
},
{
pos = (-102,0);
ref = dieresiscomb.case;
}
);
width = 388;
}
);
unicode = 207;
},
{
glyphname = Idotaccent;
lastChange = "2023-03-01 10:30:17 +0000";
layers = (
{
background = {
shapes = (
{
closed = 1;
nodes = (
(230,-26,o),
(270,-12,o),
(311,19,c),
(291,51,o),
(281,96,o),
(281,164,cs),
(281,238,o),
(358,567,o),
(358,632,cs),
(358,682,o),
(343,726,o),
(281,726,cs),
(210,726,o),
(137,693,o),
(75,653,c),
(128,546,l),
(88,325,o),
(65,196,o),
(65,129,cs,{
name = hr00;
}),
(65,25,o),
(97,-26,o),
(187,-26,cs)
);
},
{
closed = 1;
nodes = (
(332,748,o),
(397,804,o),
(397,887,cs),
(397,944,o),
(354,983,o),
(283,983,cs),
(196,983,o),
(131,927,o),
(131,843,cs),
(131,787,o),
(174,748,o),
(245,748,cs,{
name = hr00;
})
);
}
);
};
layerId = master01;
shapes = (
{
ref = I;
},
{
pos = (41,0);
ref = dotaccentcomb.case;
}
);
width = 388;
}
);
unicode = 304;
},
{
glyphname = Igrave;
lastChange = "2023-03-01 10:30:17 +0000";
layers = (
{
background = {
shapes = (
{
closed = 1;
nodes = (
(230,-26,o),
(270,-12,o),
(311,19,c),
(291,51,o),
(281,96,o),
(281,164,cs),
(281,238,o),
(358,567,o),
(358,632,cs),
(358,682,o),
(343,726,o),
(281,726,cs),
(210,726,o),
(137,693,o),
(75,653,c),
(128,546,l),
(88,325,o),
(65,196,o),
(65,129,cs,{
name = hr00;
}),
(65,25,o),
(97,-26,o),
(187,-26,cs)
);
},
{
closed = 1;
nodes = (
(394,753,o),
(419,773,o),
(423,829,c),
(318,854,o),
(231,986,o),
(143,986,cs),
(113,986,o),
(87,963,o),
(87,891,cs),
(87,868,o),
(90,842,o),
(97,818,c),
(104,819,o),
(113,820,o),
(120,820,cs),
(211,820,o),
(281,753,o),
(367,753,c,{
name = hr00;
})
);
}
);
};
layerId = master01;
shapes = (
{
ref = I;
},
{
pos = (56,0);
ref = gravecomb.case;
}
);
width = 388;
}
);
unicode = 204;
},
{
glyphname = Imacron;
lastChange = "2023-03-01 10:30:17 +0000";
layers = (
{
background = {
shapes = (
{
closed = 1;
nodes = (
(230,-26,o),
(270,-12,o),
(311,19,c),
(291,51,o),
(281,96,o),
(281,164,cs),
(281,238,o),
(358,567,o),
(358,632,cs),
(358,682,o),
(343,726,o),
(281,726,cs),
(210,726,o),
(137,693,o),
(75,653,c),
(128,546,l),
(88,325,o),
(65,196,o),
(65,129,cs,{
name = hr00;
}),
(65,25,o),
(97,-26,o),
(187,-26,cs)
);
},
{
closed = 1;
nodes = (
(157,785,o),
(253,809,o),
(332,809,cs),
(352,809,o),
(392,805,o),
(408,795,c),
(419,819,o),
(422,844,o),
(422,867,cs),
(422,919,o),
(396,938,o),
(351,938,cs),
(281,938,o),
(214,932,o),
(150,932,cs),
(135,932,o),
(96,935,o),
(76,944,c,{
name = hr01;
}),
(59,909,o),
(47,879,o),
(47,838,cs),
(47,797,o),
(63,785,o),
(82,785,c)
);
}
);
};
layerId = master01;
shapes = (
{
ref = I;
},
{
pos = (-34,0);
ref = macroncomb.case;
}
);
width = 388;
}
);
unicode = 298;
},
{
glyphname = Iogonek;
lastChange = "2023-03-01 10:30:29 +0000";
layers = (
{
background = {
shapes = (
{
closed = 1;
nodes = (
(230,-26,o),
(270,-12,o),
(311,19,c),
(291,51,o),
(281,96,o),
(281,164,cs),
(281,238,o),
(358,567,o),
(358,632,cs),
(358,682,o),
(343,726,o),
(281,726,cs),
(210,726,o),
(137,693,o),
(75,653,c),
(128,546,l),
(88,325,o),
(65,196,o),
(65,129,cs,{
name = hr00;
}),
(65,25,o),
(97,-26,o),
(187,-26,cs)
);
},
{
closed = 1;
nodes = (
(282,-285,o),
(358,-215,o),
(358,-153,cs),
(358,-117,o),
(334,-85,o),
(277,-70,c),
(280,-78,o),
(281,-87,o),
(281,-95,cs),
(281,-138,o),
(249,-186,o),
(201,-186,cs),
(172,-186,o),
(148,-167,o),
(148,-134,cs),
(148,-76,o),
(186,-26,o),
(280,6,c),
(280,22,l),
(228,22,l,{
name = hr00;
}),
(113,2,o),
(21,-82,o),
(21,-168,cs),
(21,-231,o),
(64,-285,o),
(167,-285,cs)
);
}
);
};
layerId = master01;
shapes = (
{
ref = I;
},
{
pos = (-150,0);
ref = ogonekcomb;
}
);
width = 388;
}
);
unicode = 302;
},
{
glyphname = Itilde;
lastChange = "2023-03-01 10:30:17 +0000";
layers = (
{
background = {
shapes = (
{
closed = 1;
nodes = (
(230,-26,o),
(270,-12,o),
(311,19,c),
(291,51,o),
(281,96,o),
(281,164,cs),
(281,238,o),
(358,567,o),
(358,632,cs),
(358,682,o),
(343,726,o),
(281,726,cs),
(210,726,o),
(137,693,o),
(75,653,c),
(128,546,l),
(88,325,o),
(65,196,o),
(65,129,cs,{
name = hr00;
}),
(65,25,o),
(97,-26,o),
(187,-26,cs)
);
},
{
closed = 1;
nodes = (
(182,766,o),
(253,825,o),
(338,825,cs),
(365,825,o),
(393,819,o),
(421,805,c),
(438,842,o),
(448,881,o),
(448,910,cs,{
name = hr02;
}),
(448,958,o),
(421,973,o),
(384,973,cs),
(306,973,o),
(235,914,o),
(150,914,cs),
(123,914,o),
(95,920,o),
(67,934,c),
(50,897,o),
(40,858,o),
(40,829,cs,{
name = hr01;
}),
(40,781,o),
(67,766,o),
(104,766,cs)
);
}
);
};
layerId = master01;
shapes = (
{
ref = I;
},
{
pos = (-30,0);
ref = tildecomb.case;
}
);
width = 388;
}
);
unicode = 296;
},
{
glyphname = J;
lastChange = "2023-03-01 10:30:35 +0000";
layers = (
{
anchors = (
{
name = bottom;
pos = (277,0);
},
{
name = top;
pos = (317,710);
}
);
background = {
shapes = (
{
closed = 1;
nodes = (
(268,365,o),
(249,233,o),
(249,228,cs),
(249,193,o),
(258,158,o),
(276,108,c),
(251,88,l),
(223,175,o),
(166,212,o),
(111,212,cs),
(53,212,o),
(0,167,o),
(0,95,cs),
(0,14,o),
(80,-45,o),
(193,-45,cs),
(311,-45,o),
(459,44,o),
(485,260,cs),
(520,547,l),
(538,567,o),
(553,594,o),
(553,629,cs),
(553,679,o),
(521,724,o),
(460,724,cs),
(419,724,o),
(382,704,o),
(355,657,c),
(296,657,o),
(143,678,o),
(42,721,c),
(36,688,o),
(32,658,o),
(32,636,cs),
(32,517,o),
(125,489,o),
(302,489,c,{
name = hr00;
})
);
}
);
};
layerId = master01;
shapes = (
{
closed = 1;
nodes = (
(311,-45,o),
(459,44,o),
(485,260,cs),
(520,547,l),
(538,567,o),
(553,594,o),
(553,629,cs),
(553,679,o),
(521,724,o),
(460,724,cs),
(419,724,o),
(382,704,o),
(355,657,c),
(296,657,o),
(143,678,o),
(42,721,c),
(36,688,o),
(32,658,o),
(32,636,cs),
(32,517,o),
(125,489,o),
(302,489,c,{
name = hr00;
}),
(268,365,o),
(249,233,o),
(249,228,cs),
(249,193,o),
(258,158,o),
(276,108,c),
(251,88,l),
(223,175,o),
(166,212,o),
(111,212,cs),
(53,212,o),
(0,167,o),
(0,95,cs),
(0,14,o),
(80,-45,o),
(193,-45,cs)
);
}
);
width = 553;
}
);
unicode = 74;
},
{
glyphname = Jcircumflex;
lastChange = "2023-03-01 10:30:35 +0000";
layers = (
{
background = {
shapes = (
{
closed = 1;
nodes = (
(311,-45,o),
(459,44,o),
(485,260,cs),
(520,547,l),
(538,567,o),
(553,594,o),
(553,629,cs),
(553,679,o),
(521,724,o),
(460,724,cs),
(419,724,o),
(382,704,o),
(355,657,c),
(296,657,o),
(143,678,o),
(42,721,c),
(36,688,o),
(32,658,o),
(32,636,cs),
(32,517,o),
(125,489,o),
(302,489,c,{
name = hr00;
}),
(268,365,o),
(249,233,o),
(249,228,cs),
(249,193,o),
(258,158,o),
(276,108,c),
(251,88,l),
(223,175,o),
(166,212,o),
(111,212,cs),
(53,212,o),
(0,167,o),
(0,95,cs),
(0,14,o),
(80,-45,o),
(193,-45,cs)
);
},
{
closed = 1;
nodes = (
(199,744,o),
(237,747,o),
(278,756,c),
(278,804,o),
(303,863,o),
(338,906,c),
(364,906,l),
(361,878,o),
(357,850,o),
(357,826,cs),
(357,778,o),
(374,744,o),
(453,744,cs),
(478,744,o),
(501,746,o),
(524,752,c),
(516,766,o),
(510,785,o),
(510,808,cs),
(510,852,o),
(520,884,o),
(520,931,cs),
(520,958,o),
(465,968,o),
(403,968,cs),
(334,968,o),
(256,956,o),
(233,943,c),
(197,903,o),
(109,802,o),
(109,763,cs),
(109,752,o),
(124,744,o),
(166,744,c,{
name = hr00;
})
);
}
);
};
layerId = master01;
shapes = (
{
ref = J;
},
{
pos = (29,0);
ref = circumflexcomb.case;
}
);
width = 553;
}
);
unicode = 308;
},
{
glyphname = K;
lastChange = "2023-03-01 10:27:04 +0000";
layers = (
{
anchors = (
{
name = bottom;
pos = (360,0);
},
{
name = top;
pos = (360,710);
}
);
background = {
shapes = (
{
closed = 1;
nodes = (
(60,25,o),
(92,-26,o),
(182,-26,cs),
(225,-26,o),
(265,-12,o),
(306,19,c),
(286,51,o),
(276,96,o),
(276,164,cs),
(276,184,o),
(282,222,o),
(290,269,c),
(352,302,l),
(410,139,ls),
(456,9,o),
(506,-25,o),
(593,-25,cs,{
name = hr01;
}),
(638,-25,o),
(707,1,o),
(736,30,c),
(652,84,o),
(580,253,o),
(535,398,c),
(679,481,o),
(734,560,o),
(734,625,cs),
(734,685,o),
(707,725,o),
(636,725,cs),
(592,725,o),
(545,710,o),
(496,680,c),
(501,667,o),
(504,652,o),
(504,633,cs),
(504,563,o),
(438,492,o),
(358,425,cs),
(311,386,l),
(331,490,o),
(353,598,o),
(353,632,cs),
(353,682,o),
(338,726,o),
(276,726,cs,{
name = hr02;
}),
(205,726,o),
(132,693,o),
(70,653,c),
(123,546,l),
(83,325,o),
(60,196,o),
(60,129,cs)
);
}
);
};
layerId = master01;
shapes = (
{
closed = 1;
nodes = (
(225,-26,o),
(265,-12,o),
(306,19,c),
(286,51,o),
(276,96,o),
(276,164,cs),
(276,184,o),
(282,222,o),
(290,269,c),
(352,302,l),
(410,139,ls),
(456,9,o),
(506,-25,o),
(593,-25,cs,{
name = hr01;
}),
(638,-25,o),
(707,1,o),
(736,30,c),
(652,84,o),
(580,253,o),
(535,398,c),
(679,481,o),
(734,560,o),
(734,625,cs),
(734,685,o),
(707,725,o),
(636,725,cs),
(592,725,o),
(545,710,o),
(496,680,c),
(501,667,o),
(504,652,o),
(504,633,cs),
(504,563,o),
(438,492,o),
(358,425,cs),
(311,386,l),
(331,490,o),
(353,598,o),
(353,632,cs),
(353,682,o),
(338,726,o),
(276,726,cs,{
name = hr02;
}),
(205,726,o),
(132,693,o),
(70,653,c),
(123,546,l),
(83,325,o),
(60,196,o),
(60,129,cs),
(60,25,o),
(92,-26,o),
(182,-26,cs)
);
}
);
width = 720;
}
);
unicode = 75;
},
{
glyphname = Kcommaaccent;
lastChange = "2023-03-01 10:27:25 +0000";
layers = (
{
background = {
shapes = (
{
closed = 1;
nodes = (
(225,-26,o),
(265,-12,o),
(306,19,c),
(286,51,o),
(276,96,o),
(276,164,cs),
(276,184,o),
(282,222,o),
(290,269,c),
(352,302,l),
(410,139,ls),
(456,9,o),
(506,-25,o),
(593,-25,cs,{
name = hr01;
}),
(638,-25,o),
(707,1,o),
(736,30,c),
(652,84,o),
(580,253,o),
(535,398,c),
(679,481,o),
(734,560,o),
(734,625,cs),
(734,685,o),
(707,725,o),
(636,725,cs),
(592,725,o),
(545,710,o),
(496,680,c),
(501,667,o),
(504,652,o),
(504,633,cs),
(504,563,o),
(438,492,o),
(358,425,cs),
(311,386,l),
(331,490,o),
(353,598,o),
(353,632,cs),
(353,682,o),
(338,726,o),
(276,726,cs,{
name = hr02;
}),
(205,726,o),
(132,693,o),
(70,653,c),
(123,546,l),
(83,325,o),
(60,196,o),
(60,129,cs),
(60,25,o),
(92,-26,o),
(182,-26,cs)
);
},
{
closed = 1;
nodes = (
(393,-394,o),
(482,-287,o),
(482,-164,cs),
(482,-110,o),
(447,-60,o),
(386,-60,cs,{
name = hr01;
}),
(325,-60,o),
(273,-111,o),
(270,-168,c),
(333,-249,l),
(333,-293,o),
(297,-356,o),
(238,-384,c),
(251,-424,l)
);
}
);
};
layerId = master01;
shapes = (
{
ref = K;
},
{
pos = (210,0);
ref = commaaccentcomb;
}
);
width = 720;
}
);
unicode = 310;
},
{
glyphname = L;
lastChange = "2023-03-01 10:31:19 +0000";
layers = (
{
anchors = (
{
name = bottom;
pos = (275,0);
},
{
name = center;
pos = (275,355);
},
{
name = top;
pos = (244,710);
},
{
name = topright;
pos = (413,941);
}
);
background = {
shapes = (
{
closed = 1;
nodes = (
(60,25,o),
(92,-26,o),
(182,-26,cs),
(212,-26,o),
(242,-19,o),
(271,-3,c),
(317,-13,o),
(356,-25,o),
(413,-25,cs,{
name = hr01;
}),
(501,-25,o),
(543,56,o),
(543,126,cs),
(543,145,o),
(542,160,o),
(537,175,c),
(485,156,o),
(433,143,o),
(384,136,c),
(276,136,l),
(276,238,o),
(353,567,o),
(353,632,cs),
(353,682,o),
(338,726,o),
(276,726,cs),
(205,726,o),
(132,693,o),
(70,653,c),
(123,546,l),
(83,325,o),
(60,196,o),
(60,129,cs)
);
}
);
};
layerId = master01;
shapes = (
{
closed = 1;
nodes = (
(212,-26,o),
(242,-19,o),
(271,-3,c),
(317,-13,o),
(356,-25,o),
(413,-25,cs,{
name = hr01;
}),
(501,-25,o),
(543,56,o),
(543,126,cs),
(543,145,o),
(542,160,o),
(537,175,c),
(485,156,o),
(433,143,o),
(384,136,c),
(276,136,l),
(276,238,o),
(353,567,o),
(353,632,cs),
(353,682,o),
(338,726,o),
(276,726,cs),
(205,726,o),
(132,693,o),
(70,653,c),
(123,546,l),
(83,325,o),
(60,196,o),
(60,129,cs),
(60,25,o),
(92,-26,o),
(182,-26,cs)
);
}
);
width = 549;
}
);
unicode = 76;
},
{
glyphname = Lacute;
lastChange = "2023-03-01 10:31:09 +0000";
layers = (
{
background = {
shapes = (
{
closed = 1;
nodes = (
(212,-26,o),
(242,-19,o),
(271,-3,c),
(317,-13,o),
(356,-25,o),
(413,-25,cs,{
name = hr01;
}),
(501,-25,o),
(543,56,o),
(543,126,cs),
(543,145,o),
(542,160,o),
(537,175,c),
(485,156,o),
(433,143,o),
(384,136,c),
(276,136,l),
(276,238,o),
(353,567,o),
(353,632,cs),
(353,682,o),
(338,726,o),
(276,726,cs),
(205,726,o),
(132,693,o),
(70,653,c),
(123,546,l),
(83,325,o),
(60,196,o),
(60,129,cs),
(60,25,o),
(92,-26,o),
(182,-26,cs)
);
},
{
closed = 1;
nodes = (
(217,753,o),
(287,820,o),
(378,820,cs),
(385,820,o),
(394,819,o),
(401,818,c),
(408,842,o),
(411,868,o),
(411,891,cs),
(411,963,o),
(385,986,o),
(355,986,cs),
(267,986,o),
(180,854,o),
(75,829,c),
(79,773,o),
(104,753,o),
(131,753,cs,{
name = hr00;
})
);
}
);
};
layerId = master01;
shapes = (
{
ref = L;
},
{
pos = (6,0);
ref = acutecomb.case;
}
);
width = 549;
}
);
unicode = 313;
},
{
glyphname = Lcaron;
lastChange = "2023-03-01 10:31:20 +0000";
layers = (
{
background = {
shapes = (
{
closed = 1;
nodes = (
(212,-26,o),
(242,-19,o),
(271,-3,c),
(317,-13,o),
(356,-25,o),
(413,-25,cs,{
name = hr01;
}),
(501,-25,o),
(543,56,o),
(543,126,cs),
(543,145,o),
(542,160,o),
(537,175,c),
(485,156,o),
(433,143,o),
(384,136,c),
(276,136,l),
(276,238,o),
(353,567,o),
(353,632,cs),
(353,682,o),
(338,726,o),
(276,726,cs),
(205,726,o),
(132,693,o),
(70,653,c),
(123,546,l),
(83,325,o),
(60,196,o),
(60,129,cs),
(60,25,o),
(92,-26,o),
(182,-26,cs)
);
},
{
closed = 1;
nodes = (
(656,618,o),
(715,629,o),
(748,645,c,{
name = hr00;
}),
(782,683,o),
(856,757,o),
(856,803,cs),
(856,826,o),
(836,842,o),
(779,842,cs),
(741,842,o),
(709,834,o),
(683,824,c),
(684,812,o),
(685,800,o),
(685,789,cs),
(685,747,o),
(666,703,o),
(644,680,c),
(614,680,l),
(619,711,o),
(625,744,o),
(625,767,cs),
(625,824,o),
(592,842,o),
(544,842,cs),
(511,842,o),
(475,833,o),
(450,823,c),
(467,811,o),
(481,792,o),
(481,758,cs),
(481,675,ls),
(481,634,o),
(535,618,o),
(601,618,cs)
);
}
);
};
layerId = master01;
shapes = (
{
ref = L;
},
{
pos = (405,-78);
ref = caroncomb.alt;
}
);
width = 549;
}
);
unicode = 317;
},
{
glyphname = Lcommaaccent;
lastChange = "2023-03-01 10:27:25 +0000";
layers = (
{
background = {
shapes = (
{
closed = 1;
nodes = (
(212,-26,o),
(242,-19,o),
(271,-3,c),
(317,-13,o),
(356,-25,o),
(413,-25,cs,{
name = hr01;
}),
(501,-25,o),
(543,56,o),
(543,126,cs),
(543,145,o),
(542,160,o),
(537,175,c),
(485,156,o),
(433,143,o),
(384,136,c),
(276,136,l),
(276,238,o),
(353,567,o),
(353,632,cs),
(353,682,o),
(338,726,o),
(276,726,cs),
(205,726,o),
(132,693,o),
(70,653,c),
(123,546,l),
(83,325,o),
(60,196,o),
(60,129,cs),
(60,25,o),
(92,-26,o),
(182,-26,cs)
);
},
{
closed = 1;
nodes = (
(307,-394,o),
(396,-287,o),
(396,-164,cs),
(396,-110,o),
(361,-60,o),
(300,-60,cs,{
name = hr01;
}),
(239,-60,o),
(187,-111,o),
(184,-168,c),
(247,-249,l),
(247,-293,o),
(211,-356,o),
(152,-384,c),
(165,-424,l)
);
}
);
};
layerId = master01;
shapes = (
{
ref = L;
},
{
pos = (125,0);
ref = commaaccentcomb;
}
);
width = 549;
}
);
unicode = 315;
},
{
glyphname = Ldot;
lastChange = "2023-03-01 10:31:27 +0000";
layers = (
{
background = {
shapes = (
{
closed = 1;
nodes = (
(212,-26,o),
(242,-19,o),
(271,-3,c),
(317,-13,o),
(356,-25,o),
(413,-25,cs,{
name = hr01;
}),
(501,-25,o),
(543,56,o),
(543,126,cs),
(543,145,o),
(542,160,o),
(537,175,c),
(485,156,o),
(433,143,o),
(384,136,c),
(276,136,l),
(276,238,o),
(353,567,o),
(353,632,cs),
(353,682,o),
(338,726,o),
(276,726,cs),
(205,726,o),
(132,693,o),
(70,653,c),
(123,546,l),
(83,325,o),
(60,196,o),
(60,129,cs),
(60,25,o),
(92,-26,o),
(182,-26,cs)
);
},
{
closed = 1;
nodes = (
(562,280,o),
(618,340,o),
(618,407,cs),
(618,466,o),
(572,512,o),
(511,512,cs),
(441,512,o),
(385,452,o),
(385,385,c,{
name = hr00;
}),
(385,326,o),
(431,280,o),
(492,280,cs)
);
}
);
};
layerId = master01;
shapes = (
{
ref = L;
},
{
pos = (335,100);
ref = periodcentered;
}
);
width = 549;
}
);
unicode = 319;
},
{
glyphname = Lslash;
lastChange = "2023-03-01 10:31:37 +0000";
layers = (
{
background = {
shapes = (
{
closed = 1;
nodes = (
(124,272,o),
(241,342,o),
(373,342,cs,{
name = hr01;
}),
(395,342,o),
(417,340,o),
(437,332,c),
(464,363,o),
(478,400,o),
(478,427,cs),
(478,477,o),
(441,491,o),
(397,491,cs),
(316,491,o),
(199,421,o),
(67,421,cs,{
name = hr02;
}),
(45,421,o),
(23,423,o),
(3,431,c),
(-24,400,o),
(-38,363,o),
(-38,336,cs),
(-38,286,o),
(-1,272,o),
(43,272,c)
);
},
{
closed = 1;
nodes = (
(212,-26,o),
(242,-19,o),
(271,-3,c),
(317,-13,o),
(356,-25,o),
(413,-25,cs,{
name = hr01;
}),
(501,-25,o),
(543,56,o),
(543,126,cs),
(543,145,o),
(542,160,o),
(537,175,c),
(485,156,o),
(433,143,o),
(384,136,c),
(276,136,l),
(276,238,o),
(353,567,o),
(353,632,cs),
(353,682,o),
(338,726,o),
(276,726,cs),
(205,726,o),
(132,693,o),
(70,653,c),
(123,546,l),
(83,325,o),
(60,196,o),
(60,129,cs),
(60,25,o),
(92,-26,o),
(182,-26,cs)
);
}
);
};
layerId = master01;
shapes = (
{
closed = 1;
nodes = (
(124,272,o),
(241,342,o),
(373,342,cs,{
name = hr01;
}),
(395,342,o),
(417,340,o),
(437,332,c),
(464,363,o),
(478,400,o),
(478,427,cs),
(478,477,o),
(441,491,o),
(397,491,cs),
(316,491,o),
(199,421,o),
(67,421,cs,{
name = hr02;
}),
(45,421,o),
(23,423,o),
(3,431,c),
(-24,400,o),
(-38,363,o),
(-38,336,cs),
(-38,286,o),
(-1,272,o),
(43,272,cs)
);
},
{
ref = L;
}
);
width = 549;
}
);
unicode = 321;
},
{
glyphname = M;
lastChange = "2023-03-01 10:27:04 +0000";
layers = (
{
anchors = (
{
name = bottom;
pos = (518,0);
},
{
name = top;
pos = (518,710);
}
);
background = {
shapes = (
{
closed = 1;
nodes = (
(710,25,o),
(742,-26,o),
(832,-26,cs),
(875,-26,o),
(915,-12,o),
(956,19,c),
(936,51,o),
(926,96,o),
(926,164,cs),
(926,238,o),
(1003,567,o),
(1003,632,cs),
(1003,682,o),
(988,725,o),
(926,725,cs),
(699,725,o),
(576,520,o),
(512,335,c),
(500,335,l),
(469,671,o),
(403,726,o),
(276,726,cs,{
name = hr01;
}),
(205,726,o),
(132,693,o),
(70,653,c),
(123,546,l),
(83,325,o),
(60,196,o),
(60,129,cs),
(60,25,o),
(92,-26,o),
(182,-26,cs),
(225,-26,o),
(265,-12,o),
(306,19,c),
(286,51,o),
(276,96,o),
(276,164,cs),
(276,208,o),
(299,344,o),
(325,458,c),
(341,458,l),
(363,99,o),
(415,21,o),
(478,21,cs),
(516,21,o),
(558,36,o),
(591,67,c),
(602,174,o),
(654,344,o),
(741,458,c),
(757,458,l),
(727,290,o),
(710,186,o),
(710,129,cs)
);
}
);
};
layerId = master01;
shapes = (
{
closed = 1;
nodes = (
(225,-26,o),
(265,-12,o),
(306,19,c),
(286,51,o),
(276,96,o),
(276,164,cs),
(276,208,o),
(299,344,o),
(325,458,c),
(341,458,l),
(363,99,o),
(415,21,o),
(478,21,cs),
(516,21,o),
(558,36,o),
(591,67,c),
(602,174,o),
(654,344,o),
(741,458,c),
(757,458,l),
(727,290,o),
(710,186,o),
(710,129,cs),
(710,25,o),
(742,-26,o),
(832,-26,cs),
(875,-26,o),
(915,-12,o),
(956,19,c),
(936,51,o),
(926,96,o),
(926,164,cs),
(926,238,o),
(1003,567,o),
(1003,632,cs),
(1003,682,o),
(988,725,o),
(926,725,cs),
(699,725,o),
(576,520,o),
(512,335,c),
(500,335,l),
(469,671,o),
(403,726,o),
(276,726,cs,{
name = hr01;
}),
(205,726,o),
(132,693,o),
(70,653,c),
(123,546,l),
(83,325,o),
(60,196,o),
(60,129,cs),
(60,25,o),
(92,-26,o),
(182,-26,cs)
);
}
);
width = 1036;
}
);
unicode = 77;
},
{
glyphname = N;
lastChange = "2023-03-01 10:31:46 +0000";
layers = (
{
anchors = (
{
name = bottom;
pos = (395,0);
},
{
name = top;
pos = (495,710);
}
);
background = {
shapes = (
{
closed = 1;
nodes = (
(430,440,o),
(558,725,o),
(271,725,cs),
(200,725,o),
(127,693,o),
(65,653,c),
(118,546,l),
(78,325,o),
(55,196,o),
(55,129,cs),
(55,25,o),
(87,-26,o),
(177,-26,cs),
(220,-26,o),
(260,-12,o),
(301,19,c),
(281,51,o),
(271,96,o),
(271,164,cs),
(271,206,o),
(292,328,o),
(317,441,c),
(333,441,l),
(346,190,o),
(407,-25,o),
(616,-25,cs,{
name = hr01;
}),
(692,-25,o),
(732,-12,o),
(790,26,c),
(769,57,o),
(758,99,o),
(758,168,cs),
(758,228,o),
(819,527,o),
(850,706,c),
(824,719,o),
(787,725,o),
(757,725,cs),
(610,725,o),
(537,592,o),
(537,447,cs),
(537,349,o),
(564,246,o),
(602,173,c),
(578,157,l)
);
}
);
};
layerId = master01;
shapes = (
{
closed = 1;
nodes = (
(220,-26,o),
(260,-12,o),
(301,19,c),
(281,51,o),
(271,96,o),
(271,164,cs),
(271,206,o),
(292,328,o),
(317,441,c),
(333,441,l),
(346,190,o),
(407,-25,o),
(616,-25,cs,{
name = hr01;
}),
(692,-25,o),
(732,-12,o),
(790,26,c),
(769,57,o),
(758,99,o),
(758,168,cs),
(758,228,o),
(819,527,o),
(850,706,c),
(824,719,o),
(787,725,o),
(757,725,cs),
(610,725,o),
(537,592,o),
(537,447,cs),
(537,349,o),
(564,246,o),
(602,173,c),
(578,157,l),
(430,440,o),
(558,725,o),
(271,725,cs),
(200,725,o),
(127,693,o),
(65,653,c),
(118,546,l),
(78,325,o),
(55,196,o),
(55,129,cs),
(55,25,o),
(87,-26,o),
(177,-26,cs)
);
}
);
width = 870;
}
);
unicode = 78;
},
{
glyphname = Nacute;
lastChange = "2023-03-01 10:31:43 +0000";
layers = (
{
background = {
shapes = (
{
closed = 1;
nodes = (
(220,-26,o),
(260,-12,o),
(301,19,c),
(281,51,o),
(271,96,o),
(271,164,cs),
(271,206,o),
(292,328,o),
(317,441,c),
(333,441,l),
(346,190,o),
(407,-25,o),
(616,-25,cs,{
name = hr01;
}),
(692,-25,o),
(732,-12,o),
(790,26,c),
(769,57,o),
(758,99,o),
(758,168,cs),
(758,228,o),
(819,527,o),
(850,706,c),
(824,719,o),
(787,725,o),
(757,725,cs),
(610,725,o),
(537,592,o),
(537,447,cs),
(537,349,o),
(564,246,o),
(602,173,c),
(578,157,l),
(430,440,o),
(558,725,o),
(271,725,cs),
(200,725,o),
(127,693,o),
(65,653,c),
(118,546,l),
(78,325,o),
(55,196,o),
(55,129,cs),
(55,25,o),
(87,-26,o),
(177,-26,cs)
);
},
{
closed = 1;
nodes = (
(469,753,o),
(539,820,o),
(630,820,cs),
(637,820,o),
(646,819,o),
(653,818,c),
(660,842,o),
(663,868,o),
(663,891,cs),
(663,963,o),
(637,986,o),
(607,986,cs),
(519,986,o),
(432,854,o),
(327,829,c),
(331,773,o),
(356,753,o),
(383,753,cs,{
name = hr00;
})
);
}
);
};
layerId = master01;
shapes = (
{
ref = N;
},
{
pos = (257,0);
ref = acutecomb.case;
}
);
width = 870;
}
);
unicode = 323;
},
{
glyphname = Ncaron;
lastChange = "2023-03-01 10:33:23 +0000";
layers = (
{
background = {
shapes = (
{
closed = 1;
nodes = (
(220,-26,o),
(260,-12,o),
(301,19,c),
(281,51,o),
(271,96,o),
(271,164,cs),
(271,206,o),
(292,328,o),
(317,441,c),
(333,441,l),
(346,190,o),
(407,-25,o),
(616,-25,cs,{
name = hr01;
}),
(692,-25,o),
(732,-12,o),
(790,26,c),
(769,57,o),
(758,99,o),
(758,168,cs),
(758,228,o),
(819,527,o),
(850,706,c),
(824,719,o),
(787,725,o),
(757,725,cs),
(610,725,o),
(537,592,o),
(537,447,cs),
(537,349,o),
(564,246,o),
(602,173,c),
(578,157,l),
(430,440,o),
(558,725,o),
(271,725,cs),
(200,725,o),
(127,693,o),
(65,653,c),
(118,546,l),
(78,325,o),
(55,196,o),
(55,129,cs),
(55,25,o),
(87,-26,o),
(177,-26,cs)
);
},
{
closed = 1;
nodes = (
(510,734,o),
(569,745,o),
(602,761,c,{
name = hr00;
}),
(636,799,o),
(710,873,o),
(710,919,cs),
(710,942,o),
(690,958,o),
(633,958,cs),
(595,958,o),
(563,950,o),
(537,940,c),
(538,928,o),
(539,916,o),
(539,905,cs),
(539,863,o),
(520,819,o),
(498,796,c),
(468,796,l),
(473,827,o),
(479,860,o),
(479,883,cs),
(479,940,o),
(446,958,o),
(398,958,cs),
(365,958,o),
(329,949,o),
(304,939,c),
(321,927,o),
(335,908,o),
(335,874,cs),
(335,791,ls),
(335,750,o),
(389,734,o),
(455,734,cs)
);
}
);
};
layerId = master01;
shapes = (
{
ref = N;
},
{
pos = (244,0);
ref = caroncomb.case;
}
);
width = 870;
}
);
unicode = 327;
},
{
glyphname = Ncommaaccent;
lastChange = "2023-03-01 10:31:46 +0000";
layers = (
{
background = {
shapes = (
{
closed = 1;
nodes = (
(220,-26,o),
(260,-12,o),
(301,19,c),
(281,51,o),
(271,96,o),
(271,164,cs),
(271,206,o),
(292,328,o),
(317,441,c),
(333,441,l),
(346,190,o),
(407,-25,o),
(616,-25,cs,{
name = hr01;
}),
(692,-25,o),
(732,-12,o),
(790,26,c),
(769,57,o),
(758,99,o),
(758,168,cs),
(758,228,o),
(819,527,o),
(850,706,c),
(824,719,o),
(787,725,o),
(757,725,cs),
(610,725,o),
(537,592,o),
(537,447,cs),
(537,349,o),
(564,246,o),
(602,173,c),
(578,157,l),
(430,440,o),
(558,725,o),
(271,725,cs),
(200,725,o),
(127,693,o),
(65,653,c),
(118,546,l),
(78,325,o),
(55,196,o),
(55,129,cs),
(55,25,o),
(87,-26,o),
(177,-26,cs)
);
},
{
closed = 1;
nodes = (
(428,-394,o),
(517,-287,o),
(517,-164,cs),
(517,-110,o),
(482,-60,o),
(421,-60,cs,{
name = hr01;
}),
(360,-60,o),
(308,-111,o),
(305,-168,c),
(368,-249,l),
(368,-293,o),
(332,-356,o),
(273,-384,c),
(286,-424,l)
);
}
);
};
layerId = master01;
shapes = (
{
ref = N;
},
{
pos = (245,0);
ref = commaaccentcomb;
}
);
width = 870;
}
);
unicode = 325;
},
{
glyphname = Ntilde;
lastChange = "2023-03-01 10:31:43 +0000";
layers = (
{
background = {
shapes = (
{
closed = 1;
nodes = (
(220,-26,o),
(260,-12,o),
(301,19,c),
(281,51,o),
(271,96,o),
(271,164,cs),
(271,206,o),
(292,328,o),
(317,441,c),
(333,441,l),
(346,190,o),
(407,-25,o),
(616,-25,cs,{
name = hr01;
}),
(692,-25,o),
(732,-12,o),
(790,26,c),
(769,57,o),
(758,99,o),
(758,168,cs),
(758,228,o),
(819,527,o),
(850,706,c),
(824,719,o),
(787,725,o),
(757,725,cs),
(610,725,o),
(537,592,o),
(537,447,cs),
(537,349,o),
(564,246,o),
(602,173,c),
(578,157,l),
(430,440,o),
(558,725,o),
(271,725,cs),
(200,725,o),
(127,693,o),
(65,653,c),
(118,546,l),
(78,325,o),
(55,196,o),
(55,129,cs),
(55,25,o),
(87,-26,o),
(177,-26,cs)
);
},
{
closed = 1;
nodes = (
(468,766,o),
(539,825,o),
(624,825,cs),
(651,825,o),
(679,819,o),
(707,805,c),
(724,842,o),
(734,881,o),
(734,910,cs,{
name = hr02;
}),
(734,958,o),
(707,973,o),
(670,973,cs),
(592,973,o),
(521,914,o),
(436,914,cs),
(409,914,o),
(381,920,o),
(353,934,c),
(336,897,o),
(326,858,o),
(326,829,cs,{
name = hr01;
}),
(326,781,o),
(353,766,o),
(390,766,cs)
);
}
);
};
layerId = master01;
shapes = (
{
ref = N;
},
{
pos = (221,0);
ref = tildecomb.case;
}
);
width = 870;
}
);
unicode = 209;
},
{
glyphname = Eng;
lastChange = "2023-03-01 10:27:04 +0000";
layers = (
{
anchors = (
{
name = bottom;
pos = (435,0);
},
{
name = top;
pos = (435,710);
}
);
background = {
shapes = (
{
closed = 1;
nodes = (
(516,697,o),
(510,673,o),
(510,635,cs),
(510,555,o),
(545,531,o),
(612,531,c),
(600,467,o),
(583,315,o),
(571,185,c),
(515,417,o),
(468,725,o),
(267,725,cs),
(200,725,o),
(127,693,o),
(65,653,c),
(118,546,l),
(78,325,o),
(55,196,o),
(55,129,cs),
(55,25,o),
(87,-26,o),
(177,-26,cs),
(220,-26,o),
(260,-12,o),
(301,19,c),
(281,51,o),
(271,96,o),
(271,164,cs),
(271,206,o),
(292,328,o),
(317,441,c),
(333,441,l),
(534,-134,l),
(510,-154,l),
(482,-67,o),
(425,-30,o),
(370,-30,cs),
(312,-30,o),
(259,-75,o),
(259,-147,cs),
(259,-228,o),
(339,-287,o),
(452,-287,cs),
(570,-287,o),
(709,-197,o),
(744,18,cs),
(832,568,l),
(850,588,o),
(865,615,o),
(865,650,cs),
(865,700,o),
(833,745,o),
(772,745,cs),
(736,745,o),
(703,730,o),
(678,695,c),
(627,697,o),
(576,706,o),
(525,725,c,{
name = hr00;
})
);
}
);
};
layerId = master01;
shapes = (
{
closed = 1;
nodes = (
(570,-287,o),
(709,-197,o),
(744,18,cs),
(832,568,l),
(850,588,o),
(865,615,o),
(865,650,cs),
(865,700,o),
(833,745,o),
(772,745,cs),
(736,745,o),
(703,730,o),
(678,695,c),
(627,697,o),
(576,706,o),
(525,725,c,{
name = hr00;
}),
(516,697,o),
(510,673,o),
(510,635,cs),
(510,555,o),
(545,531,o),
(612,531,c),
(600,467,o),
(583,315,o),
(571,185,c),
(515,417,o),
(468,725,o),
(267,725,cs),
(200,725,o),
(127,693,o),
(65,653,c),
(118,546,l),
(78,325,o),
(55,196,o),
(55,129,cs),
(55,25,o),
(87,-26,o),
(177,-26,cs),
(220,-26,o),
(260,-12,o),
(301,19,c),
(281,51,o),
(271,96,o),
(271,164,cs),
(271,206,o),
(292,328,o),
(317,441,c),
(333,441,l),
(534,-134,l),
(510,-154,l),
(482,-67,o),
(425,-30,o),
(370,-30,cs),
(312,-30,o),
(259,-75,o),
(259,-147,cs),
(259,-228,o),
(339,-287,o),
(452,-287,cs)
);
}
);
width = 870;
}
);
unicode = 330;
},
{
glyphname = O;
lastChange = "2023-03-01 10:31:56 +0000";
layers = (
{
anchors = (
{
name = bottom;
pos = (387,0);
},
{
name = center;
pos = (387,355);
},
{
name = ogonek;
pos = (697,10);
},
{
name = top;
pos = (460,710);
},
{
name = topleft;
pos = (20,710);
},
{
name = topright;
pos = (754,710);
}
);
background = {
shapes = (
{
closed = 1;
nodes = (
(25,111,o),
(155,-25,o),
(371,-25,cs),
(567,-25,o),
(759,135,o),
(759,421,cs),
(759,565,o),
(685,632,o),
(611,632,cs),
(582,632,o),
(554,622,o),
(529,602,c),
(530,612,o),
(531,620,o),
(531,629,cs),
(531,692,o),
(501,725,o),
(421,725,cs),
(173,725,o),
(25,557,o),
(25,306,cs,{
name = hr00;
})
);
},
{
closed = 1;
nodes = (
(460,375,o),
(477,316,o),
(524,259,c),
(504,177,o),
(444,121,o),
(379,121,cs),
(290,121,o),
(243,207,o),
(243,310,cs),
(243,429,o),
(314,575,o),
(464,575,cs),
(476,575,o),
(488,574,o),
(500,572,c),
(476,539,o),
(460,492,o),
(460,432,cs)
);
}
);
};
layerId = master01;
shapes = (
{
closed = 1;
nodes = (
(567,-25,o),
(759,135,o),
(759,421,cs),
(759,565,o),
(685,632,o),
(611,632,cs),
(582,632,o),
(554,622,o),
(529,602,c),
(530,612,o),
(531,620,o),
(531,629,cs),
(531,692,o),
(501,725,o),
(421,725,cs),
(173,725,o),
(25,557,o),
(25,306,cs,{
name = hr00;
}),
(25,111,o),
(155,-25,o),
(371,-25,cs)
);
},
{
closed = 1;
nodes = (
(290,121,o),
(243,207,o),
(243,310,cs),
(243,429,o),
(314,575,o),
(464,575,cs),
(476,575,o),
(488,574,o),
(500,572,c),
(476,539,o),
(460,492,o),
(460,432,cs),
(460,375,o),
(477,316,o),
(524,259,c),
(504,177,o),
(444,121,o),
(379,121,cs)
);
}
);
width = 774;
}
);
unicode = 79;
},
{
glyphname = Oacute;
lastChange = "2023-03-01 10:31:56 +0000";
layers = (
{
background = {
shapes = (
{
closed = 1;
nodes = (
(567,-25,o),
(759,135,o),
(759,421,cs),
(759,565,o),
(685,632,o),
(611,632,cs),
(582,632,o),
(554,622,o),
(529,602,c),
(530,612,o),
(531,620,o),
(531,629,cs),
(531,692,o),
(501,725,o),
(421,725,cs),
(173,725,o),
(25,557,o),
(25,306,cs,{
name = hr00;
}),
(25,111,o),
(155,-25,o),
(371,-25,cs)
);
},
{
closed = 1;
nodes = (
(290,121,o),
(243,207,o),
(243,310,cs),
(243,429,o),
(314,575,o),
(464,575,cs),
(476,575,o),
(488,574,o),
(500,572,c),
(476,539,o),
(460,492,o),
(460,432,cs),
(460,375,o),
(477,316,o),
(524,259,c),
(504,177,o),
(444,121,o),
(379,121,cs)
);
},
{
closed = 1;
nodes = (
(452,753,o),
(522,820,o),
(613,820,cs),
(620,820,o),
(629,819,o),
(636,818,c),
(643,842,o),
(646,868,o),
(646,891,cs),
(646,963,o),
(620,986,o),
(590,986,cs),
(502,986,o),
(415,854,o),
(310,829,c),
(314,773,o),
(339,753,o),
(366,753,c,{
name = hr00;
})
);
}
);
};
layerId = master01;
shapes = (
{
ref = O;
},
{
pos = (222,0);
ref = acutecomb.case;
}
);
width = 774;
}
);
unicode = 211;
},
{
glyphname = Obreve;
lastChange = "2023-03-01 10:31:56 +0000";
layers = (
{
background = {
shapes = (
{
closed = 1;
nodes = (
(567,-25,o),
(759,135,o),
(759,421,cs),
(759,565,o),
(685,632,o),
(611,632,cs),
(582,632,o),
(554,622,o),
(529,602,c),
(530,612,o),
(531,620,o),
(531,629,cs),
(531,692,o),
(501,725,o),
(421,725,cs),
(173,725,o),
(25,557,o),
(25,306,cs,{
name = hr00;
}),
(25,111,o),
(155,-25,o),
(371,-25,cs)
);
},
{
closed = 1;
nodes = (
(290,121,o),
(243,207,o),
(243,310,cs),
(243,429,o),
(314,575,o),
(464,575,cs),
(476,575,o),
(488,574,o),
(500,572,c),
(476,539,o),
(460,492,o),
(460,432,cs),
(460,375,o),
(477,316,o),
(524,259,c),
(504,177,o),
(444,121,o),
(379,121,cs)
);
},
{
closed = 1;
nodes = (
(516,762,o),
(642,811,o),
(642,930,cs),
(642,945,o),
(640,961,o),
(637,978,c),
(588,927,o),
(516,896,o),
(450,896,cs),
(382,896,o),
(329,910,o),
(288,958,c),
(280,930,o),
(278,907,o),
(278,883,cs),
(278,797,o),
(334,762,o),
(414,762,cs,{
name = hr00;
})
);
}
);
};
layerId = master01;
shapes = (
{
ref = O;
},
{
pos = (221,0);
ref = brevecomb.case;
}
);
width = 774;
}
);
unicode = 334;
},
{
glyphname = Ocircumflex;
lastChange = "2023-03-01 10:31:56 +0000";
layers = (
{
background = {
shapes = (
{
closed = 1;
nodes = (
(567,-25,o),
(759,135,o),
(759,421,cs),
(759,565,o),
(685,632,o),
(611,632,cs),
(582,632,o),
(554,622,o),
(529,602,c),
(530,612,o),
(531,620,o),
(531,629,cs),
(531,692,o),
(501,725,o),
(421,725,cs),
(173,725,o),
(25,557,o),
(25,306,cs,{
name = hr00;
}),
(25,111,o),
(155,-25,o),
(371,-25,cs)
);
},
{
closed = 1;
nodes = (
(290,121,o),
(243,207,o),
(243,310,cs),
(243,429,o),
(314,575,o),
(464,575,cs),
(476,575,o),
(488,574,o),
(500,572,c),
(476,539,o),
(460,492,o),
(460,432,cs),
(460,375,o),
(477,316,o),
(524,259,c),
(504,177,o),
(444,121,o),
(379,121,cs)
);
},
{
closed = 1;
nodes = (
(321,759,o),
(359,762,o),
(400,771,c),
(400,819,o),
(425,878,o),
(460,921,c),
(486,921,l),
(483,893,o),
(479,865,o),
(479,841,cs),
(479,793,o),
(496,759,o),
(575,759,cs),
(600,759,o),
(623,761,o),
(646,767,c),
(638,781,o),
(632,800,o),
(632,823,cs),
(632,867,o),
(642,899,o),
(642,946,cs),
(642,973,o),
(587,983,o),
(525,983,cs),
(456,983,o),
(378,971,o),
(355,958,c),
(319,918,o),
(231,817,o),
(231,778,cs),
(231,767,o),
(246,759,o),
(288,759,c,{
name = hr00;
})
);
}
);
};
layerId = master01;
shapes = (
{
ref = O;
},
{
pos = (172,0);
ref = circumflexcomb.case;
}
);
width = 774;
}
);
unicode = 212;
},
{
glyphname = Odieresis;
lastChange = "2023-03-01 10:31:56 +0000";
layers = (
{
background = {
shapes = (
{
closed = 1;
nodes = (
(567,-25,o),
(759,135,o),
(759,421,cs),
(759,565,o),
(685,632,o),
(611,632,cs),
(582,632,o),
(554,622,o),
(529,602,c),
(530,612,o),
(531,620,o),
(531,629,cs),
(531,692,o),
(501,725,o),
(421,725,cs),
(173,725,o),
(25,557,o),
(25,306,cs,{
name = hr00;
}),
(25,111,o),
(155,-25,o),
(371,-25,cs)
);
},
{
closed = 1;
nodes = (
(290,121,o),
(243,207,o),
(243,310,cs),
(243,429,o),
(314,575,o),
(464,575,cs),
(476,575,o),
(488,574,o),
(500,572,c),
(476,539,o),
(460,492,o),
(460,432,cs),
(460,375,o),
(477,316,o),
(524,259,c),
(504,177,o),
(444,121,o),
(379,121,cs)
);
},
{
closed = 1;
nodes = (
(680,771,o),
(739,813,o),
(739,878,cs),
(739,925,o),
(699,954,o),
(645,954,cs),
(592,954,o),
(520,920,o),
(520,846,cs),
(520,799,o),
(560,771,o),
(614,771,cs,{
name = hr00;
})
);
},
{
closed = 1;
nodes = (
(379,771,o),
(438,813,o),
(438,878,cs),
(438,925,o),
(398,954,o),
(344,954,cs),
(291,954,o),
(219,920,o),
(219,846,cs),
(219,799,o),
(259,771,o),
(313,771,cs)
);
}
);
};
layerId = master01;
shapes = (
{
ref = O;
},
{
pos = (114,0);
ref = dieresiscomb.case;
}
);
width = 774;
}
);
unicode = 214;
},
{
glyphname = Ograve;
lastChange = "2023-03-01 10:31:56 +0000";
layers = (
{
background = {
shapes = (
{
closed = 1;
nodes = (
(567,-25,o),
(759,135,o),
(759,421,cs),
(759,565,o),
(685,632,o),
(611,632,cs),
(582,632,o),
(554,622,o),
(529,602,c),
(530,612,o),
(531,620,o),
(531,629,cs),
(531,692,o),
(501,725,o),
(421,725,cs),
(173,725,o),
(25,557,o),
(25,306,cs,{
name = hr00;
}),
(25,111,o),
(155,-25,o),
(371,-25,cs)
);
},
{
closed = 1;
nodes = (
(290,121,o),
(243,207,o),
(243,310,cs),
(243,429,o),
(314,575,o),
(464,575,cs),
(476,575,o),
(488,574,o),
(500,572,c),
(476,539,o),
(460,492,o),
(460,432,cs),
(460,375,o),
(477,316,o),
(524,259,c),
(504,177,o),
(444,121,o),
(379,121,cs)
);
},
{
closed = 1;
nodes = (
(608,753,o),
(633,773,o),
(637,829,c),
(532,854,o),
(445,986,o),
(357,986,cs),
(327,986,o),
(301,963,o),
(301,891,cs),
(301,868,o),
(304,842,o),
(311,818,c),
(318,819,o),
(327,820,o),
(334,820,cs),
(425,820,o),
(495,753,o),
(581,753,c,{
name = hr00;
})
);
}
);
};
layerId = master01;
shapes = (
{
ref = O;
},
{
pos = (272,0);
ref = gravecomb.case;
}
);
width = 774;
}
);
unicode = 210;
},
{
glyphname = Ohungarumlaut;
lastChange = "2023-03-01 10:31:56 +0000";
layers = (
{
background = {
shapes = (
{
closed = 1;
nodes = (
(567,-25,o),
(759,135,o),
(759,421,cs),
(759,565,o),
(685,632,o),
(611,632,cs),
(582,632,o),
(554,622,o),
(529,602,c),
(530,612,o),
(531,620,o),
(531,629,cs),
(531,692,o),
(501,725,o),
(421,725,cs),
(173,725,o),
(25,557,o),
(25,306,cs,{
name = hr00;
}),
(25,111,o),
(155,-25,o),
(371,-25,cs)
);
},
{
closed = 1;
nodes = (
(290,121,o),
(243,207,o),
(243,310,cs),
(243,429,o),
(314,575,o),
(464,575,cs),
(476,575,o),
(488,574,o),
(500,572,c),
(476,539,o),
(460,492,o),
(460,432,cs),
(460,375,o),
(477,316,o),
(524,259,c),
(504,177,o),
(444,121,o),
(379,121,cs)
);
},
{
closed = 1;
nodes = (
(637,748,o),
(724,870,o),
(799,870,c),
(799,987,o),
(740,1002,o),
(709,1002,cs),
(610,1002,o),
(566,859,o),
(474,827,c),
(494,769,o),
(522,748,o),
(551,748,cs)
);
},
{
closed = 1;
nodes = (
(306,748,o),
(393,870,o),
(468,870,c,{
name = hr00;
}),
(468,987,o),
(409,1002,o),
(378,1002,cs),
(279,1002,o),
(235,859,o),
(143,827,c),
(163,769,o),
(191,748,o),
(220,748,cs)
);
}
);
};
layerId = master01;
shapes = (
{
ref = O;
},
{
pos = (65,0);
ref = hungarumlautcomb.case;
}
);
width = 774;
}
);
unicode = 336;
},
{
glyphname = Omacron;
lastChange = "2023-03-01 10:31:56 +0000";
layers = (
{
background = {
shapes = (
{
closed = 1;
nodes = (
(567,-25,o),
(759,135,o),
(759,421,cs),
(759,565,o),
(685,632,o),
(611,632,cs),
(582,632,o),
(554,622,o),
(529,602,c),
(530,612,o),
(531,620,o),
(531,629,cs),
(531,692,o),
(501,725,o),
(421,725,cs),
(173,725,o),
(25,557,o),
(25,306,cs,{
name = hr00;
}),
(25,111,o),
(155,-25,o),
(371,-25,cs)
);
},
{
closed = 1;
nodes = (
(290,121,o),
(243,207,o),
(243,310,cs),
(243,429,o),
(314,575,o),
(464,575,cs),
(476,575,o),
(488,574,o),
(500,572,c),
(476,539,o),
(460,492,o),
(460,432,cs),
(460,375,o),
(477,316,o),
(524,259,c),
(504,177,o),
(444,121,o),
(379,121,cs)
);
},
{
closed = 1;
nodes = (
(382,785,o),
(478,809,o),
(557,809,cs),
(577,809,o),
(617,805,o),
(633,795,c),
(644,819,o),
(647,844,o),
(647,867,cs),
(647,919,o),
(621,938,o),
(576,938,cs),
(506,938,o),
(439,932,o),
(375,932,cs),
(360,932,o),
(321,935,o),
(301,944,c,{
name = hr01;
}),
(284,909,o),
(272,879,o),
(272,838,cs),
(272,797,o),
(288,785,o),
(307,785,c)
);
}
);
};
layerId = master01;
shapes = (
{
ref = O;
},
{
pos = (182,0);
ref = macroncomb.case;
}
);
width = 774;
}
);
unicode = 332;
},
{
glyphname = Oslash;
lastChange = "2023-03-01 10:27:04 +0000";
layers = (
{
anchors = (
{
name = bottom;
pos = (387,0);
},
{
name = top;
pos = (387,710);
}
);
background = {
shapes = (
{
closed = 1;
nodes = (
(25,160,o),
(98,47,o),
(225,0,c),
(210,-35,o),
(194,-63,o),
(177,-79,c),
(209,-104,o),
(239,-111,o),
(267,-111,cs),
(319,-111,o),
(351,-79,o),
(371,-25,c),
(567,-25,o),
(759,135,o),
(759,421,cs),
(759,565,o),
(685,632,o),
(611,632,cs),
(588,632,o),
(566,626,o),
(545,613,c),
(563,665,o),
(588,724,o),
(614,763,c),
(582,792,o),
(543,810,o),
(498,810,cs),
(450,810,o),
(428,783,o),
(413,724,c),
(170,720,o),
(25,554,o),
(25,306,cs,{
name = hr00;
})
);
},
{
closed = 1;
nodes = (
(569,296,o),
(514,165,o),
(414,130,c),
(453,274,o),
(481,393,o),
(525,545,c),
(555,515,o),
(569,464,o),
(569,408,cs)
);
},
{
closed = 1;
nodes = (
(235,393,o),
(284,515,o),
(374,559,c),
(347,441,o),
(314,302,o),
(275,157,c),
(247,188,o),
(235,236,o),
(235,289,cs)
);
}
);
};
layerId = master01;
shapes = (
{
closed = 1;
nodes = (
(319,-111,o),
(351,-79,o),
(371,-25,c),
(567,-25,o),
(759,135,o),
(759,421,cs),
(759,565,o),
(685,632,o),
(611,632,cs),
(588,632,o),
(566,626,o),
(545,613,c),
(563,665,o),
(588,724,o),
(614,763,c),
(582,792,o),
(543,810,o),
(498,810,cs),
(450,810,o),
(428,783,o),
(413,724,c),
(170,720,o),
(25,554,o),
(25,306,cs,{
name = hr00;
}),
(25,160,o),
(98,47,o),
(225,0,c),
(210,-35,o),
(194,-63,o),
(177,-79,c),
(209,-104,o),
(239,-111,o),
(267,-111,cs)
);
},
{
closed = 1;
nodes = (
(247,188,o),
(235,236,o),
(235,289,cs),
(235,393,o),
(284,515,o),
(374,559,c),
(347,441,o),
(314,302,o),
(275,157,c)
);
},
{
closed = 1;
nodes = (
(453,274,o),
(481,393,o),
(525,545,c),
(555,515,o),
(569,464,o),
(569,408,cs),
(569,296,o),
(514,165,o),
(414,130,c)
);
}
);
width = 774;
}
);
unicode = 216;
},
{
glyphname = Oslashacute;
lastChange = "2023-03-01 10:32:08 +0000";
layers = (
{
background = {
shapes = (
{
closed = 1;
nodes = (
(319,-111,o),
(351,-79,o),
(371,-25,c),
(567,-25,o),
(759,135,o),
(759,421,cs),
(759,565,o),
(685,632,o),
(611,632,cs),
(588,632,o),
(566,626,o),
(545,613,c),
(563,665,o),
(588,724,o),
(614,763,c),
(582,792,o),
(543,810,o),
(498,810,cs),
(450,810,o),
(428,783,o),
(413,724,c),
(170,720,o),
(25,554,o),
(25,306,cs,{
name = hr00;
}),
(25,160,o),
(98,47,o),
(225,0,c),
(210,-35,o),
(194,-63,o),
(177,-79,c),
(209,-104,o),
(239,-111,o),
(267,-111,cs)
);
},
{
closed = 1;
nodes = (
(247,188,o),
(235,236,o),
(235,289,cs),
(235,393,o),
(284,515,o),
(374,559,c),
(347,441,o),
(314,302,o),
(275,157,c)
);
},
{
closed = 1;
nodes = (
(453,274,o),
(481,393,o),
(525,545,c),
(555,515,o),
(569,464,o),
(569,408,cs),
(569,296,o),
(514,165,o),
(414,130,c)
);
},
{
closed = 1;
nodes = (
(452,813,o),
(522,880,o),
(613,880,cs),
(620,880,o),
(629,879,o),
(636,878,c),
(643,902,o),
(646,928,o),
(646,951,cs),
(646,1023,o),
(620,1046,o),
(590,1046,cs),
(502,1046,o),
(415,914,o),
(310,889,c),
(314,833,o),
(339,813,o),
(366,813,cs,{
name = hr00;
})
);
}
);
};
layerId = master01;
shapes = (
{
ref = Oslash;
},
{
alignment = -1;
pos = (240,61);
ref = acutecomb.case;
}
);
width = 774;
}
);
unicode = 510;
},
{
glyphname = Otilde;
lastChange = "2023-03-01 10:31:56 +0000";
layers = (
{
background = {
shapes = (
{
closed = 1;
nodes = (
(567,-25,o),
(759,135,o),
(759,421,cs),
(759,565,o),
(685,632,o),
(611,632,cs),
(582,632,o),
(554,622,o),
(529,602,c),
(530,612,o),
(531,620,o),
(531,629,cs),
(531,692,o),
(501,725,o),
(421,725,cs),
(173,725,o),
(25,557,o),
(25,306,cs,{
name = hr00;
}),
(25,111,o),
(155,-25,o),
(371,-25,cs)
);
},
{
closed = 1;
nodes = (
(290,121,o),
(243,207,o),
(243,310,cs),
(243,429,o),
(314,575,o),
(464,575,cs),
(476,575,o),
(488,574,o),
(500,572,c),
(476,539,o),
(460,492,o),
(460,432,cs),
(460,375,o),
(477,316,o),
(524,259,c),
(504,177,o),
(444,121,o),
(379,121,cs)
);
},
{
closed = 1;
nodes = (
(414,766,o),
(485,825,o),
(570,825,cs),
(597,825,o),
(625,819,o),
(653,805,c),
(670,842,o),
(680,881,o),
(680,910,cs,{
name = hr02;
}),
(680,958,o),
(653,973,o),
(616,973,cs),
(538,973,o),
(467,914,o),
(382,914,cs),
(355,914,o),
(327,920,o),
(299,934,c),
(282,897,o),
(272,858,o),
(272,829,cs,{
name = hr01;
}),
(272,781,o),
(299,766,o),
(336,766,cs)
);
}
);
};
layerId = master01;
shapes = (
{
ref = O;
},
{
pos = (186,0);
ref = tildecomb.case;
}
);
width = 774;
}
);
unicode = 213;
},
{
glyphname = OE;
lastChange = "2023-03-01 10:27:04 +0000";
layers = (
{
anchors = (
{
name = bottom;
pos = (480,0);
},
{
name = top;
pos = (480,710);
}
);
background = {
shapes = (
{
closed = 1;
nodes = (
(896,-25,o),
(938,56,o),
(938,126,cs),
(938,145,o),
(937,160,o),
(932,175,c),
(880,156,o),
(828,143,o),
(779,136,c,{
name = hr01;
}),
(617,136,l),
(617,176,o),
(621,216,o),
(628,255,c),
(650,250,o),
(672,246,o),
(698,246,cs),
(757,246,o),
(807,274,o),
(807,338,cs),
(807,348,o),
(807,369,o),
(802,386,c),
(776,378,o),
(738,368,o),
(712,363,c),
(690,363,o),
(670,366,o),
(649,370,c),
(659,421,o),
(669,472,o),
(677,517,c),
(714,501,o),
(753,493,o),
(789,493,cs),
(893,493,o),
(980,542,o),
(980,656,cs),
(980,675,o),
(978,696,o),
(972,721,c),
(857,694,o),
(776,685,o),
(713,685,cs),
(583,685,o),
(532,724,o),
(421,724,cs,{
name = hr02;
}),
(173,724,o),
(25,557,o),
(25,306,cs),
(25,111,o),
(155,-25,o),
(371,-25,cs),
(425,-25,o),
(480,-13,o),
(530,10,c,{
name = hr03;
}),
(658,10,o),
(704,-25,o),
(808,-25,cs)
);
},
{
closed = 1;
nodes = (
(394,121,o),
(386,121,o),
(379,121,cs),
(290,121,o),
(243,207,o),
(243,310,cs),
(243,429,o),
(314,575,o),
(468,575,c),
(430,366,o),
(401,193,o),
(401,123,c)
);
}
);
};
layerId = master01;
shapes = (
{
closed = 1;
nodes = (
(425,-25,o),
(480,-13,o),
(530,10,c,{
name = hr03;
}),
(658,10,o),
(704,-25,o),
(808,-25,cs),
(896,-25,o),
(938,56,o),
(938,126,cs),
(938,145,o),
(937,160,o),
(932,175,c),
(880,156,o),
(828,143,o),
(779,136,c,{
name = hr01;
}),
(617,136,l),
(617,176,o),
(621,216,o),
(628,255,c),
(650,250,o),
(672,246,o),
(698,246,cs),
(757,246,o),
(807,274,o),
(807,338,cs),
(807,348,o),
(807,369,o),
(802,386,c),
(776,378,o),
(738,368,o),
(712,363,c),
(690,363,o),
(670,366,o),
(649,370,c),
(659,421,o),
(669,472,o),
(677,517,c),
(714,501,o),
(753,493,o),
(789,493,cs),
(893,493,o),
(980,542,o),
(980,656,cs),
(980,675,o),
(978,696,o),
(972,721,c),
(857,694,o),
(776,685,o),
(713,685,cs),
(583,685,o),
(532,724,o),
(421,724,cs,{
name = hr02;
}),
(173,724,o),
(25,557,o),
(25,306,cs),
(25,111,o),
(155,-25,o),
(371,-25,cs)
);
},
{
closed = 1;
nodes = (
(290,121,o),
(243,207,o),
(243,310,cs),
(243,429,o),
(314,575,o),
(468,575,c),
(430,366,o),
(401,193,o),
(401,123,c),
(394,121,o),
(386,121,o),
(379,121,cs)
);
}
);
width = 960;
}
);
unicode = 338;
},
{
glyphname = P;
lastChange = "2023-03-01 10:27:04 +0000";
layers = (
{
anchors = (
{
name = bottom;
pos = (359,0);
},
{
name = top;
pos = (359,710);
}
);
background = {
shapes = (
{
closed = 1;
nodes = (
(315,209,o),
(349,205,o),
(383,205,cs),
(612,205,o),
(717,360,o),
(717,500,cs),
(717,617,o),
(645,724,o),
(514,724,cs),
(474,724,o),
(428,715,o),
(377,695,c),
(360,710,o),
(312,726,o),
(276,726,cs,{
name = hr01;
}),
(205,726,o),
(132,693,o),
(70,653,c),
(123,546,l),
(83,325,o),
(60,196,o),
(60,129,cs),
(60,25,o),
(92,-26,o),
(182,-26,cs),
(225,-26,o),
(265,-12,o),
(306,19,c),
(286,51,o),
(276,96,o),
(276,164,cs),
(276,176,o),
(278,195,o),
(282,219,c)
);
},
{
closed = 1;
nodes = (
(320,420,o),
(338,527,o),
(347,588,c),
(363,593,o),
(378,596,o),
(393,596,cs,{
name = hr02;
}),
(461,596,o),
(494,543,o),
(494,486,cs),
(494,396,o),
(412,330,o),
(330,330,cs),
(320,330,o),
(310,331,o),
(301,333,c)
);
}
);
};
layerId = master01;
shapes = (
{
closed = 1;
nodes = (
(225,-26,o),
(265,-12,o),
(306,19,c),
(286,51,o),
(276,96,o),
(276,164,cs),
(276,176,o),
(278,195,o),
(282,219,c),
(315,209,o),
(349,205,o),
(383,205,cs),
(612,205,o),
(717,360,o),
(717,500,cs),
(717,617,o),
(645,724,o),
(514,724,cs),
(474,724,o),
(428,715,o),
(377,695,c),
(360,710,o),
(312,726,o),
(276,726,cs,{
name = hr01;
}),
(205,726,o),
(132,693,o),
(70,653,c),
(123,546,l),
(83,325,o),
(60,196,o),
(60,129,cs),
(60,25,o),
(92,-26,o),
(182,-26,cs)
);
},
{
closed = 1;
nodes = (
(320,330,o),
(310,331,o),
(301,333,c),
(320,420,o),
(338,527,o),
(347,588,c),
(363,593,o),
(378,596,o),
(393,596,cs,{
name = hr02;
}),
(461,596,o),
(494,543,o),
(494,486,cs),
(494,396,o),
(412,330,o),
(330,330,cs)
);
}
);
width = 717;
}
);
unicode = 80;
},
{
glyphname = Thorn;
lastChange = "2023-03-01 10:27:04 +0000";
layers = (
{
anchors = (
{
name = bottom;
pos = (350,0);
},
{
name = top;
pos = (350,710);
}
);
background = {
shapes = (
{
closed = 1;
nodes = (
(297,235,o),
(290,235,o),
(283,236,c),
(302,325,o),
(320,433,o),
(329,495,c),
(344,499,o),
(360,502,o),
(375,502,cs),
(442,502,o),
(475,450,o),
(475,391,cs),
(475,318,o),
(420,235,o),
(306,235,cs,{
name = hr00;
})
);
},
{
closed = 1;
nodes = (
(60,25,o),
(92,-26,o),
(182,-26,cs),
(225,-26,o),
(265,-12,o),
(306,19,c),
(290,43,o),
(281,76,o),
(277,120,c),
(306,113,o),
(336,110,o),
(365,110,cs),
(594,110,o),
(699,265,o),
(699,405,cs),
(699,522,o),
(627,629,o),
(496,629,cs),
(456,629,o),
(401,620,o),
(350,600,c),
(352,613,o),
(353,624,o),
(353,632,cs),
(353,682,o),
(338,726,o),
(276,726,cs),
(205,726,o),
(132,693,o),
(70,653,c),
(123,546,l),
(83,325,o),
(60,196,o),
(60,129,cs)
);
}
);
};
layerId = master01;
shapes = (
{
closed = 1;
nodes = (
(225,-26,o),
(265,-12,o),
(306,19,c),
(290,43,o),
(281,76,o),
(277,120,c),
(306,113,o),
(336,110,o),
(365,110,cs),
(594,110,o),
(699,265,o),
(699,405,cs),
(699,522,o),
(627,629,o),
(496,629,cs),
(456,629,o),
(401,620,o),
(350,600,c),
(352,613,o),
(353,624,o),
(353,632,cs),
(353,682,o),
(338,726,o),
(276,726,cs),
(205,726,o),
(132,693,o),
(70,653,c),
(123,546,l),
(83,325,o),
(60,196,o),
(60,129,cs),
(60,25,o),
(92,-26,o),
(182,-26,cs)
);
},
{
closed = 1;
nodes = (
(297,235,o),
(290,235,o),
(283,236,c),
(302,325,o),
(320,433,o),
(329,495,c),
(344,499,o),
(360,502,o),
(375,502,cs),
(442,502,o),
(475,450,o),
(475,391,cs),
(475,318,o),
(420,235,o),
(306,235,cs,{
name = hr00;
})
);
}
);
width = 699;
}
);
unicode = 222;
},
{
glyphname = Q;
lastChange = "2023-03-01 10:23:02 +0000";
layers = (
{
background = {
shapes = (
{
closed = 1;
nodes = (
(54,-126,o),
(82,-169,o),
(137,-169,cs),
(164,-169,o),
(219,-159,o),
(260,-104,c),
(335,-147,o),
(466,-209,o),
(575,-209,cs),
(675,-209,o),
(720,-142,o),
(720,-68,cs),
(720,-46,o),
(717,-24,o),
(709,-2,c),
(647,-25,o),
(588,-32,o),
(530,-32,cs),
(410,-32,o),
(285,14,o),
(175,14,cs),
(92,14,o),
(54,-38,o),
(54,-85,cs)
);
},
{
closed = 1;
nodes = (
(215,-6,l),
(215,41,l),
(175,41,l),
(175,-6,l)
);
},
{
closed = 1;
nodes = (
(446,-37,l),
(446,-11,l,{
name = hr01;
}),
(415,-11,l),
(415,-37,l)
);
},
{
closed = 1;
nodes = (
(567,-25,o),
(759,135,o),
(759,421,cs),
(759,565,o),
(685,632,o),
(611,632,cs),
(582,632,o),
(554,622,o),
(529,602,c),
(530,612,o),
(531,620,o),
(531,629,cs),
(531,692,o),
(501,725,o),
(421,725,cs),
(173,725,o),
(25,557,o),
(25,306,cs,{
name = hr00;
}),
(25,111,o),
(155,-25,o),
(371,-25,cs)
);
},
{
closed = 1;
nodes = (
(290,121,o),
(243,207,o),
(243,310,cs),
(243,429,o),
(314,575,o),
(464,575,cs),
(476,575,o),
(488,574,o),
(500,572,c),
(476,539,o),
(460,492,o),
(460,432,cs),
(460,375,o),
(477,316,o),
(524,259,c),
(504,177,o),
(444,121,o),
(379,121,cs)
);
}
);
};
layerId = master01;
shapes = (
{
closed = 1;
nodes = (
(675,-209,o),
(720,-142,o),
(720,-68,cs),
(720,-46,o),
(717,-24,o),
(709,-2,c),
(647,-25,o),
(588,-32,o),
(530,-32,cs),
(410,-32,o),
(285,14,o),
(175,14,cs),
(92,14,o),
(54,-38,o),
(54,-85,cs),
(54,-126,o),
(82,-169,o),
(137,-169,cs),
(164,-169,o),
(219,-159,o),
(260,-104,c),
(335,-147,o),
(466,-209,o),
(575,-209,cs)
);
},
{
closed = 1;
nodes = (
(215,-6,l),
(215,41,l),
(175,41,l),
(175,-6,l)
);
},
{
closed = 1;
nodes = (
(446,-37,l),
(446,-11,l,{
name = hr01;
}),
(415,-11,l),
(415,-37,l)
);
},
{
ref = O;
}
);
width = 774;
}
);
unicode = 81;
},
{
glyphname = R;
lastChange = "2023-03-01 10:32:20 +0000";
layers = (
{
anchors = (
{
name = bottom;
pos = (347,0);
},
{
name = top;
pos = (447,710);
}
);
background = {
shapes = (
{
closed = 1;
nodes = (
(472,8,o),
(523,-25,o),
(610,-25,cs),
(656,-25,o),
(725,1,o),
(753,30,c),
(696,61,o),
(636,165,o),
(592,290,c),
(680,343,o),
(722,431,o),
(722,514,cs),
(722,623,o),
(651,725,o),
(522,725,cs),
(483,725,o),
(437,715,o),
(387,695,c),
(362,714,o),
(312,725,o),
(276,725,cs),
(205,725,o),
(132,693,o),
(70,653,c),
(123,546,l),
(83,325,o),
(60,196,o),
(60,129,cs),
(60,25,o),
(92,-26,o),
(182,-26,cs,{
name = hr01;
}),
(225,-26,o),
(265,-12,o),
(306,19,c),
(286,51,o),
(276,96,o),
(276,164,cs),
(276,182,o),
(280,215,o),
(287,256,c),
(320,246,o),
(358,240,o),
(392,240,c),
(427,139,ls)
);
},
{
closed = 1;
nodes = (
(322,365,o),
(315,365,o),
(308,366,c),
(327,443,o),
(339,536,o),
(348,590,c),
(363,594,o),
(385,597,o),
(400,597,cs),
(467,597,o),
(500,551,o),
(500,500,cs),
(500,437,o),
(445,365,o),
(331,365,cs)
);
}
);
};
layerId = master01;
shapes = (
{
closed = 1;
nodes = (
(225,-26,o),
(265,-12,o),
(306,19,c),
(286,51,o),
(276,96,o),
(276,164,cs),
(276,182,o),
(280,215,o),
(287,256,c),
(320,246,o),
(358,240,o),
(392,240,c),
(427,139,ls),
(472,8,o),
(523,-25,o),
(610,-25,cs),
(656,-25,o),
(725,1,o),
(753,30,c),
(696,61,o),
(636,165,o),
(592,290,c),
(680,343,o),
(722,431,o),
(722,514,cs),
(722,623,o),
(651,725,o),
(522,725,cs),
(483,725,o),
(437,715,o),
(387,695,c),
(362,714,o),
(312,725,o),
(276,725,cs),
(205,725,o),
(132,693,o),
(70,653,c),
(123,546,l),
(83,325,o),
(60,196,o),
(60,129,cs),
(60,25,o),
(92,-26,o),
(182,-26,cs,{
name = hr01;
})
);
},
{
closed = 1;
nodes = (
(322,365,o),
(315,365,o),
(308,366,c),
(327,443,o),
(339,536,o),
(348,590,c),
(363,594,o),
(385,597,o),
(400,597,cs),
(467,597,o),
(500,551,o),
(500,500,cs),
(500,437,o),
(445,365,o),
(331,365,cs)
);
}
);
width = 733;
}
);
unicode = 82;
},
{
glyphname = Racute;
lastChange = "2023-03-01 10:32:16 +0000";
layers = (
{
background = {
shapes = (
{
closed = 1;
nodes = (
(225,-26,o),
(265,-12,o),
(306,19,c),
(286,51,o),
(276,96,o),
(276,164,cs),
(276,182,o),
(280,215,o),
(287,256,c),
(320,246,o),
(358,240,o),
(392,240,c),
(427,139,ls),
(472,8,o),
(523,-25,o),
(610,-25,cs),
(656,-25,o),
(725,1,o),
(753,30,c),
(696,61,o),
(636,165,o),
(592,290,c),
(680,343,o),
(722,431,o),
(722,514,cs),
(722,623,o),
(651,725,o),
(522,725,cs),
(483,725,o),
(437,715,o),
(387,695,c),
(362,714,o),
(312,725,o),
(276,725,cs),
(205,725,o),
(132,693,o),
(70,653,c),
(123,546,l),
(83,325,o),
(60,196,o),
(60,129,cs),
(60,25,o),
(92,-26,o),
(182,-26,cs,{
name = hr01;
})
);
},
{
closed = 1;
nodes = (
(322,365,o),
(315,365,o),
(308,366,c),
(327,443,o),
(339,536,o),
(348,590,c),
(363,594,o),
(385,597,o),
(400,597,cs),
(467,597,o),
(500,551,o),
(500,500,cs),
(500,437,o),
(445,365,o),
(331,365,cs)
);
},
{
closed = 1;
nodes = (
(420,753,o),
(490,820,o),
(581,820,cs),
(588,820,o),
(597,819,o),
(604,818,c),
(611,842,o),
(614,868,o),
(614,891,cs),
(614,963,o),
(588,986,o),
(558,986,cs),
(470,986,o),
(383,854,o),
(278,829,c),
(282,773,o),
(307,753,o),
(334,753,cs,{
name = hr00;
})
);
}
);
};
layerId = master01;
shapes = (
{
ref = R;
},
{
pos = (209,0);
ref = acutecomb.case;
}
);
width = 733;
}
);
unicode = 340;
},
{
glyphname = Rcaron;
lastChange = "2023-03-01 10:33:23 +0000";
layers = (
{
background = {
shapes = (
{
closed = 1;
nodes = (
(225,-26,o),
(265,-12,o),
(306,19,c),
(286,51,o),
(276,96,o),
(276,164,cs),
(276,182,o),
(280,215,o),
(287,256,c),
(320,246,o),
(358,240,o),
(392,240,c),
(427,139,ls),
(472,8,o),
(523,-25,o),
(610,-25,cs),
(656,-25,o),
(725,1,o),
(753,30,c),
(696,61,o),
(636,165,o),
(592,290,c),
(680,343,o),
(722,431,o),
(722,514,cs),
(722,623,o),
(651,725,o),
(522,725,cs),
(483,725,o),
(437,715,o),
(387,695,c),
(362,714,o),
(312,725,o),
(276,725,cs),
(205,725,o),
(132,693,o),
(70,653,c),
(123,546,l),
(83,325,o),
(60,196,o),
(60,129,cs),
(60,25,o),
(92,-26,o),
(182,-26,cs,{
name = hr01;
})
);
},
{
closed = 1;
nodes = (
(322,365,o),
(315,365,o),
(308,366,c),
(327,443,o),
(339,536,o),
(348,590,c),
(363,594,o),
(385,597,o),
(400,597,cs),
(467,597,o),
(500,551,o),
(500,500,cs),
(500,437,o),
(445,365,o),
(331,365,cs)
);
},
{
closed = 1;
nodes = (
(449,734,o),
(508,745,o),
(541,761,c,{
name = hr00;
}),
(575,799,o),
(649,873,o),
(649,919,cs),
(649,942,o),
(629,958,o),
(572,958,cs),
(534,958,o),
(502,950,o),
(476,940,c),
(477,928,o),
(478,916,o),
(478,905,cs),
(478,863,o),
(459,819,o),
(437,796,c),
(407,796,l),
(412,827,o),
(418,860,o),
(418,883,cs),
(418,940,o),
(385,958,o),
(337,958,cs),
(304,958,o),
(268,949,o),
(243,939,c),
(260,927,o),
(274,908,o),
(274,874,cs),
(274,791,ls),
(274,750,o),
(328,734,o),
(394,734,cs)
);
}
);
};
layerId = master01;
shapes = (
{
ref = R;
},
{
pos = (196,0);
ref = caroncomb.case;
}
);
width = 733;
}
);
unicode = 344;
},
{
glyphname = Rcommaaccent;
lastChange = "2023-03-01 10:32:20 +0000";
layers = (
{
background = {
shapes = (
{
closed = 1;
nodes = (
(225,-26,o),
(265,-12,o),
(306,19,c),
(286,51,o),
(276,96,o),
(276,164,cs),
(276,182,o),
(280,215,o),
(287,256,c),
(320,246,o),
(358,240,o),
(392,240,c),
(427,139,ls),
(472,8,o),
(523,-25,o),
(610,-25,cs),
(656,-25,o),
(725,1,o),
(753,30,c),
(696,61,o),
(636,165,o),
(592,290,c),
(680,343,o),
(722,431,o),
(722,514,cs),
(722,623,o),
(651,725,o),
(522,725,cs),
(483,725,o),
(437,715,o),
(387,695,c),
(362,714,o),
(312,725,o),
(276,725,cs),
(205,725,o),
(132,693,o),
(70,653,c),
(123,546,l),
(83,325,o),
(60,196,o),
(60,129,cs),
(60,25,o),
(92,-26,o),
(182,-26,cs,{
name = hr01;
})
);
},
{
closed = 1;
nodes = (
(322,365,o),
(315,365,o),
(308,366,c),
(327,443,o),
(339,536,o),
(348,590,c),
(363,594,o),
(385,597,o),
(400,597,cs),
(467,597,o),
(500,551,o),
(500,500,cs),
(500,437,o),
(445,365,o),
(331,365,cs)
);
},
{
closed = 1;
nodes = (
(379,-394,o),
(468,-287,o),
(468,-164,cs),
(468,-110,o),
(433,-60,o),
(372,-60,cs,{
name = hr01;
}),
(311,-60,o),
(259,-111,o),
(256,-168,c),
(319,-249,l),
(319,-293,o),
(283,-356,o),
(224,-384,c),
(237,-424,l)
);
}
);
};
layerId = master01;
shapes = (
{
ref = R;
},
{
pos = (197,0);
ref = commaaccentcomb;
}
);
width = 733;
}
);
unicode = 342;
},
{
glyphname = S;
lastChange = "2023-03-01 10:33:03 +0000";
layers = (
{
anchors = (
{
name = bottom;
pos = (271,0);
},
{
name = top;
pos = (417,710);
}
);
background = {
shapes = (
{
closed = 1;
nodes = (
(296,725,o),
(72,660,o),
(72,469,cs),
(72,340,o),
(185,236,o),
(412,206,c),
(392,159,o),
(345,138,o),
(276,138,cs),
(197,138,o),
(106,196,o),
(78,255,c),
(46,212,o),
(35,173,o),
(35,133,cs),
(35,47,o),
(89,-25,o),
(330,-25,cs),
(510,-25,o),
(651,55,o),
(651,200,cs),
(651,326,o),
(547,406,o),
(281,471,c),
(294,525,o),
(347,559,o),
(394,559,c),
(416,498,o),
(480,462,o),
(539,462,cs),
(612,462,o),
(678,506,o),
(678,592,cs),
(678,691,o),
(583,725,o),
(414,725,cs,{
name = hr00;
})
);
}
);
};
layerId = master01;
shapes = (
{
closed = 1;
nodes = (
(510,-25,o),
(651,55,o),
(651,200,cs),
(651,326,o),
(547,406,o),
(281,471,c),
(294,525,o),
(347,559,o),
(394,559,c),
(416,498,o),
(480,462,o),
(539,462,cs),
(612,462,o),
(678,506,o),
(678,592,cs),
(678,691,o),
(583,725,o),
(414,725,cs,{
name = hr00;
}),
(296,725,o),
(72,660,o),
(72,469,cs),
(72,340,o),
(185,236,o),
(412,206,c),
(392,159,o),
(345,138,o),
(276,138,cs),
(197,138,o),
(106,196,o),
(78,255,c),
(46,212,o),
(35,173,o),
(35,133,cs),
(35,47,o),
(89,-25,o),
(330,-25,cs)
);
}
);
width = 688;
}
);
unicode = 83;
},
{
glyphname = Sacute;
lastChange = "2023-03-01 10:32:28 +0000";
layers = (
{
background = {
shapes = (
{
closed = 1;
nodes = (
(510,-25,o),
(651,55,o),
(651,200,cs),
(651,326,o),
(547,406,o),
(281,471,c),
(294,525,o),
(347,559,o),
(394,559,c),
(416,498,o),
(480,462,o),
(539,462,cs),
(612,462,o),
(678,506,o),
(678,592,cs),
(678,691,o),
(583,725,o),
(414,725,cs,{
name = hr00;
}),
(296,725,o),
(72,660,o),
(72,469,cs),
(72,340,o),
(185,236,o),
(412,206,c),
(392,159,o),
(345,138,o),
(276,138,cs),
(197,138,o),
(106,196,o),
(78,255,c),
(46,212,o),
(35,173,o),
(35,133,cs),
(35,47,o),
(89,-25,o),
(330,-25,cs)
);
},
{
closed = 1;
nodes = (
(391,753,o),
(461,820,o),
(552,820,cs),
(559,820,o),
(568,819,o),
(575,818,c),
(582,842,o),
(585,868,o),
(585,891,cs),
(585,963,o),
(559,986,o),
(529,986,cs),
(441,986,o),
(354,854,o),
(249,829,c),
(253,773,o),
(278,753,o),
(305,753,cs,{
name = hr00;
})
);
}
);
};
layerId = master01;
shapes = (
{
ref = S;
},
{
pos = (179,0);
ref = acutecomb.case;
}
);
width = 688;
}
);
unicode = 346;
},
{
glyphname = Scaron;
lastChange = "2023-03-01 10:33:23 +0000";
layers = (
{
background = {
shapes = (
{
closed = 1;
nodes = (
(510,-25,o),
(651,55,o),
(651,200,cs),
(651,326,o),
(547,406,o),
(281,471,c),
(294,525,o),
(347,559,o),
(394,559,c),
(416,498,o),
(480,462,o),
(539,462,cs),
(612,462,o),
(678,506,o),
(678,592,cs),
(678,691,o),
(583,725,o),
(414,725,cs,{
name = hr00;
}),
(296,725,o),
(72,660,o),
(72,469,cs),
(72,340,o),
(185,236,o),
(412,206,c),
(392,159,o),
(345,138,o),
(276,138,cs),
(197,138,o),
(106,196,o),
(78,255,c),
(46,212,o),
(35,173,o),
(35,133,cs),
(35,47,o),
(89,-25,o),
(330,-25,cs)
);
},
{
closed = 1;
nodes = (
(467,749,o),
(526,760,o),
(559,776,c,{
name = hr00;
}),
(593,814,o),
(667,888,o),
(667,934,cs),
(667,957,o),
(647,973,o),
(590,973,cs),
(552,973,o),
(520,965,o),
(494,955,c),
(495,943,o),
(496,931,o),
(496,920,cs),
(496,878,o),
(477,834,o),
(455,811,c),
(425,811,l),
(430,842,o),
(436,875,o),
(436,898,cs),
(436,955,o),
(403,973,o),
(355,973,cs),
(322,973,o),
(286,964,o),
(261,954,c),
(278,942,o),
(292,923,o),
(292,889,cs),
(292,806,ls),
(292,765,o),
(346,749,o),
(412,749,cs)
);
}
);
};
layerId = master01;
shapes = (
{
ref = S;
},
{
pos = (166,0);
ref = caroncomb.case;
}
);
width = 688;
}
);
unicode = 352;
},
{
glyphname = Scedilla;
lastChange = "2023-03-01 10:33:03 +0000";
layers = (
{
background = {
shapes = (
{
closed = 1;
nodes = (
(510,-25,o),
(651,55,o),
(651,200,cs),
(651,326,o),
(547,406,o),
(281,471,c),
(294,525,o),
(347,559,o),
(394,559,c),
(416,498,o),
(480,462,o),
(539,462,cs),
(612,462,o),
(678,506,o),
(678,592,cs),
(678,691,o),
(583,725,o),
(414,725,cs,{
name = hr00;
}),
(296,725,o),
(72,660,o),
(72,469,cs),
(72,340,o),
(185,236,o),
(412,206,c),
(392,159,o),
(345,138,o),
(276,138,cs),
(197,138,o),
(106,196,o),
(78,255,c),
(46,212,o),
(35,173,o),
(35,133,cs),
(35,47,o),
(89,-25,o),
(330,-25,cs)
);
},
{
closed = 1;
nodes = (
(376,-287,o),
(451,-196,o),
(451,-111,cs),
(451,-39,o),
(396,28,o),
(277,28,cs),
(239,28,l),
(239,17,l),
(300,-8,o),
(328,-55,o),
(328,-97,cs,{
name = hr00;
}),
(328,-155,o),
(285,-188,o),
(248,-188,cs),
(221,-188,o),
(197,-170,o),
(197,-130,cs),
(197,-104,o),
(208,-75,o),
(225,-60,c),
(146,-60,o),
(91,-115,o),
(91,-180,cs),
(91,-228,o),
(129,-287,o),
(241,-287,cs)
);
}
);
};
layerId = master01;
shapes = (
{
ref = S;
},
{
pos = (20,0);
ref = cedillacomb;
}
);
width = 688;
}
);
unicode = 350;
},
{
glyphname = Scircumflex;
lastChange = "2023-03-01 10:32:28 +0000";
layers = (
{
background = {
shapes = (
{
closed = 1;
nodes = (
(510,-25,o),
(651,55,o),
(651,200,cs),
(651,326,o),
(547,406,o),
(281,471,c),
(294,525,o),
(347,559,o),
(394,559,c),
(416,498,o),
(480,462,o),
(539,462,cs),
(612,462,o),
(678,506,o),
(678,592,cs),
(678,691,o),
(583,725,o),
(414,725,cs,{
name = hr00;
}),
(296,725,o),
(72,660,o),
(72,469,cs),
(72,340,o),
(185,236,o),
(412,206,c),
(392,159,o),
(345,138,o),
(276,138,cs),
(197,138,o),
(106,196,o),
(78,255,c),
(46,212,o),
(35,173,o),
(35,133,cs),
(35,47,o),
(89,-25,o),
(330,-25,cs)
);
},
{
closed = 1;
nodes = (
(299,744,o),
(337,747,o),
(378,756,c),
(378,804,o),
(403,863,o),
(438,906,c),
(464,906,l),
(461,878,o),
(457,850,o),
(457,826,cs),
(457,778,o),
(474,744,o),
(553,744,cs),
(578,744,o),
(601,746,o),
(624,752,c),
(616,766,o),
(610,785,o),
(610,808,cs),
(610,852,o),
(620,884,o),
(620,931,cs),
(620,958,o),
(565,968,o),
(503,968,cs),
(434,968,o),
(356,956,o),
(333,943,c),
(297,903,o),
(209,802,o),
(209,763,cs),
(209,752,o),
(224,744,o),
(266,744,c,{
name = hr00;
})
);
}
);
};
layerId = master01;
shapes = (
{
ref = S;
},
{
pos = (129,0);
ref = circumflexcomb.case;
}
);
width = 688;
}
);
unicode = 348;
},
{
glyphname = Scommaaccent;
lastChange = "2023-03-01 10:33:03 +0000";
layers = (
{
background = {
shapes = (
{
closed = 1;
nodes = (
(510,-25,o),
(651,55,o),
(651,200,cs),
(651,326,o),
(547,406,o),
(281,471,c),
(294,525,o),
(347,559,o),
(394,559,c),
(416,498,o),
(480,462,o),
(539,462,cs),
(612,462,o),
(678,506,o),
(678,592,cs),
(678,691,o),
(583,725,o),
(414,725,cs,{
name = hr00;
}),
(296,725,o),
(72,660,o),
(72,469,cs),
(72,340,o),
(185,236,o),
(412,206,c),
(392,159,o),
(345,138,o),
(276,138,cs),
(197,138,o),
(106,196,o),
(78,255,c),
(46,212,o),
(35,173,o),
(35,133,cs),
(35,47,o),
(89,-25,o),
(330,-25,cs)
);
},
{
closed = 1;
nodes = (
(327,-394,o),
(416,-287,o),
(416,-164,cs),
(416,-110,o),
(381,-60,o),
(320,-60,cs,{
name = hr01;
}),
(259,-60,o),
(207,-111,o),
(204,-168,c),
(267,-249,l),
(267,-293,o),
(231,-356,o),
(172,-384,c),
(185,-424,l)
);
}
);
};
layerId = master01;
shapes = (
{
ref = S;
},
{
pos = (121,0);
ref = commaaccentcomb;
}
);
width = 688;
}
);
unicode = 536;
},
{
glyphname = T;
lastChange = "2023-03-01 10:33:29 +0000";
layers = (
{
anchors = (
{
name = bottom;
pos = (238,0);
},
{
name = center;
pos = (298,355);
},
{
name = top;
pos = (348,710);
}
);
background = {
shapes = (
{
closed = 1;
nodes = (
(13,539,o),
(13,512,o),
(21,487,c),
(69,499,o),
(165,515,o),
(211,521,c),
(174,315,o),
(153,193,o),
(153,129,cs),
(153,25,o),
(185,-26,o),
(275,-26,cs),
(318,-26,o),
(358,-12,o),
(399,19,c),
(379,51,o),
(369,96,o),
(369,164,cs),
(369,212,o),
(401,366,o),
(424,487,c),
(439,486,o),
(455,485,o),
(472,485,cs),
(562,485,o),
(637,534,o),
(637,648,cs),
(637,661,o),
(637,687,o),
(629,713,c),
(583,699,o),
(516,683,o),
(467,674,c),
(361,677,o),
(264,715,o),
(162,715,cs),
(82,715,o),
(13,666,o),
(13,552,cs,{
name = hr00;
})
);
}
);
};
layerId = master01;
shapes = (
{
closed = 1;
nodes = (
(318,-26,o),
(358,-12,o),
(399,19,c),
(379,51,o),
(369,96,o),
(369,164,cs),
(369,212,o),
(401,366,o),
(424,487,c),
(439,486,o),
(455,485,o),
(472,485,cs),
(562,485,o),
(637,534,o),
(637,648,cs),
(637,661,o),
(637,687,o),
(629,713,c),
(583,699,o),
(516,683,o),
(467,674,c),
(361,677,o),
(264,715,o),
(162,715,cs),
(82,715,o),
(13,666,o),
(13,552,cs,{
name = hr00;
}),
(13,539,o),
(13,512,o),
(21,487,c),
(69,499,o),
(165,515,o),
(211,521,c),
(174,315,o),
(153,193,o),
(153,129,cs),
(153,25,o),
(185,-26,o),
(275,-26,cs)
);
}
);
width = 595;
}
);
unicode = 84;
},
{
glyphname = Tbar;
lastChange = "2023-03-01 10:33:12 +0000";
layers = (
{
background = {
shapes = (
{
closed = 1;
nodes = (
(318,-26,o),
(358,-12,o),
(399,19,c),
(379,51,o),
(369,96,o),
(369,164,cs),
(369,212,o),
(401,366,o),
(424,487,c),
(439,486,o),
(455,485,o),
(472,485,cs),
(562,485,o),
(637,534,o),
(637,648,cs),
(637,661,o),
(637,687,o),
(629,713,c),
(583,699,o),
(516,683,o),
(467,674,c),
(361,677,o),
(264,715,o),
(162,715,cs),
(82,715,o),
(13,666,o),
(13,552,cs,{
name = hr00;
}),
(13,539,o),
(13,512,o),
(21,487,c),
(69,499,o),
(165,515,o),
(211,521,c),
(174,315,o),
(153,193,o),
(153,129,cs),
(153,25,o),
(185,-26,o),
(275,-26,cs)
);
},
{
closed = 1;
nodes = (
(200,176,o),
(289,243,o),
(393,243,c),
(426,243,o),
(462,237,o),
(495,222,c),
(517,249,o),
(529,279,o),
(529,303,cs),
(529,349,o),
(493,366,o),
(446,366,cs),
(354,366,o),
(275,305,o),
(179,305,cs,{
name = hr01;
}),
(147,305,o),
(111,309,o),
(79,320,c),
(57,292,o),
(44,257,o),
(44,232,cs),
(44,189,o),
(66,176,o),
(98,176,cs)
);
}
);
};
layerId = master01;
shapes = (
{
closed = 1;
nodes = (
(200,176,o),
(289,243,o),
(393,243,c),
(426,243,o),
(462,237,o),
(495,222,c),
(517,249,o),
(529,279,o),
(529,303,cs),
(529,349,o),
(493,366,o),
(446,366,cs),
(354,366,o),
(275,305,o),
(179,305,cs,{
name = hr01;
}),
(147,305,o),
(111,309,o),
(79,320,c),
(57,292,o),
(44,257,o),
(44,232,cs),
(44,189,o),
(66,176,o),
(98,176,cs)
);
},
{
alignment = -1;
ref = T;
}
);
width = 595;
}
);
unicode = 358;
},
{
glyphname = Tcaron;
lastChange = "2023-03-01 10:33:23 +0000";
layers = (
{
background = {
shapes = (
{
closed = 1;
nodes = (
(318,-26,o),
(358,-12,o),
(399,19,c),
(379,51,o),
(369,96,o),
(369,164,cs),
(369,212,o),
(401,366,o),
(424,487,c),
(439,486,o),
(455,485,o),
(472,485,cs),
(562,485,o),
(637,534,o),
(637,648,cs),
(637,661,o),
(637,687,o),
(629,713,c),
(583,699,o),
(516,683,o),
(467,674,c),
(361,677,o),
(264,715,o),
(162,715,cs),
(82,715,o),
(13,666,o),
(13,552,cs,{
name = hr00;
}),
(13,539,o),
(13,512,o),
(21,487,c),
(69,499,o),
(165,515,o),
(211,521,c),
(174,315,o),
(153,193,o),
(153,129,cs),
(153,25,o),
(185,-26,o),
(275,-26,cs)
);
},
{
closed = 1;
nodes = (
(398,734,o),
(457,745,o),
(490,761,c,{
name = hr00;
}),
(524,799,o),
(598,873,o),
(598,919,cs),
(598,942,o),
(578,958,o),
(521,958,cs),
(483,958,o),
(451,950,o),
(425,940,c),
(426,928,o),
(427,916,o),
(427,905,cs),
(427,863,o),
(408,819,o),
(386,796,c),
(356,796,l),
(361,827,o),
(367,860,o),
(367,883,cs),
(367,940,o),
(334,958,o),
(286,958,cs),
(253,958,o),
(217,949,o),
(192,939,c),
(209,927,o),
(223,908,o),
(223,874,cs),
(223,791,ls),
(223,750,o),
(277,734,o),
(343,734,cs)
);
}
);
};
layerId = master01;
shapes = (
{
ref = T;
},
{
pos = (97,0);
ref = caroncomb.case;
}
);
width = 595;
}
);
unicode = 356;
},
{
glyphname = Tcedilla;
lastChange = "2023-03-01 10:33:29 +0000";
layers = (
{
background = {
shapes = (
{
closed = 1;
nodes = (
(318,-26,o),
(358,-12,o),
(399,19,c),
(379,51,o),
(369,96,o),
(369,164,cs),
(369,212,o),
(401,366,o),
(424,487,c),
(439,486,o),
(455,485,o),
(472,485,cs),
(562,485,o),
(637,534,o),
(637,648,cs),
(637,661,o),
(637,687,o),
(629,713,c),
(583,699,o),
(516,683,o),
(467,674,c),
(361,677,o),
(264,715,o),
(162,715,cs),
(82,715,o),
(13,666,o),
(13,552,cs,{
name = hr00;
}),
(13,539,o),
(13,512,o),
(21,487,c),
(69,499,o),
(165,515,o),
(211,521,c),
(174,315,o),
(153,193,o),
(153,129,cs),
(153,25,o),
(185,-26,o),
(275,-26,cs)
);
},
{
closed = 1;
nodes = (
(342,-287,o),
(417,-196,o),
(417,-111,cs),
(417,-39,o),
(362,28,o),
(243,28,cs),
(205,28,l),
(205,17,l),
(266,-8,o),
(294,-55,o),
(294,-97,cs,{
name = hr00;
}),
(294,-155,o),
(251,-188,o),
(214,-188,cs),
(187,-188,o),
(163,-170,o),
(163,-130,cs),
(163,-104,o),
(174,-75,o),
(191,-60,c),
(112,-60,o),
(57,-115,o),
(57,-180,cs),
(57,-228,o),
(95,-287,o),
(207,-287,cs)
);
}
);
};
layerId = master01;
shapes = (
{
ref = T;
},
{
pos = (-13,0);
ref = cedillacomb;
}
);
width = 595;
}
);
unicode = 354;
},
{
glyphname = Tcommaaccent;
lastChange = "2023-03-01 10:33:29 +0000";
layers = (
{
background = {
shapes = (
{
closed = 1;
nodes = (
(318,-26,o),
(358,-12,o),
(399,19,c),
(379,51,o),
(369,96,o),
(369,164,cs),
(369,212,o),
(401,366,o),
(424,487,c),
(439,486,o),
(455,485,o),
(472,485,cs),
(562,485,o),
(637,534,o),
(637,648,cs),
(637,661,o),
(637,687,o),
(629,713,c),
(583,699,o),
(516,683,o),
(467,674,c),
(361,677,o),
(264,715,o),
(162,715,cs),
(82,715,o),
(13,666,o),
(13,552,cs,{
name = hr00;
}),
(13,539,o),
(13,512,o),
(21,487,c),
(69,499,o),
(165,515,o),
(211,521,c),
(174,315,o),
(153,193,o),
(153,129,cs),
(153,25,o),
(185,-26,o),
(275,-26,cs)
);
},
{
closed = 1;
nodes = (
(260,-394,o),
(349,-287,o),
(349,-164,cs),
(349,-110,o),
(314,-60,o),
(253,-60,cs,{
name = hr01;
}),
(192,-60,o),
(140,-111,o),
(137,-168,c),
(200,-249,l),
(200,-293,o),
(164,-356,o),
(105,-384,c),
(118,-424,l)
);
}
);
};
layerId = master01;
shapes = (
{
ref = T;
},
{
pos = (88,0);
ref = commaaccentcomb;
}
);
width = 595;
}
);
unicode = 538;
},
{
glyphname = U;
lastChange = "2023-03-01 10:33:54 +0000";
layers = (
{
anchors = (
{
name = bottom;
pos = (414,0);
},
{
name = ogonek;
pos = (802,22);
},
{
name = top;
pos = (498,710);
},
{
name = topright;
pos = (807,710);
}
);
background = {
shapes = (
{
closed = 1;
nodes = (
(664,-26,o),
(704,-12,o),
(745,19,c),
(725,51,o),
(715,96,o),
(715,164,cs),
(715,224,o),
(776,527,o),
(807,706,c),
(779,721,o),
(744,725,o),
(714,725,cs),
(567,725,o),
(494,592,o),
(494,447,cs),
(494,405,o),
(501,362,o),
(515,321,c),
(469,193,o),
(388,130,o),
(341,130,cs),
(302,130,o),
(287,159,o),
(287,209,cs),
(287,268,o),
(354,581,o),
(354,632,cs),
(354,684,o),
(340,725,o),
(277,725,cs),
(205,725,o),
(144,695,o),
(71,653,c),
(124,546,l),
(98,394,o),
(65,221,o),
(65,145,cs),
(65,38,o),
(114,-25,o),
(226,-25,cs,{
name = hr01;
}),
(338,-25,o),
(426,24,o),
(492,123,c),
(502,120,l),
(501,111,o),
(501,102,o),
(501,94,cs),
(501,10,o),
(557,-26,o),
(621,-26,cs)
);
}
);
};
layerId = master01;
shapes = (
{
closed = 1;
nodes = (
(664,-26,o),
(704,-12,o),
(745,19,c),
(725,51,o),
(715,96,o),
(715,164,cs),
(715,224,o),
(776,527,o),
(807,706,c),
(779,721,o),
(744,725,o),
(714,725,cs),
(567,725,o),
(494,592,o),
(494,447,cs),
(494,405,o),
(501,362,o),
(515,321,c),
(469,193,o),
(388,130,o),
(341,130,cs),
(302,130,o),
(287,159,o),
(287,209,cs),
(287,268,o),
(354,581,o),
(354,632,cs),
(354,684,o),
(340,725,o),
(277,725,cs),
(205,725,o),
(144,695,o),
(71,653,c),
(124,546,l),
(98,394,o),
(65,221,o),
(65,145,cs),
(65,38,o),
(114,-25,o),
(226,-25,cs,{
name = hr01;
}),
(338,-25,o),
(426,24,o),
(492,123,c),
(502,120,l),
(501,111,o),
(501,102,o),
(501,94,cs),
(501,10,o),
(557,-26,o),
(621,-26,cs)
);
}
);
width = 827;
}
);
unicode = 85;
},
{
glyphname = Uacute;
lastChange = "2023-03-01 10:33:45 +0000";
layers = (
{
background = {
shapes = (
{
closed = 1;
nodes = (
(664,-26,o),
(704,-12,o),
(745,19,c),
(725,51,o),
(715,96,o),
(715,164,cs),
(715,224,o),
(776,527,o),
(807,706,c),
(779,721,o),
(744,725,o),
(714,725,cs),
(567,725,o),
(494,592,o),
(494,447,cs),
(494,405,o),
(501,362,o),
(515,321,c),
(469,193,o),
(388,130,o),
(341,130,cs),
(302,130,o),
(287,159,o),
(287,209,cs),
(287,268,o),
(354,581,o),
(354,632,cs),
(354,684,o),
(340,725,o),
(277,725,cs),
(205,725,o),
(144,695,o),
(71,653,c),
(124,546,l),
(98,394,o),
(65,221,o),
(65,145,cs),
(65,38,o),
(114,-25,o),
(226,-25,cs,{
name = hr01;
}),
(338,-25,o),
(426,24,o),
(492,123,c),
(502,120,l),
(501,111,o),
(501,102,o),
(501,94,cs),
(501,10,o),
(557,-26,o),
(621,-26,cs)
);
},
{
closed = 1;
nodes = (
(501,753,o),
(571,820,o),
(662,820,cs),
(669,820,o),
(678,819,o),
(685,818,c),
(692,842,o),
(695,868,o),
(695,891,cs),
(695,963,o),
(669,986,o),
(639,986,cs),
(551,986,o),
(464,854,o),
(359,829,c),
(363,773,o),
(388,753,o),
(415,753,c,{
name = hr00;
})
);
}
);
};
layerId = master01;
shapes = (
{
ref = U;
},
{
pos = (260,0);
ref = acutecomb.case;
}
);
width = 827;
}
);
unicode = 218;
},
{
glyphname = Ubreve;
lastChange = "2023-03-01 10:33:45 +0000";
layers = (
{
background = {
shapes = (
{
closed = 1;
nodes = (
(664,-26,o),
(704,-12,o),
(745,19,c),
(725,51,o),
(715,96,o),
(715,164,cs),
(715,224,o),
(776,527,o),
(807,706,c),
(779,721,o),
(744,725,o),
(714,725,cs),
(567,725,o),
(494,592,o),
(494,447,cs),
(494,405,o),
(501,362,o),
(515,321,c),
(469,193,o),
(388,130,o),
(341,130,cs),
(302,130,o),
(287,159,o),
(287,209,cs),
(287,268,o),
(354,581,o),
(354,632,cs),
(354,684,o),
(340,725,o),
(277,725,cs),
(205,725,o),
(144,695,o),
(71,653,c),
(124,546,l),
(98,394,o),
(65,221,o),
(65,145,cs),
(65,38,o),
(114,-25,o),
(226,-25,cs,{
name = hr01;
}),
(338,-25,o),
(426,24,o),
(492,123,c),
(502,120,l),
(501,111,o),
(501,102,o),
(501,94,cs),
(501,10,o),
(557,-26,o),
(621,-26,cs)
);
},
{
closed = 1;
nodes = (
(551,762,o),
(677,811,o),
(677,930,cs),
(677,945,o),
(675,961,o),
(672,978,c),
(623,927,o),
(551,896,o),
(485,896,cs),
(417,896,o),
(364,910,o),
(323,958,c),
(315,930,o),
(313,907,o),
(313,883,cs),
(313,797,o),
(369,762,o),
(449,762,cs,{
name = hr00;
})
);
}
);
};
layerId = master01;
shapes = (
{
ref = U;
},
{
pos = (259,0);
ref = brevecomb.case;
}
);
width = 827;
}
);
unicode = 364;
},
{
glyphname = Ucircumflex;
lastChange = "2023-03-01 10:33:45 +0000";
layers = (
{
background = {
shapes = (
{
closed = 1;
nodes = (
(664,-26,o),
(704,-12,o),
(745,19,c),
(725,51,o),
(715,96,o),
(715,164,cs),
(715,224,o),
(776,527,o),
(807,706,c),
(779,721,o),
(744,725,o),
(714,725,cs),
(567,725,o),
(494,592,o),
(494,447,cs),
(494,405,o),
(501,362,o),
(515,321,c),
(469,193,o),
(388,130,o),
(341,130,cs),
(302,130,o),
(287,159,o),
(287,209,cs),
(287,268,o),
(354,581,o),
(354,632,cs),
(354,684,o),
(340,725,o),
(277,725,cs),
(205,725,o),
(144,695,o),
(71,653,c),
(124,546,l),
(98,394,o),
(65,221,o),
(65,145,cs),
(65,38,o),
(114,-25,o),
(226,-25,cs,{
name = hr01;
}),
(338,-25,o),
(426,24,o),
(492,123,c),
(502,120,l),
(501,111,o),
(501,102,o),
(501,94,cs),
(501,10,o),
(557,-26,o),
(621,-26,cs)
);
},
{
closed = 1;
nodes = (
(372,759,o),
(410,762,o),
(451,771,c),
(451,819,o),
(476,878,o),
(511,921,c),
(537,921,l),
(534,893,o),
(530,865,o),
(530,841,cs),
(530,793,o),
(547,759,o),
(626,759,cs),
(651,759,o),
(674,761,o),
(697,767,c),
(689,781,o),
(683,800,o),
(683,823,cs),
(683,867,o),
(693,899,o),
(693,946,cs),
(693,973,o),
(638,983,o),
(576,983,cs),
(507,983,o),
(429,971,o),
(406,958,c),
(370,918,o),
(282,817,o),
(282,778,cs),
(282,767,o),
(297,759,o),
(339,759,c,{
name = hr00;
})
);
}
);
};
layerId = master01;
shapes = (
{
ref = U;
},
{
pos = (210,0);
ref = circumflexcomb.case;
}
);
width = 827;
}
);
unicode = 219;
},
{
glyphname = Udieresis;
lastChange = "2023-03-01 10:33:45 +0000";
layers = (
{
background = {
shapes = (
{
closed = 1;
nodes = (
(664,-26,o),
(704,-12,o),
(745,19,c),
(725,51,o),
(715,96,o),
(715,164,cs),
(715,224,o),
(776,527,o),
(807,706,c),
(779,721,o),
(744,725,o),
(714,725,cs),
(567,725,o),
(494,592,o),
(494,447,cs),
(494,405,o),
(501,362,o),
(515,321,c),
(469,193,o),
(388,130,o),
(341,130,cs),
(302,130,o),
(287,159,o),
(287,209,cs),
(287,268,o),
(354,581,o),
(354,632,cs),
(354,684,o),
(340,725,o),
(277,725,cs),
(205,725,o),
(144,695,o),
(71,653,c),
(124,546,l),
(98,394,o),
(65,221,o),
(65,145,cs),
(65,38,o),
(114,-25,o),
(226,-25,cs,{
name = hr01;
}),
(338,-25,o),
(426,24,o),
(492,123,c),
(502,120,l),
(501,111,o),
(501,102,o),
(501,94,cs),
(501,10,o),
(557,-26,o),
(621,-26,cs)
);
},
{
closed = 1;
nodes = (
(720,771,o),
(779,813,o),
(779,878,cs),
(779,925,o),
(739,954,o),
(685,954,cs),
(632,954,o),
(560,920,o),
(560,846,cs),
(560,799,o),
(600,771,o),
(654,771,cs,{
name = hr00;
})
);
},
{
closed = 1;
nodes = (
(419,771,o),
(478,813,o),
(478,878,cs),
(478,925,o),
(438,954,o),
(384,954,cs),
(331,954,o),
(259,920,o),
(259,846,cs),
(259,799,o),
(299,771,o),
(353,771,cs)
);
}
);
};
layerId = master01;
shapes = (
{
ref = U;
},
{
pos = (152,0);
ref = dieresiscomb.case;
}
);
width = 827;
}
);
unicode = 220;
},
{
glyphname = Ugrave;
lastChange = "2023-03-01 10:33:45 +0000";
layers = (
{
background = {
shapes = (
{
closed = 1;
nodes = (
(664,-26,o),
(704,-12,o),
(745,19,c),
(725,51,o),
(715,96,o),
(715,164,cs),
(715,224,o),
(776,527,o),
(807,706,c),
(779,721,o),
(744,725,o),
(714,725,cs),
(567,725,o),
(494,592,o),
(494,447,cs),
(494,405,o),
(501,362,o),
(515,321,c),
(469,193,o),
(388,130,o),
(341,130,cs),
(302,130,o),
(287,159,o),
(287,209,cs),
(287,268,o),
(354,581,o),
(354,632,cs),
(354,684,o),
(340,725,o),
(277,725,cs),
(205,725,o),
(144,695,o),
(71,653,c),
(124,546,l),
(98,394,o),
(65,221,o),
(65,145,cs),
(65,38,o),
(114,-25,o),
(226,-25,cs,{
name = hr01;
}),
(338,-25,o),
(426,24,o),
(492,123,c),
(502,120,l),
(501,111,o),
(501,102,o),
(501,94,cs),
(501,10,o),
(557,-26,o),
(621,-26,cs)
);
},
{
closed = 1;
nodes = (
(641,753,o),
(666,773,o),
(670,829,c),
(565,854,o),
(478,986,o),
(390,986,cs),
(360,986,o),
(334,963,o),
(334,891,cs),
(334,868,o),
(337,842,o),
(344,818,c),
(351,819,o),
(360,820,o),
(367,820,cs),
(458,820,o),
(528,753,o),
(614,753,c,{
name = hr00;
})
);
}
);
};
layerId = master01;
shapes = (
{
ref = U;
},
{
pos = (310,0);
ref = gravecomb.case;
}
);
width = 827;
}
);
unicode = 217;
},
{
glyphname = Uhungarumlaut;
lastChange = "2023-03-01 10:33:45 +0000";
layers = (
{
background = {
shapes = (
{
closed = 1;
nodes = (
(664,-26,o),
(704,-12,o),
(745,19,c),
(725,51,o),
(715,96,o),
(715,164,cs),
(715,224,o),
(776,527,o),
(807,706,c),
(779,721,o),
(744,725,o),
(714,725,cs),
(567,725,o),
(494,592,o),
(494,447,cs),
(494,405,o),
(501,362,o),
(515,321,c),
(469,193,o),
(388,130,o),
(341,130,cs),
(302,130,o),
(287,159,o),
(287,209,cs),
(287,268,o),
(354,581,o),
(354,632,cs),
(354,684,o),
(340,725,o),
(277,725,cs),
(205,725,o),
(144,695,o),
(71,653,c),
(124,546,l),
(98,394,o),
(65,221,o),
(65,145,cs),
(65,38,o),
(114,-25,o),
(226,-25,cs,{
name = hr01;
}),
(338,-25,o),
(426,24,o),
(492,123,c),
(502,120,l),
(501,111,o),
(501,102,o),
(501,94,cs),
(501,10,o),
(557,-26,o),
(621,-26,cs)
);
},
{
closed = 1;
nodes = (
(658,748,o),
(745,870,o),
(820,870,c),
(820,987,o),
(761,1002,o),
(730,1002,cs),
(631,1002,o),
(587,859,o),
(495,827,c),
(515,769,o),
(543,748,o),
(572,748,cs)
);
},
{
closed = 1;
nodes = (
(327,748,o),
(414,870,o),
(489,870,c,{
name = hr00;
}),
(489,987,o),
(430,1002,o),
(399,1002,cs),
(300,1002,o),
(256,859,o),
(164,827,c),
(184,769,o),
(212,748,o),
(241,748,cs)
);
}
);
};
layerId = master01;
shapes = (
{
ref = U;
},
{
pos = (103,0);
ref = hungarumlautcomb.case;
}
);
width = 827;
}
);
unicode = 368;
},
{
glyphname = Umacron;
lastChange = "2023-03-01 10:33:45 +0000";
layers = (
{
background = {
shapes = (
{
closed = 1;
nodes = (
(664,-26,o),
(704,-12,o),
(745,19,c),
(725,51,o),
(715,96,o),
(715,164,cs),
(715,224,o),
(776,527,o),
(807,706,c),
(779,721,o),
(744,725,o),
(714,725,cs),
(567,725,o),
(494,592,o),
(494,447,cs),
(494,405,o),
(501,362,o),
(515,321,c),
(469,193,o),
(388,130,o),
(341,130,cs),
(302,130,o),
(287,159,o),
(287,209,cs),
(287,268,o),
(354,581,o),
(354,632,cs),
(354,684,o),
(340,725,o),
(277,725,cs),
(205,725,o),
(144,695,o),
(71,653,c),
(124,546,l),
(98,394,o),
(65,221,o),
(65,145,cs),
(65,38,o),
(114,-25,o),
(226,-25,cs,{
name = hr01;
}),
(338,-25,o),
(426,24,o),
(492,123,c),
(502,120,l),
(501,111,o),
(501,102,o),
(501,94,cs),
(501,10,o),
(557,-26,o),
(621,-26,cs)
);
},
{
closed = 1;
nodes = (
(415,785,o),
(511,809,o),
(590,809,cs),
(610,809,o),
(650,805,o),
(666,795,c),
(677,819,o),
(680,844,o),
(680,867,cs),
(680,919,o),
(654,938,o),
(609,938,cs),
(539,938,o),
(472,932,o),
(408,932,cs),
(393,932,o),
(354,935,o),
(334,944,c,{
name = hr01;
}),
(317,909,o),
(305,879,o),
(305,838,cs),
(305,797,o),
(321,785,o),
(340,785,c)
);
}
);
};
layerId = master01;
shapes = (
{
ref = U;
},
{
pos = (220,0);
ref = macroncomb.case;
}
);
width = 827;
}
);
unicode = 362;
},
{
glyphname = Uogonek;
lastChange = "2023-03-01 10:33:54 +0000";
layers = (
{
background = {
shapes = (
{
closed = 1;
nodes = (
(664,-26,o),
(704,-12,o),
(745,19,c),
(725,51,o),
(715,96,o),
(715,164,cs),
(715,224,o),
(776,527,o),
(807,706,c),
(779,721,o),
(744,725,o),
(714,725,cs),
(567,725,o),
(494,592,o),
(494,447,cs),
(494,405,o),
(501,362,o),
(515,321,c),
(469,193,o),
(388,130,o),
(341,130,cs),
(302,130,o),
(287,159,o),
(287,209,cs),
(287,268,o),
(354,581,o),
(354,632,cs),
(354,684,o),
(340,725,o),
(277,725,cs),
(205,725,o),
(144,695,o),
(71,653,c),
(124,546,l),
(98,394,o),
(65,221,o),
(65,145,cs),
(65,38,o),
(114,-25,o),
(226,-25,cs,{
name = hr01;
}),
(338,-25,o),
(426,24,o),
(492,123,c),
(502,120,l),
(501,111,o),
(501,102,o),
(501,94,cs),
(501,10,o),
(557,-26,o),
(621,-26,cs)
);
},
{
closed = 1;
nodes = (
(726,-285,o),
(802,-215,o),
(802,-153,cs),
(802,-117,o),
(778,-85,o),
(721,-70,c),
(724,-78,o),
(725,-87,o),
(725,-95,cs),
(725,-138,o),
(693,-186,o),
(645,-186,cs),
(616,-186,o),
(592,-167,o),
(592,-134,cs),
(592,-76,o),
(630,-26,o),
(724,6,c),
(724,22,l),
(672,22,l,{
name = hr00;
}),
(557,2,o),
(465,-82,o),
(465,-168,cs),
(465,-231,o),
(508,-285,o),
(611,-285,cs)
);
}
);
};
layerId = master01;
shapes = (
{
ref = U;
},
{
pos = (294,0);
ref = ogonekcomb;
}
);
width = 827;
}
);
unicode = 370;
},
{
glyphname = Uring;
lastChange = "2023-03-01 10:33:45 +0000";
layers = (
{
background = {
shapes = (
{
closed = 1;
nodes = (
(664,-26,o),
(704,-12,o),
(745,19,c),
(725,51,o),
(715,96,o),
(715,164,cs),
(715,224,o),
(776,527,o),
(807,706,c),
(779,721,o),
(744,725,o),
(714,725,cs),
(567,725,o),
(494,592,o),
(494,447,cs),
(494,405,o),
(501,362,o),
(515,321,c),
(469,193,o),
(388,130,o),
(341,130,cs),
(302,130,o),
(287,159,o),
(287,209,cs),
(287,268,o),
(354,581,o),
(354,632,cs),
(354,684,o),
(340,725,o),
(277,725,cs),
(205,725,o),
(144,695,o),
(71,653,c),
(124,546,l),
(98,394,o),
(65,221,o),
(65,145,cs),
(65,38,o),
(114,-25,o),
(226,-25,cs,{
name = hr01;
}),
(338,-25,o),
(426,24,o),
(492,123,c),
(502,120,l),
(501,111,o),
(501,102,o),
(501,94,cs),
(501,10,o),
(557,-26,o),
(621,-26,cs)
);
},
{
closed = 1;
nodes = (
(592,732,o),
(673,796,o),
(673,894,cs),
(673,968,o),
(615,1019,o),
(513,1019,cs),
(397,1019,o),
(316,954,o),
(316,857,cs),
(316,783,o),
(374,732,o),
(476,732,cs)
);
},
{
closed = 1;
nodes = (
(447,797,o),
(428,826,o),
(428,861,cs),
(428,889,o),
(439,923,o),
(463,950,c),
(473,951,o),
(479,952,o),
(489,952,cs),
(539,952,o),
(549,925,o),
(549,895,cs),
(549,844,o),
(516,797,o),
(478,797,cs,{
name = hr00;
})
);
}
);
};
layerId = master01;
shapes = (
{
ref = U;
},
{
pos = (257,0);
ref = ringcomb.case;
}
);
width = 827;
}
);
unicode = 366;
},
{
glyphname = Utilde;
lastChange = "2023-03-01 10:33:45 +0000";
layers = (
{
background = {
shapes = (
{
closed = 1;
nodes = (
(664,-26,o),
(704,-12,o),
(745,19,c),
(725,51,o),
(715,96,o),
(715,164,cs),
(715,224,o),
(776,527,o),
(807,706,c),
(779,721,o),
(744,725,o),
(714,725,cs),
(567,725,o),
(494,592,o),
(494,447,cs),
(494,405,o),
(501,362,o),
(515,321,c),
(469,193,o),
(388,130,o),
(341,130,cs),
(302,130,o),
(287,159,o),
(287,209,cs),
(287,268,o),
(354,581,o),
(354,632,cs),
(354,684,o),
(340,725,o),
(277,725,cs),
(205,725,o),
(144,695,o),
(71,653,c),
(124,546,l),
(98,394,o),
(65,221,o),
(65,145,cs),
(65,38,o),
(114,-25,o),
(226,-25,cs,{
name = hr01;
}),
(338,-25,o),
(426,24,o),
(492,123,c),
(502,120,l),
(501,111,o),
(501,102,o),
(501,94,cs),
(501,10,o),
(557,-26,o),
(621,-26,cs)
);
},
{
closed = 1;
nodes = (
(433,766,o),
(504,825,o),
(589,825,cs),
(616,825,o),
(644,819,o),
(672,805,c),
(689,842,o),
(699,881,o),
(699,910,cs,{
name = hr02;
}),
(699,958,o),
(672,973,o),
(635,973,cs),
(557,973,o),
(486,914,o),
(401,914,cs),
(374,914,o),
(346,920,o),
(318,934,c),
(301,897,o),
(291,858,o),
(291,829,cs,{
name = hr01;
}),
(291,781,o),
(318,766,o),
(355,766,cs)
);
}
);
};
layerId = master01;
shapes = (
{
ref = U;
},
{
pos = (224,0);
ref = tildecomb.case;
}
);
width = 827;
}
);
unicode = 360;
},
{
glyphname = V;
lastChange = "2023-03-01 10:27:04 +0000";
layers = (
{
anchors = (
{
name = bottom;
pos = (364,0);
},
{
name = top;
pos = (364,710);
}
);
background = {
shapes = (
{
closed = 1;
nodes = (
(119,10,o),
(169,-25,o),
(304,-25,cs),
(406,-25,o),
(510,17,o),
(567,63,c),
(553,118,l),
(604,238,o),
(738,488,o),
(738,612,cs),
(738,679,o),
(711,725,o),
(638,725,cs),
(591,725,o),
(549,708,o),
(498,673,c),
(504,659,o),
(509,642,o),
(509,619,cs),
(509,515,o),
(421,290,o),
(359,158,c),
(333,158,l),
(333,206,o),
(336,265,o),
(336,326,cs),
(336,515,o),
(318,725,o),
(156,725,cs),
(97,725,o),
(47,709,o),
(0,673,c),
(107,600,o),
(120,434,o),
(120,281,cs),
(120,231,o),
(119,180,o),
(119,97,cs,{
name = hr00;
})
);
}
);
};
layerId = master01;
shapes = (
{
closed = 1;
nodes = (
(406,-25,o),
(510,17,o),
(567,63,c),
(553,118,l),
(604,238,o),
(738,488,o),
(738,612,cs),
(738,679,o),
(711,725,o),
(638,725,cs),
(591,725,o),
(549,708,o),
(498,673,c),
(504,659,o),
(509,642,o),
(509,619,cs),
(509,515,o),
(421,290,o),
(359,158,c),
(333,158,l),
(333,206,o),
(336,265,o),
(336,326,cs),
(336,515,o),
(318,725,o),
(156,725,cs),
(97,725,o),
(47,709,o),
(0,673,c),
(107,600,o),
(120,434,o),
(120,281,cs),
(120,231,o),
(119,180,o),
(119,97,cs,{
name = hr00;
}),
(119,10,o),
(169,-25,o),
(304,-25,cs)
);
}
);
width = 728;
}
);
unicode = 86;
},
{
glyphname = W;
lastChange = "2023-03-01 10:33:59 +0000";
layers = (
{
anchors = (
{
name = bottom;
pos = (509,0);
},
{
name = top;
pos = (559,710);
}
);
background = {
shapes = (
{
closed = 1;
nodes = (
(119,10,o),
(169,-25,o),
(304,-25,cs),
(374,-25,o),
(431,-5,o),
(479,22,c),
(502,-10,o),
(549,-25,o),
(636,-25,cs),
(738,-25,o),
(805,10,o),
(857,63,c),
(843,118,l),
(894,238,o),
(1028,488,o),
(1028,612,cs),
(1028,679,o),
(1001,725,o),
(928,725,cs),
(881,725,o),
(839,708,o),
(788,673,c),
(794,659,o),
(799,642,o),
(799,619,cs),
(799,515,o),
(711,290,o),
(649,158,c),
(623,158,l),
(623,206,o),
(626,338,o),
(626,399,c),
(653,477,o),
(674,546,o),
(674,598,cs),
(674,661,o),
(643,699,o),
(554,699,cs),
(495,699,o),
(458,681,o),
(411,645,c),
(435,576,o),
(448,517,o),
(455,452,c),
(432,351,o),
(396,238,o),
(359,158,c),
(333,158,l),
(333,206,o),
(336,265,o),
(336,326,cs),
(336,515,o),
(318,725,o),
(156,725,cs),
(97,725,o),
(47,709,o),
(0,673,c),
(107,600,o),
(120,434,o),
(120,281,cs),
(120,231,o),
(119,180,o),
(119,97,cs,{
name = hr00;
})
);
}
);
};
layerId = master01;
shapes = (
{
closed = 1;
nodes = (
(374,-25,o),
(431,-5,o),
(479,22,c),
(502,-10,o),
(549,-25,o),
(636,-25,cs),
(738,-25,o),
(805,10,o),
(857,63,c),
(843,118,l),
(894,238,o),
(1028,488,o),
(1028,612,cs),
(1028,679,o),
(1001,725,o),
(928,725,cs),
(881,725,o),
(839,708,o),
(788,673,c),
(794,659,o),
(799,642,o),
(799,619,cs),
(799,515,o),
(711,290,o),
(649,158,c),
(623,158,l),
(623,206,o),
(626,338,o),
(626,399,c),
(653,477,o),
(674,546,o),
(674,598,cs),
(674,661,o),
(643,699,o),
(554,699,cs),
(495,699,o),
(458,681,o),
(411,645,c),
(435,576,o),
(448,517,o),
(455,452,c),
(432,351,o),
(396,238,o),
(359,158,c),
(333,158,l),
(333,206,o),
(336,265,o),
(336,326,cs),
(336,515,o),
(318,725,o),
(156,725,cs),
(97,725,o),
(47,709,o),
(0,673,c),
(107,600,o),
(120,434,o),
(120,281,cs),
(120,231,o),
(119,180,o),
(119,97,cs,{
name = hr00;
}),
(119,10,o),
(169,-25,o),
(304,-25,cs)
);
}
);
width = 1018;
}
);
unicode = 87;
},
{
glyphname = Wacute;
lastChange = "2023-03-01 10:33:59 +0000";
layers = (
{
background = {
shapes = (
{
closed = 1;
nodes = (
(374,-25,o),
(431,-5,o),
(479,22,c),
(502,-10,o),
(549,-25,o),
(636,-25,cs),
(738,-25,o),
(805,10,o),
(857,63,c),
(843,118,l),
(894,238,o),
(1028,488,o),
(1028,612,cs),
(1028,679,o),
(1001,725,o),
(928,725,cs),
(881,725,o),
(839,708,o),
(788,673,c),
(794,659,o),
(799,642,o),
(799,619,cs),
(799,515,o),
(711,290,o),
(649,158,c),
(623,158,l),
(623,206,o),
(626,338,o),
(626,399,c),
(653,477,o),
(674,546,o),
(674,598,cs),
(674,661,o),
(643,699,o),
(554,699,cs),
(495,699,o),
(458,681,o),
(411,645,c),
(435,576,o),
(448,517,o),
(455,452,c),
(432,351,o),
(396,238,o),
(359,158,c),
(333,158,l),
(333,206,o),
(336,265,o),
(336,326,cs),
(336,515,o),
(318,725,o),
(156,725,cs),
(97,725,o),
(47,709,o),
(0,673,c),
(107,600,o),
(120,434,o),
(120,281,cs),
(120,231,o),
(119,180,o),
(119,97,cs,{
name = hr00;
}),
(119,10,o),
(169,-25,o),
(304,-25,cs)
);
},
{
closed = 1;
nodes = (
(523,753,o),
(593,820,o),
(684,820,cs),
(691,820,o),
(700,819,o),
(707,818,c),
(714,842,o),
(717,868,o),
(717,891,cs),
(717,963,o),
(691,986,o),
(661,986,cs),
(573,986,o),
(486,854,o),
(381,829,c),
(385,773,o),
(410,753,o),
(437,753,cs,{
name = hr00;
})
);
}
);
};
layerId = master01;
shapes = (
{
ref = W;
},
{
pos = (321,0);
ref = acutecomb.case;
}
);
width = 1018;
}
);
unicode = 7810;
},
{
glyphname = Wcircumflex;
lastChange = "2023-03-01 10:33:59 +0000";
layers = (
{
background = {
shapes = (
{
closed = 1;
nodes = (
(374,-25,o),
(431,-5,o),
(479,22,c),
(502,-10,o),
(549,-25,o),
(636,-25,cs),
(738,-25,o),
(805,10,o),
(857,63,c),
(843,118,l),
(894,238,o),
(1028,488,o),
(1028,612,cs),
(1028,679,o),
(1001,725,o),
(928,725,cs),
(881,725,o),
(839,708,o),
(788,673,c),
(794,659,o),
(799,642,o),
(799,619,cs),
(799,515,o),
(711,290,o),
(649,158,c),
(623,158,l),
(623,206,o),
(626,338,o),
(626,399,c),
(653,477,o),
(674,546,o),
(674,598,cs),
(674,661,o),
(643,699,o),
(554,699,cs),
(495,699,o),
(458,681,o),
(411,645,c),
(435,576,o),
(448,517,o),
(455,452,c),
(432,351,o),
(396,238,o),
(359,158,c),
(333,158,l),
(333,206,o),
(336,265,o),
(336,326,cs),
(336,515,o),
(318,725,o),
(156,725,cs),
(97,725,o),
(47,709,o),
(0,673,c),
(107,600,o),
(120,434,o),
(120,281,cs),
(120,231,o),
(119,180,o),
(119,97,cs,{
name = hr00;
}),
(119,10,o),
(169,-25,o),
(304,-25,cs)
);
},
{
closed = 1;
nodes = (
(442,744,o),
(480,747,o),
(521,756,c),
(521,804,o),
(546,863,o),
(581,906,c),
(607,906,l),
(604,878,o),
(600,850,o),
(600,826,cs),
(600,778,o),
(617,744,o),
(696,744,cs),
(721,744,o),
(744,746,o),
(767,752,c),
(759,766,o),
(753,785,o),
(753,808,cs),
(753,852,o),
(763,884,o),
(763,931,cs),
(763,958,o),
(708,968,o),
(646,968,cs),
(577,968,o),
(499,956,o),
(476,943,c),
(440,903,o),
(352,802,o),
(352,763,cs),
(352,752,o),
(367,744,o),
(409,744,c,{
name = hr00;
})
);
}
);
};
layerId = master01;
shapes = (
{
ref = W;
},
{
pos = (271,0);
ref = circumflexcomb.case;
}
);
width = 1018;
}
);
unicode = 372;
},
{
glyphname = Wdieresis;
lastChange = "2023-03-01 10:33:59 +0000";
layers = (
{
background = {
shapes = (
{
closed = 1;
nodes = (
(374,-25,o),
(431,-5,o),
(479,22,c),
(502,-10,o),
(549,-25,o),
(636,-25,cs),
(738,-25,o),
(805,10,o),
(857,63,c),
(843,118,l),
(894,238,o),
(1028,488,o),
(1028,612,cs),
(1028,679,o),
(1001,725,o),
(928,725,cs),
(881,725,o),
(839,708,o),
(788,673,c),
(794,659,o),
(799,642,o),
(799,619,cs),
(799,515,o),
(711,290,o),
(649,158,c),
(623,158,l),
(623,206,o),
(626,338,o),
(626,399,c),
(653,477,o),
(674,546,o),
(674,598,cs),
(674,661,o),
(643,699,o),
(554,699,cs),
(495,699,o),
(458,681,o),
(411,645,c),
(435,576,o),
(448,517,o),
(455,452,c),
(432,351,o),
(396,238,o),
(359,158,c),
(333,158,l),
(333,206,o),
(336,265,o),
(336,326,cs),
(336,515,o),
(318,725,o),
(156,725,cs),
(97,725,o),
(47,709,o),
(0,673,c),
(107,600,o),
(120,434,o),
(120,281,cs),
(120,231,o),
(119,180,o),
(119,97,cs,{
name = hr00;
}),
(119,10,o),
(169,-25,o),
(304,-25,cs)
);
},
{
closed = 1;
nodes = (
(760,766,o),
(819,808,o),
(819,873,cs),
(819,920,o),
(779,949,o),
(725,949,cs),
(672,949,o),
(600,915,o),
(600,841,cs),
(600,794,o),
(640,766,o),
(694,766,cs,{
name = hr00;
})
);
},
{
closed = 1;
nodes = (
(459,766,o),
(518,808,o),
(518,873,cs),
(518,920,o),
(478,949,o),
(424,949,cs),
(371,949,o),
(299,915,o),
(299,841,cs),
(299,794,o),
(339,766,o),
(393,766,cs)
);
}
);
};
layerId = master01;
shapes = (
{
ref = W;
},
{
pos = (213,0);
ref = dieresiscomb.case;
}
);
width = 1018;
}
);
unicode = 7812;
},
{
glyphname = Wgrave;
lastChange = "2023-03-01 10:33:59 +0000";
layers = (
{
background = {
shapes = (
{
closed = 1;
nodes = (
(374,-25,o),
(431,-5,o),
(479,22,c),
(502,-10,o),
(549,-25,o),
(636,-25,cs),
(738,-25,o),
(805,10,o),
(857,63,c),
(843,118,l),
(894,238,o),
(1028,488,o),
(1028,612,cs),
(1028,679,o),
(1001,725,o),
(928,725,cs),
(881,725,o),
(839,708,o),
(788,673,c),
(794,659,o),
(799,642,o),
(799,619,cs),
(799,515,o),
(711,290,o),
(649,158,c),
(623,158,l),
(623,206,o),
(626,338,o),
(626,399,c),
(653,477,o),
(674,546,o),
(674,598,cs),
(674,661,o),
(643,699,o),
(554,699,cs),
(495,699,o),
(458,681,o),
(411,645,c),
(435,576,o),
(448,517,o),
(455,452,c),
(432,351,o),
(396,238,o),
(359,158,c),
(333,158,l),
(333,206,o),
(336,265,o),
(336,326,cs),
(336,515,o),
(318,725,o),
(156,725,cs),
(97,725,o),
(47,709,o),
(0,673,c),
(107,600,o),
(120,434,o),
(120,281,cs),
(120,231,o),
(119,180,o),
(119,97,cs,{
name = hr00;
}),
(119,10,o),
(169,-25,o),
(304,-25,cs)
);
},
{
closed = 1;
nodes = (
(698,753,o),
(723,773,o),
(727,829,c),
(622,854,o),
(535,986,o),
(447,986,cs),
(417,986,o),
(391,963,o),
(391,891,cs),
(391,868,o),
(394,842,o),
(401,818,c),
(408,819,o),
(417,820,o),
(424,820,cs),
(515,820,o),
(585,753,o),
(671,753,c,{
name = hr00;
})
);
}
);
};
layerId = master01;
shapes = (
{
ref = W;
},
{
pos = (371,0);
ref = gravecomb.case;
}
);
width = 1018;
}
);
unicode = 7808;
},
{
glyphname = X;
lastChange = "2023-03-01 10:27:04 +0000";
layers = (
{
anchors = (
{
name = bottom;
pos = (375,0);
},
{
name = top;
pos = (375,710);
}
);
background = {
shapes = (
{
closed = 1;
nodes = (
(611,-25,o),
(675,-6,o),
(725,46,c),
(662,67,o),
(628,121,o),
(603,169,cs),
(516,331,l),
(683,453,o),
(754,550,o),
(754,631,cs),
(754,679,o),
(725,725,o),
(650,725,cs),
(603,725,o),
(553,708,o),
(501,673,c),
(507,658,o),
(511,641,o),
(511,618,cs),
(511,569,o),
(483,520,o),
(441,472,c),
(400,550,ls),
(327,687,o),
(290,725,o),
(199,725,cs),
(152,725,o),
(88,706,o),
(38,654,c),
(101,633,o),
(135,579,o),
(160,531,cs),
(249,363,l),
(85,243,o),
(10,148,o),
(10,69,cs),
(10,21,o),
(38,-25,o),
(114,-25,cs),
(161,-25,o),
(211,-8,o),
(262,27,c),
(256,42,o),
(253,59,o),
(253,82,cs),
(253,130,o),
(280,179,o),
(321,228,c),
(363,150,ls),
(436,13,o),
(473,-25,o),
(564,-25,cs,{
name = hr00;
})
);
}
);
};
layerId = master01;
shapes = (
{
closed = 1;
nodes = (
(161,-25,o),
(211,-8,o),
(262,27,c),
(256,42,o),
(253,59,o),
(253,82,cs),
(253,130,o),
(280,179,o),
(321,228,c),
(363,150,ls),
(436,13,o),
(473,-25,o),
(564,-25,cs,{
name = hr00;
}),
(611,-25,o),
(675,-6,o),
(725,46,c),
(662,67,o),
(628,121,o),
(603,169,cs),
(516,331,l),
(683,453,o),
(754,550,o),
(754,631,cs),
(754,679,o),
(725,725,o),
(650,725,cs),
(603,725,o),
(553,708,o),
(501,673,c),
(507,658,o),
(511,641,o),
(511,618,cs),
(511,569,o),
(483,520,o),
(441,472,c),
(400,550,ls),
(327,687,o),
(290,725,o),
(199,725,cs),
(152,725,o),
(88,706,o),
(38,654,c),
(101,633,o),
(135,579,o),
(160,531,cs),
(249,363,l),
(85,243,o),
(10,148,o),
(10,69,cs),
(10,21,o),
(38,-25,o),
(114,-25,cs)
);
}
);
width = 749;
}
);
unicode = 88;
},
{
glyphname = Y;
lastChange = "2023-03-01 10:34:03 +0000";
layers = (
{
anchors = (
{
name = bottom;
pos = (336,0);
},
{
name = top;
pos = (366,710);
},
{
name = topleft;
pos = (20,710);
}
);
background = {
shapes = (
{
closed = 1;
nodes = (
(127,109,o),
(167,84,o),
(232,84,cs),
(262,84,o),
(281,87,o),
(322,97,c),
(299,33,o),
(239,2,o),
(178,2,cs),
(125,2,o),
(71,25,o),
(41,69,c),
(8,23,o),
(-8,-23,o),
(-8,-58,cs),
(-8,-156,o),
(89,-177,o),
(154,-177,cs),
(337,-177,o),
(431,-71,o),
(531,142,cs),
(612,315,o),
(682,530,o),
(682,609,cs),
(682,677,o),
(651,725,o),
(578,725,cs),
(533,725,o),
(490,710,o),
(439,678,c),
(447,662,o),
(454,642,o),
(454,613,cs),
(454,513,o),
(398,323,o),
(350,209,c),
(336,209,l),
(327,388,o),
(345,725,o),
(125,725,cs),
(79,725,o),
(43,710,o),
(-10,678,c),
(122,588,o),
(112,339,o),
(122,180,cs,{
name = hr00;
})
);
}
);
};
layerId = master01;
shapes = (
{
closed = 1;
nodes = (
(337,-177,o),
(431,-71,o),
(531,142,cs),
(612,315,o),
(682,530,o),
(682,609,cs),
(682,677,o),
(651,725,o),
(578,725,cs),
(533,725,o),
(490,710,o),
(439,678,c),
(447,662,o),
(454,642,o),
(454,613,cs),
(454,513,o),
(398,323,o),
(350,209,c),
(336,209,l),
(327,388,o),
(345,725,o),
(125,725,cs),
(79,725,o),
(43,710,o),
(-10,678,c),
(122,588,o),
(112,339,o),
(122,180,cs,{
name = hr00;
}),
(127,109,o),
(167,84,o),
(232,84,cs),
(262,84,o),
(281,87,o),
(322,97,c),
(299,33,o),
(239,2,o),
(178,2,cs),
(125,2,o),
(71,25,o),
(41,69,c),
(8,23,o),
(-8,-23,o),
(-8,-58,cs),
(-8,-156,o),
(89,-177,o),
(154,-177,cs)
);
}
);
width = 672;
}
);
unicode = 89;
},
{
glyphname = Yacute;
lastChange = "2023-03-01 10:34:03 +0000";
layers = (
{
background = {
shapes = (
{
closed = 1;
nodes = (
(337,-177,o),
(431,-71,o),
(531,142,cs),
(612,315,o),
(682,530,o),
(682,609,cs),
(682,677,o),
(651,725,o),
(578,725,cs),
(533,725,o),
(490,710,o),
(439,678,c),
(447,662,o),
(454,642,o),
(454,613,cs),
(454,513,o),
(398,323,o),
(350,209,c),
(336,209,l),
(327,388,o),
(345,725,o),
(125,725,cs),
(79,725,o),
(43,710,o),
(-10,678,c),
(122,588,o),
(112,339,o),
(122,180,cs,{
name = hr00;
}),
(127,109,o),
(167,84,o),
(232,84,cs),
(262,84,o),
(281,87,o),
(322,97,c),
(299,33,o),
(239,2,o),
(178,2,cs),
(125,2,o),
(71,25,o),
(41,69,c),
(8,23,o),
(-8,-23,o),
(-8,-58,cs),
(-8,-156,o),
(89,-177,o),
(154,-177,cs)
);
},
{
closed = 1;
nodes = (
(372,753,o),
(442,820,o),
(533,820,cs),
(540,820,o),
(549,819,o),
(556,818,c),
(563,842,o),
(566,868,o),
(566,891,cs),
(566,963,o),
(540,986,o),
(510,986,cs),
(422,986,o),
(335,854,o),
(230,829,c),
(234,773,o),
(259,753,o),
(286,753,c,{
name = hr00;
})
);
}
);
};
layerId = master01;
shapes = (
{
ref = Y;
},
{
pos = (128,0);
ref = acutecomb.case;
}
);
width = 672;
}
);
unicode = 221;
},
{
glyphname = Ycircumflex;
lastChange = "2023-03-01 10:34:03 +0000";
layers = (
{
background = {
shapes = (
{
closed = 1;
nodes = (
(337,-177,o),
(431,-71,o),
(531,142,cs),
(612,315,o),
(682,530,o),
(682,609,cs),
(682,677,o),
(651,725,o),
(578,725,cs),
(533,725,o),
(490,710,o),
(439,678,c),
(447,662,o),
(454,642,o),
(454,613,cs),
(454,513,o),
(398,323,o),
(350,209,c),
(336,209,l),
(327,388,o),
(345,725,o),
(125,725,cs),
(79,725,o),
(43,710,o),
(-10,678,c),
(122,588,o),
(112,339,o),
(122,180,cs,{
name = hr00;
}),
(127,109,o),
(167,84,o),
(232,84,cs),
(262,84,o),
(281,87,o),
(322,97,c),
(299,33,o),
(239,2,o),
(178,2,cs),
(125,2,o),
(71,25,o),
(41,69,c),
(8,23,o),
(-8,-23,o),
(-8,-58,cs),
(-8,-156,o),
(89,-177,o),
(154,-177,cs)
);
},
{
closed = 1;
nodes = (
(248,744,o),
(286,747,o),
(327,756,c),
(327,804,o),
(352,863,o),
(387,906,c),
(413,906,l),
(410,878,o),
(406,850,o),
(406,826,cs),
(406,778,o),
(423,744,o),
(502,744,cs),
(527,744,o),
(550,746,o),
(573,752,c),
(565,766,o),
(559,785,o),
(559,808,cs),
(559,852,o),
(569,884,o),
(569,931,cs),
(569,958,o),
(514,968,o),
(452,968,cs),
(383,968,o),
(305,956,o),
(282,943,c),
(246,903,o),
(158,802,o),
(158,763,cs),
(158,752,o),
(173,744,o),
(215,744,c,{
name = hr00;
})
);
}
);
};
layerId = master01;
shapes = (
{
ref = Y;
},
{
pos = (78,0);
ref = circumflexcomb.case;
}
);
width = 672;
}
);
unicode = 374;
},
{
glyphname = Ydieresis;
lastChange = "2023-03-01 10:34:03 +0000";
layers = (
{
background = {
shapes = (
{
closed = 1;
nodes = (
(337,-177,o),
(431,-71,o),
(531,142,cs),
(612,315,o),
(682,530,o),
(682,609,cs),
(682,677,o),
(651,725,o),
(578,725,cs),
(533,725,o),
(490,710,o),
(439,678,c),
(447,662,o),
(454,642,o),
(454,613,cs),
(454,513,o),
(398,323,o),
(350,209,c),
(336,209,l),
(327,388,o),
(345,725,o),
(125,725,cs),
(79,725,o),
(43,710,o),
(-10,678,c),
(122,588,o),
(112,339,o),
(122,180,cs,{
name = hr00;
}),
(127,109,o),
(167,84,o),
(232,84,cs),
(262,84,o),
(281,87,o),
(322,97,c),
(299,33,o),
(239,2,o),
(178,2,cs),
(125,2,o),
(71,25,o),
(41,69,c),
(8,23,o),
(-8,-23,o),
(-8,-58,cs),
(-8,-156,o),
(89,-177,o),
(154,-177,cs)
);
},
{
closed = 1;
nodes = (
(588,771,o),
(647,813,o),
(647,878,cs),
(647,925,o),
(607,954,o),
(553,954,cs),
(500,954,o),
(428,920,o),
(428,846,cs),
(428,799,o),
(468,771,o),
(522,771,cs,{
name = hr00;
})
);
},
{
closed = 1;
nodes = (
(287,771,o),
(346,813,o),
(346,878,cs),
(346,925,o),
(306,954,o),
(252,954,cs),
(199,954,o),
(127,920,o),
(127,846,cs),
(127,799,o),
(167,771,o),
(221,771,cs)
);
}
);
};
layerId = master01;
shapes = (
{
ref = Y;
},
{
pos = (20,0);
ref = dieresiscomb.case;
}
);
width = 672;
}
);
unicode = 376;
},
{
glyphname = Ygrave;
lastChange = "2023-03-01 10:34:03 +0000";
layers = (
{
background = {
shapes = (
{
closed = 1;
nodes = (
(337,-177,o),
(431,-71,o),
(531,142,cs),
(612,315,o),
(682,530,o),
(682,609,cs),
(682,677,o),
(651,725,o),
(578,725,cs),
(533,725,o),
(490,710,o),
(439,678,c),
(447,662,o),
(454,642,o),
(454,613,cs),
(454,513,o),
(398,323,o),
(350,209,c),
(336,209,l),
(327,388,o),
(345,725,o),
(125,725,cs),
(79,725,o),
(43,710,o),
(-10,678,c),
(122,588,o),
(112,339,o),
(122,180,cs,{
name = hr00;
}),
(127,109,o),
(167,84,o),
(232,84,cs),
(262,84,o),
(281,87,o),
(322,97,c),
(299,33,o),
(239,2,o),
(178,2,cs),
(125,2,o),
(71,25,o),
(41,69,c),
(8,23,o),
(-8,-23,o),
(-8,-58,cs),
(-8,-156,o),
(89,-177,o),
(154,-177,cs)
);
},
{
closed = 1;
nodes = (
(505,753,o),
(530,773,o),
(534,829,c),
(429,854,o),
(342,986,o),
(254,986,cs),
(224,986,o),
(198,963,o),
(198,891,cs),
(198,868,o),
(201,842,o),
(208,818,c),
(215,819,o),
(224,820,o),
(231,820,cs),
(322,820,o),
(392,753,o),
(478,753,c,{
name = hr00;
})
);
}
);
};
layerId = master01;
shapes = (
{
ref = Y;
},
{
pos = (178,0);
ref = gravecomb.case;
}
);
width = 672;
}
);
unicode = 7922;
},
{
glyphname = Z;
lastChange = "2023-03-01 10:34:08 +0000";
layers = (
{
anchors = (
{
name = bottom;
pos = (337,0);
},
{
name = center;
pos = (337,355);
},
{
name = top;
pos = (379,710);
}
);
background = {
shapes = (
{
closed = 1;
nodes = (
(-20,19,o),
(23,-20,o),
(87,-20,cs),
(126,-20,o),
(175,0,o),
(220,54,c),
(310,-3,o),
(397,-25,o),
(480,-25,cs,{
name = hr01;
}),
(567,-25,o),
(639,28,o),
(639,152,cs),
(639,178,o),
(637,204,o),
(631,231,c),
(510,176,l),
(334,195,l),
(590,515,l),
(640,538,o),
(674,572,o),
(674,622,cs),
(674,676,o),
(640,724,o),
(574,724,cs),
(531,724,o),
(491,703,o),
(462,653,c),
(401,653,o),
(185,678,o),
(79,721,c),
(72,688,o),
(69,658,o),
(69,636,cs),
(69,522,o),
(175,477,o),
(317,473,c),
(125,217,l),
(28,217,o),
(-20,146,o),
(-20,82,cs)
);
}
);
};
layerId = master01;
shapes = (
{
closed = 1;
nodes = (
(567,-25,o),
(639,28,o),
(639,152,cs),
(639,178,o),
(637,204,o),
(631,231,c),
(510,176,l),
(334,195,l),
(590,515,l),
(640,538,o),
(674,572,o),
(674,622,cs),
(674,676,o),
(640,724,o),
(574,724,cs),
(531,724,o),
(491,703,o),
(462,653,c),
(401,653,o),
(185,678,o),
(79,721,c),
(72,688,o),
(69,658,o),
(69,636,cs),
(69,522,o),
(175,477,o),
(317,473,c),
(125,217,l),
(28,217,o),
(-20,146,o),
(-20,82,cs),
(-20,19,o),
(23,-20,o),
(87,-20,cs),
(126,-20,o),
(175,0,o),
(220,54,c),
(310,-3,o),
(397,-25,o),
(480,-25,cs,{
name = hr01;
})
);
}
);
width = 674;
}
);
unicode = 90;
},
{
glyphname = Zacute;
lastChange = "2023-03-01 10:34:08 +0000";
layers = (
{
background = {
shapes = (
{
closed = 1;
nodes = (
(567,-25,o),
(639,28,o),
(639,152,cs),
(639,178,o),
(637,204,o),
(631,231,c),
(510,176,l),
(334,195,l),
(590,515,l),
(640,538,o),
(674,572,o),
(674,622,cs),
(674,676,o),
(640,724,o),
(574,724,cs),
(531,724,o),
(491,703,o),
(462,653,c),
(401,653,o),
(185,678,o),
(79,721,c),
(72,688,o),
(69,658,o),
(69,636,cs),
(69,522,o),
(175,477,o),
(317,473,c),
(125,217,l),
(28,217,o),
(-20,146,o),
(-20,82,cs),
(-20,19,o),
(23,-20,o),
(87,-20,cs),
(126,-20,o),
(175,0,o),
(220,54,c),
(310,-3,o),
(397,-25,o),
(480,-25,cs,{
name = hr01;
})
);
},
{
closed = 1;
nodes = (
(371,753,o),
(441,820,o),
(532,820,cs),
(539,820,o),
(548,819,o),
(555,818,c),
(562,842,o),
(565,868,o),
(565,891,cs),
(565,963,o),
(539,986,o),
(509,986,cs),
(421,986,o),
(334,854,o),
(229,829,c),
(233,773,o),
(258,753,o),
(285,753,cs,{
name = hr00;
})
);
}
);
};
layerId = master01;
shapes = (
{
ref = Z;
},
{
pos = (141,0);
ref = acutecomb.case;
}
);
width = 674;
}
);
unicode = 377;
},
{
glyphname = Zcaron;
lastChange = "2023-03-01 10:34:08 +0000";
layers = (
{
background = {
shapes = (
{
closed = 1;
nodes = (
(567,-25,o),
(639,28,o),
(639,152,cs),
(639,178,o),
(637,204,o),
(631,231,c),
(510,176,l),
(334,195,l),
(590,515,l),
(640,538,o),
(674,572,o),
(674,622,cs),
(674,676,o),
(640,724,o),
(574,724,cs),
(531,724,o),
(491,703,o),
(462,653,c),
(401,653,o),
(185,678,o),
(79,721,c),
(72,688,o),
(69,658,o),
(69,636,cs),
(69,522,o),
(175,477,o),
(317,473,c),
(125,217,l),
(28,217,o),
(-20,146,o),
(-20,82,cs),
(-20,19,o),
(23,-20,o),
(87,-20,cs),
(126,-20,o),
(175,0,o),
(220,54,c),
(310,-3,o),
(397,-25,o),
(480,-25,cs,{
name = hr01;
})
);
},
{
closed = 1;
nodes = (
(420,734,o),
(479,745,o),
(512,761,c,{
name = hr00;
}),
(546,799,o),
(620,873,o),
(620,919,cs),
(620,942,o),
(600,958,o),
(543,958,cs),
(505,958,o),
(473,950,o),
(447,940,c),
(448,928,o),
(449,916,o),
(449,905,cs),
(449,863,o),
(430,819,o),
(408,796,c),
(378,796,l),
(383,827,o),
(389,860,o),
(389,883,cs),
(389,940,o),
(356,958,o),
(308,958,cs),
(275,958,o),
(239,949,o),
(214,939,c),
(231,927,o),
(245,908,o),
(245,874,cs),
(245,791,ls),
(245,750,o),
(299,734,o),
(365,734,cs)
);
}
);
};
layerId = master01;
shapes = (
{
ref = Z;
},
{
pos = (128,0);
ref = caroncomb.case;
}
);
width = 674;
}
);
unicode = 381;
},
{
glyphname = Zdotaccent;
lastChange = "2023-03-01 10:34:08 +0000";
layers = (
{
background = {
shapes = (
{
closed = 1;
nodes = (
(567,-25,o),
(639,28,o),
(639,152,cs),
(639,178,o),
(637,204,o),
(631,231,c),
(510,176,l),
(334,195,l),
(590,515,l),
(640,538,o),
(674,572,o),
(674,622,cs),
(674,676,o),
(640,724,o),
(574,724,cs),
(531,724,o),
(491,703,o),
(462,653,c),
(401,653,o),
(185,678,o),
(79,721,c),
(72,688,o),
(69,658,o),
(69,636,cs),
(69,522,o),
(175,477,o),
(317,473,c),
(125,217,l),
(28,217,o),
(-20,146,o),
(-20,82,cs),
(-20,19,o),
(23,-20,o),
(87,-20,cs),
(126,-20,o),
(175,0,o),
(220,54,c),
(310,-3,o),
(397,-25,o),
(480,-25,cs,{
name = hr01;
})
);
},
{
closed = 1;
nodes = (
(463,748,o),
(528,804,o),
(528,887,cs),
(528,944,o),
(485,983,o),
(414,983,cs),
(327,983,o),
(262,927,o),
(262,843,cs),
(262,787,o),
(305,748,o),
(376,748,cs,{
name = hr00;
})
);
}
);
};
layerId = master01;
shapes = (
{
ref = Z;
},
{
pos = (176,0);
ref = dotaccentcomb.case;
}
);
width = 674;
}
);
unicode = 379;
},
{
glyphname = a;
lastChange = "2023-03-01 10:27:04 +0000";
layers = (
{
anchors = (
{
name = bottom;
pos = (368,0);
},
{
name = ogonek;
pos = (662,10);
},
{
name = top;
pos = (368,575);
}
);
background = {
shapes = (
{
closed = 1;
nodes = (
(427,22,o),
(463,-25,o),
(540,-25,cs),
(581,-25,o),
(621,-9,o),
(659,24,c),
(639,41,o),
(628,73,o),
(628,115,cs),
(628,243,o),
(691,426,o),
(691,496,cs),
(691,547,o),
(665,575,o),
(618,575,cs),
(586,575,o),
(546,563,o),
(515,543,c),
(514,558,o),
(512,572,o),
(508,592,c),
(481,598,o),
(461,600,o),
(429,600,cs),
(208,600,o),
(40,432,o),
(40,210,cs),
(40,68,o),
(114,-25,o),
(227,-25,cs),
(310,-25,o),
(381,32,o),
(417,128,c),
(427,123,l,{
name = hr00;
})
);
},
{
closed = 1;
nodes = (
(228,387,o),
(348,501,o),
(483,501,c),
(460,395,o),
(451,340,o),
(444,262,c),
(411,197,o),
(358,157,o),
(306,157,cs),
(257,157,o),
(228,194,o),
(228,259,cs)
);
}
);
};
layerId = master01;
shapes = (
{
closed = 1;
nodes = (
(310,-25,o),
(381,32,o),
(417,128,c),
(427,123,l,{
name = hr00;
}),
(427,22,o),
(463,-25,o),
(540,-25,cs),
(581,-25,o),
(621,-9,o),
(659,24,c),
(639,41,o),
(628,73,o),
(628,115,cs),
(628,243,o),
(691,426,o),
(691,496,cs),
(691,547,o),
(665,575,o),
(618,575,cs),
(586,575,o),
(546,563,o),
(515,543,c),
(514,558,o),
(512,572,o),
(508,592,c),
(481,598,o),
(461,600,o),
(429,600,cs),
(208,600,o),
(40,432,o),
(40,210,cs),
(40,68,o),
(114,-25,o),
(227,-25,cs)
);
},
{
closed = 1;
nodes = (
(257,157,o),
(228,194,o),
(228,259,cs),
(228,387,o),
(348,501,o),
(483,501,c),
(460,395,o),
(451,340,o),
(444,262,c),
(411,197,o),
(358,157,o),
(306,157,cs)
);
}
);
width = 736;
}
);
unicode = 97;
},
{
glyphname = aacute;
lastChange = "2023-03-01 10:27:25 +0000";
layers = (
{
background = {
shapes = (
{
closed = 1;
nodes = (
(310,-25,o),
(381,32,o),
(417,128,c),
(427,123,l,{
name = hr00;
}),
(427,22,o),
(463,-25,o),
(540,-25,cs),
(581,-25,o),
(621,-9,o),
(659,24,c),
(639,41,o),
(628,73,o),
(628,115,cs),
(628,243,o),
(691,426,o),
(691,496,cs),
(691,547,o),
(665,575,o),
(618,575,cs),
(586,575,o),
(546,563,o),
(515,543,c),
(514,558,o),
(512,572,o),
(508,592,c),
(481,598,o),
(461,600,o),
(429,600,cs),
(208,600,o),
(40,432,o),
(40,210,cs),
(40,68,o),
(114,-25,o),
(227,-25,cs)
);
},
{
closed = 1;
nodes = (
(257,157,o),
(228,194,o),
(228,259,cs),
(228,387,o),
(348,501,o),
(483,501,c),
(460,395,o),
(451,340,o),
(444,262,c),
(411,197,o),
(358,157,o),
(306,157,cs)
);
},
{
closed = 1;
nodes = (
(440,653,o),
(510,720,o),
(601,720,cs),
(608,720,o),
(617,719,o),
(624,718,c),
(631,742,o),
(634,768,o),
(634,791,cs),
(634,863,o),
(608,886,o),
(578,886,cs),
(490,886,o),
(403,754,o),
(298,729,c),
(302,673,o),
(327,653,o),
(354,653,c,{
name = hr00;
})
);
}
);
};
layerId = master01;
shapes = (
{
ref = a;
},
{
pos = (130,0);
ref = acutecomb;
}
);
width = 736;
}
);
unicode = 225;
},
{
glyphname = abreve;
lastChange = "2023-03-01 10:27:25 +0000";
layers = (
{
background = {
shapes = (
{
closed = 1;
nodes = (
(310,-25,o),
(381,32,o),
(417,128,c),
(427,123,l,{
name = hr00;
}),
(427,22,o),
(463,-25,o),
(540,-25,cs),
(581,-25,o),
(621,-9,o),
(659,24,c),
(639,41,o),
(628,73,o),
(628,115,cs),
(628,243,o),
(691,426,o),
(691,496,cs),
(691,547,o),
(665,575,o),
(618,575,cs),
(586,575,o),
(546,563,o),
(515,543,c),
(514,558,o),
(512,572,o),
(508,592,c),
(481,598,o),
(461,600,o),
(429,600,cs),
(208,600,o),
(40,432,o),
(40,210,cs),
(40,68,o),
(114,-25,o),
(227,-25,cs)
);
},
{
closed = 1;
nodes = (
(257,157,o),
(228,194,o),
(228,259,cs),
(228,387,o),
(348,501,o),
(483,501,c),
(460,395,o),
(451,340,o),
(444,262,c),
(411,197,o),
(358,157,o),
(306,157,cs)
);
},
{
closed = 1;
nodes = (
(520,662,o),
(646,711,o),
(646,830,cs),
(646,845,o),
(644,861,o),
(641,878,c),
(592,827,o),
(520,796,o),
(454,796,cs),
(386,796,o),
(333,810,o),
(292,858,c),
(284,830,o),
(282,807,o),
(282,783,cs),
(282,697,o),
(338,662,o),
(418,662,cs,{
name = hr00;
})
);
}
);
};
layerId = master01;
shapes = (
{
ref = a;
},
{
pos = (129,0);
ref = brevecomb;
}
);
width = 736;
}
);
unicode = 259;
},
{
glyphname = acircumflex;
lastChange = "2023-03-01 10:27:25 +0000";
layers = (
{
background = {
shapes = (
{
closed = 1;
nodes = (
(310,-25,o),
(381,32,o),
(417,128,c),
(427,123,l,{
name = hr00;
}),
(427,22,o),
(463,-25,o),
(540,-25,cs),
(581,-25,o),
(621,-9,o),
(659,24,c),
(639,41,o),
(628,73,o),
(628,115,cs),
(628,243,o),
(691,426,o),
(691,496,cs),
(691,547,o),
(665,575,o),
(618,575,cs),
(586,575,o),
(546,563,o),
(515,543,c),
(514,558,o),
(512,572,o),
(508,592,c),
(481,598,o),
(461,600,o),
(429,600,cs),
(208,600,o),
(40,432,o),
(40,210,cs),
(40,68,o),
(114,-25,o),
(227,-25,cs)
);
},
{
closed = 1;
nodes = (
(257,157,o),
(228,194,o),
(228,259,cs),
(228,387,o),
(348,501,o),
(483,501,c),
(460,395,o),
(451,340,o),
(444,262,c),
(411,197,o),
(358,157,o),
(306,157,cs)
);
},
{
closed = 1;
nodes = (
(302,644,o),
(340,647,o),
(381,656,c),
(381,704,o),
(406,763,o),
(441,806,c),
(467,806,l),
(464,778,o),
(460,750,o),
(460,726,cs),
(460,678,o),
(477,644,o),
(556,644,cs),
(581,644,o),
(604,646,o),
(627,652,c),
(619,666,o),
(613,685,o),
(613,708,cs),
(613,752,o),
(623,784,o),
(623,831,cs),
(623,858,o),
(568,868,o),
(506,868,cs),
(437,868,o),
(359,856,o),
(336,843,c),
(300,803,o),
(212,702,o),
(212,663,cs),
(212,652,o),
(227,644,o),
(269,644,c,{
name = hr00;
})
);
}
);
};
layerId = master01;
shapes = (
{
ref = a;
},
{
pos = (80,0);
ref = circumflexcomb;
}
);
width = 736;
}
);
unicode = 226;
},
{
glyphname = adieresis;
lastChange = "2023-03-01 10:27:25 +0000";
layers = (
{
background = {
shapes = (
{
closed = 1;
nodes = (
(310,-25,o),
(381,32,o),
(417,128,c),
(427,123,l,{
name = hr00;
}),
(427,22,o),
(463,-25,o),
(540,-25,cs),
(581,-25,o),
(621,-9,o),
(659,24,c),
(639,41,o),
(628,73,o),
(628,115,cs),
(628,243,o),
(691,426,o),
(691,496,cs),
(691,547,o),
(665,575,o),
(618,575,cs),
(586,575,o),
(546,563,o),
(515,543,c),
(514,558,o),
(512,572,o),
(508,592,c),
(481,598,o),
(461,600,o),
(429,600,cs),
(208,600,o),
(40,432,o),
(40,210,cs),
(40,68,o),
(114,-25,o),
(227,-25,cs)
);
},
{
closed = 1;
nodes = (
(257,157,o),
(228,194,o),
(228,259,cs),
(228,387,o),
(348,501,o),
(483,501,c),
(460,395,o),
(451,340,o),
(444,262,c),
(411,197,o),
(358,157,o),
(306,157,cs)
);
},
{
closed = 1;
nodes = (
(625,666,o),
(684,708,o),
(684,773,cs),
(684,820,o),
(644,849,o),
(590,849,cs),
(537,849,o),
(465,815,o),
(465,741,cs),
(465,694,o),
(505,666,o),
(559,666,cs,{
name = hr00;
})
);
},
{
closed = 1;
nodes = (
(324,666,o),
(383,708,o),
(383,773,cs),
(383,820,o),
(343,849,o),
(289,849,cs),
(236,849,o),
(164,815,o),
(164,741,cs),
(164,694,o),
(204,666,o),
(258,666,cs)
);
}
);
};
layerId = master01;
shapes = (
{
ref = a;
},
{
pos = (22,0);
ref = dieresiscomb;
}
);
width = 736;
}
);
unicode = 228;
},
{
glyphname = agrave;
lastChange = "2023-03-01 10:27:25 +0000";
layers = (
{
background = {
shapes = (
{
closed = 1;
nodes = (
(310,-25,o),
(381,32,o),
(417,128,c),
(427,123,l,{
name = hr00;
}),
(427,22,o),
(463,-25,o),
(540,-25,cs),
(581,-25,o),
(621,-9,o),
(659,24,c),
(639,41,o),
(628,73,o),
(628,115,cs),
(628,243,o),
(691,426,o),
(691,496,cs),
(691,547,o),
(665,575,o),
(618,575,cs),
(586,575,o),
(546,563,o),
(515,543,c),
(514,558,o),
(512,572,o),
(508,592,c),
(481,598,o),
(461,600,o),
(429,600,cs),
(208,600,o),
(40,432,o),
(40,210,cs),
(40,68,o),
(114,-25,o),
(227,-25,cs)
);
},
{
closed = 1;
nodes = (
(257,157,o),
(228,194,o),
(228,259,cs),
(228,387,o),
(348,501,o),
(483,501,c),
(460,395,o),
(451,340,o),
(444,262,c),
(411,197,o),
(358,157,o),
(306,157,cs)
);
},
{
closed = 1;
nodes = (
(598,653,o),
(623,673,o),
(627,729,c),
(522,754,o),
(435,886,o),
(347,886,cs),
(317,886,o),
(291,863,o),
(291,791,cs),
(291,768,o),
(294,742,o),
(301,718,c),
(308,719,o),
(317,720,o),
(324,720,cs),
(415,720,o),
(485,653,o),
(571,653,c,{
name = hr00;
})
);
}
);
};
layerId = master01;
shapes = (
{
ref = a;
},
{
pos = (180,0);
ref = gravecomb;
}
);
width = 736;
}
);
unicode = 224;
},
{
glyphname = amacron;
lastChange = "2023-03-01 10:27:25 +0000";
layers = (
{
background = {
shapes = (
{
closed = 1;
nodes = (
(310,-25,o),
(381,32,o),
(417,128,c),
(427,123,l,{
name = hr00;
}),
(427,22,o),
(463,-25,o),
(540,-25,cs),
(581,-25,o),
(621,-9,o),
(659,24,c),
(639,41,o),
(628,73,o),
(628,115,cs),
(628,243,o),
(691,426,o),
(691,496,cs),
(691,547,o),
(665,575,o),
(618,575,cs),
(586,575,o),
(546,563,o),
(515,543,c),
(514,558,o),
(512,572,o),
(508,592,c),
(481,598,o),
(461,600,o),
(429,600,cs),
(208,600,o),
(40,432,o),
(40,210,cs),
(40,68,o),
(114,-25,o),
(227,-25,cs)
);
},
{
closed = 1;
nodes = (
(257,157,o),
(228,194,o),
(228,259,cs),
(228,387,o),
(348,501,o),
(483,501,c),
(460,395,o),
(451,340,o),
(444,262,c),
(411,197,o),
(358,157,o),
(306,157,cs)
);
},
{
closed = 1;
nodes = (
(387,685,o),
(483,709,o),
(562,709,cs),
(582,709,o),
(622,705,o),
(638,695,c),
(649,719,o),
(652,744,o),
(652,767,cs),
(652,819,o),
(626,838,o),
(581,838,cs),
(511,838,o),
(444,832,o),
(380,832,cs),
(365,832,o),
(326,835,o),
(306,844,c,{
name = hr01;
}),
(289,809,o),
(277,779,o),
(277,738,cs),
(277,697,o),
(293,685,o),
(312,685,c)
);
}
);
};
layerId = master01;
shapes = (
{
ref = a;
},
{
pos = (90,0);
ref = macroncomb;
}
);
width = 736;
}
);
unicode = 257;
},
{
glyphname = aogonek;
lastChange = "2023-03-01 10:27:25 +0000";
layers = (
{
background = {
shapes = (
{
closed = 1;
nodes = (
(310,-25,o),
(381,32,o),
(417,128,c),
(427,123,l,{
name = hr00;
}),
(427,22,o),
(463,-25,o),
(540,-25,cs),
(581,-25,o),
(621,-9,o),
(659,24,c),
(639,41,o),
(628,73,o),
(628,115,cs),
(628,243,o),
(691,426,o),
(691,496,cs),
(691,547,o),
(665,575,o),
(618,575,cs),
(586,575,o),
(546,563,o),
(515,543,c),
(514,558,o),
(512,572,o),
(508,592,c),
(481,598,o),
(461,600,o),
(429,600,cs),
(208,600,o),
(40,432,o),
(40,210,cs),
(40,68,o),
(114,-25,o),
(227,-25,cs)
);
},
{
closed = 1;
nodes = (
(257,157,o),
(228,194,o),
(228,259,cs),
(228,387,o),
(348,501,o),
(483,501,c),
(460,395,o),
(451,340,o),
(444,262,c),
(411,197,o),
(358,157,o),
(306,157,cs)
);
},
{
closed = 1;
nodes = (
(636,-285,o),
(712,-215,o),
(712,-153,cs),
(712,-117,o),
(688,-85,o),
(631,-70,c),
(634,-78,o),
(635,-87,o),
(635,-95,cs),
(635,-138,o),
(603,-186,o),
(555,-186,cs),
(526,-186,o),
(502,-167,o),
(502,-134,cs),
(502,-76,o),
(540,-26,o),
(634,6,c),
(634,22,l),
(582,22,l,{
name = hr00;
}),
(467,2,o),
(375,-82,o),
(375,-168,cs),
(375,-231,o),
(418,-285,o),
(521,-285,cs)
);
}
);
};
layerId = master01;
shapes = (
{
ref = a;
},
{
pos = (154,-12);
ref = ogonekcomb;
}
);
width = 736;
}
);
unicode = 261;
},
{
glyphname = aring;
lastChange = "2023-03-01 10:27:25 +0000";
layers = (
{
background = {
shapes = (
{
closed = 1;
nodes = (
(599,632,o),
(680,696,o),
(680,794,cs),
(680,868,o),
(622,919,o),
(520,919,cs),
(404,919,o),
(323,854,o),
(323,757,cs),
(323,683,o),
(381,632,o),
(483,632,cs)
);
},
{
closed = 1;
nodes = (
(454,697,o),
(435,726,o),
(435,761,cs),
(435,789,o),
(446,823,o),
(470,850,c),
(480,851,o),
(486,852,o),
(496,852,cs),
(546,852,o),
(556,825,o),
(556,795,cs),
(556,744,o),
(523,697,o),
(485,697,cs,{
name = hr00;
})
);
},
{
closed = 1;
nodes = (
(340,-25,o),
(411,32,o),
(447,128,c),
(457,123,l,{
name = hr00;
}),
(457,22,o),
(493,-25,o),
(570,-25,cs),
(611,-25,o),
(651,-9,o),
(689,24,c),
(669,41,o),
(658,73,o),
(658,115,cs),
(658,243,o),
(721,426,o),
(721,496,cs),
(721,547,o),
(695,575,o),
(648,575,cs),
(616,575,o),
(576,563,o),
(545,543,c),
(544,558,o),
(542,572,o),
(538,592,c),
(511,598,o),
(491,600,o),
(459,600,cs),
(238,600,o),
(70,432,o),
(70,210,cs),
(70,68,o),
(144,-25,o),
(257,-25,cs)
);
},
{
closed = 1;
nodes = (
(287,157,o),
(258,194,o),
(258,259,cs),
(258,387,o),
(378,501,o),
(513,501,c),
(490,395,o),
(481,340,o),
(474,262,c),
(441,197,o),
(388,157,o),
(336,157,cs)
);
}
);
};
layerId = master01;
shapes = (
{
ref = a;
},
{
pos = (127,0);
ref = ringcomb;
}
);
width = 736;
}
);
unicode = 229;
},
{
glyphname = aringacute;
lastChange = "2023-03-01 10:27:25 +0000";
layers = (
{
background = {
shapes = (
{
closed = 1;
nodes = (
(310,-25,o),
(381,32,o),
(417,128,c),
(427,123,l,{
name = hr00;
}),
(427,22,o),
(463,-25,o),
(540,-25,cs),
(581,-25,o),
(621,-9,o),
(659,24,c),
(639,41,o),
(628,73,o),
(628,115,cs),
(628,243,o),
(691,426,o),
(691,496,cs),
(691,547,o),
(665,575,o),
(618,575,cs),
(586,575,o),
(546,563,o),
(515,543,c),
(514,558,o),
(512,572,o),
(508,592,c),
(481,598,o),
(461,600,o),
(429,600,cs),
(208,600,o),
(40,432,o),
(40,210,cs),
(40,68,o),
(114,-25,o),
(227,-25,cs)
);
},
{
closed = 1;
nodes = (
(257,157,o),
(228,194,o),
(228,259,cs),
(228,387,o),
(348,501,o),
(483,501,c),
(460,395,o),
(451,340,o),
(444,262,c),
(411,197,o),
(358,157,o),
(306,157,cs)
);
},
{
closed = 1;
nodes = (
(567,632,o),
(648,696,o),
(648,794,cs),
(648,819,o),
(641,842,o),
(628,861,c),
(655,871,o),
(683,880,o),
(714,880,cs),
(720,880,o),
(728,879,o),
(734,878,c),
(741,900,o),
(743,923,o),
(743,944,cs),
(743,1009,o),
(720,1029,o),
(693,1029,cs),
(633,1029,o),
(573,961,o),
(506,918,c),
(500,919,o),
(494,919,o),
(488,919,cs,{
name = hr01;
}),
(372,919,o),
(291,854,o),
(291,757,cs),
(291,683,o),
(349,632,o),
(451,632,cs)
);
},
{
closed = 1;
nodes = (
(422,697,o),
(403,726,o),
(403,761,cs),
(403,789,o),
(414,823,o),
(438,850,c),
(448,851,o),
(454,852,o),
(464,852,cs),
(514,852,o),
(524,825,o),
(524,795,cs),
(524,744,o),
(491,697,o),
(453,697,cs)
);
}
);
};
layerId = master01;
shapes = (
{
ref = a;
},
{
pos = (127,0);
ref = ringcomb;
},
{
pos = (130,344);
ref = acutecomb;
}
);
width = 736;
}
);
unicode = 507;
},
{
glyphname = atilde;
lastChange = "2023-03-01 10:27:25 +0000";
layers = (
{
background = {
shapes = (
{
closed = 1;
nodes = (
(310,-25,o),
(381,32,o),
(417,128,c),
(427,123,l,{
name = hr00;
}),
(427,22,o),
(463,-25,o),
(540,-25,cs),
(581,-25,o),
(621,-9,o),
(659,24,c),
(639,41,o),
(628,73,o),
(628,115,cs),
(628,243,o),
(691,426,o),
(691,496,cs),
(691,547,o),
(665,575,o),
(618,575,cs),
(586,575,o),
(546,563,o),
(515,543,c),
(514,558,o),
(512,572,o),
(508,592,c),
(481,598,o),
(461,600,o),
(429,600,cs),
(208,600,o),
(40,432,o),
(40,210,cs),
(40,68,o),
(114,-25,o),
(227,-25,cs)
);
},
{
closed = 1;
nodes = (
(257,157,o),
(228,194,o),
(228,259,cs),
(228,387,o),
(348,501,o),
(483,501,c),
(460,395,o),
(451,340,o),
(444,262,c),
(411,197,o),
(358,157,o),
(306,157,cs)
);
},
{
closed = 1;
nodes = (
(405,666,o),
(476,725,o),
(561,725,cs),
(588,725,o),
(616,719,o),
(644,705,c),
(661,742,o),
(671,781,o),
(671,810,cs,{
name = hr02;
}),
(671,858,o),
(644,873,o),
(607,873,cs),
(529,873,o),
(458,814,o),
(373,814,cs),
(346,814,o),
(318,820,o),
(290,834,c),
(273,797,o),
(263,758,o),
(263,729,cs,{
name = hr01;
}),
(263,681,o),
(290,666,o),
(327,666,cs)
);
}
);
};
layerId = master01;
shapes = (
{
ref = a;
},
{
pos = (94,0);
ref = tildecomb;
}
);
width = 736;
}
);
unicode = 227;
},
{
glyphname = ae;
lastChange = "2023-03-01 10:27:04 +0000";
layers = (
{
anchors = (
{
name = bottom;
pos = (495,0);
},
{
name = top;
pos = (495,575);
}
);
background = {
shapes = (
{
closed = 1;
nodes = (
(516,535,o),
(512,572,o),
(508,592,c),
(481,598,o),
(461,600,o),
(429,600,cs),
(208,600,o),
(40,432,o),
(40,210,cs),
(40,68,o),
(114,-25,o),
(227,-25,cs),
(305,-25,o),
(373,26,o),
(411,113,c),
(422,113,l),
(459,21,o),
(542,-25,o),
(663,-25,cs),
(823,-25,o),
(920,65,o),
(920,137,cs),
(920,189,o),
(865,206,o),
(774,206,c),
(774,119,o),
(720,95,o),
(680,95,cs),
(626,95,o),
(588,146,o),
(584,232,c),
(853,233,o),
(954,336,o),
(954,449,cs,{
name = hr01;
}),
(954,536,o),
(894,600,o),
(765,600,cs),
(675,600,o),
(594,578,o),
(517,520,c)
);
},
{
closed = 1;
nodes = (
(228,387,o),
(329,480,o),
(449,480,c),
(426,374,o),
(417,318,o),
(410,262,c),
(382,197,o),
(338,157,o),
(294,157,cs),
(252,157,o),
(228,194,o),
(228,259,cs)
);
},
{
closed = 1;
nodes = (
(776,483,o),
(794,463,o),
(794,437,cs),
(794,390,o),
(739,324,o),
(593,312,c),
(616,396,o),
(676,483,o),
(748,483,cs)
);
}
);
};
layerId = master01;
shapes = (
{
closed = 1;
nodes = (
(305,-25,o),
(373,26,o),
(411,113,c),
(422,113,l),
(459,21,o),
(542,-25,o),
(663,-25,cs),
(823,-25,o),
(920,65,o),
(920,137,cs),
(920,189,o),
(865,206,o),
(774,206,c),
(774,119,o),
(720,95,o),
(680,95,cs),
(626,95,o),
(588,146,o),
(584,232,c),
(853,233,o),
(954,336,o),
(954,449,cs,{
name = hr01;
}),
(954,536,o),
(894,600,o),
(765,600,cs),
(675,600,o),
(594,578,o),
(517,520,c),
(516,535,o),
(512,572,o),
(508,592,c),
(481,598,o),
(461,600,o),
(429,600,cs),
(208,600,o),
(40,432,o),
(40,210,cs),
(40,68,o),
(114,-25,o),
(227,-25,cs)
);
},
{
closed = 1;
nodes = (
(252,157,o),
(228,194,o),
(228,259,cs),
(228,387,o),
(329,480,o),
(449,480,c),
(426,374,o),
(417,318,o),
(410,262,c),
(382,197,o),
(338,157,o),
(294,157,cs)
);
},
{
closed = 1;
nodes = (
(616,396,o),
(676,483,o),
(748,483,cs),
(776,483,o),
(794,463,o),
(794,437,cs),
(794,390,o),
(739,324,o),
(593,312,c)
);
}
);
width = 989;
}
);
unicode = 230;
},
{
glyphname = aeacute;
lastChange = "2023-03-01 10:27:25 +0000";
layers = (
{
background = {
shapes = (
{
closed = 1;
nodes = (
(305,-25,o),
(373,26,o),
(411,113,c),
(422,113,l),
(459,21,o),
(542,-25,o),
(663,-25,cs),
(823,-25,o),
(920,65,o),
(920,137,cs),
(920,189,o),
(865,206,o),
(774,206,c),
(774,119,o),
(720,95,o),
(680,95,cs),
(626,95,o),
(588,146,o),
(584,232,c),
(853,233,o),
(954,336,o),
(954,449,cs,{
name = hr01;
}),
(954,536,o),
(894,600,o),
(765,600,cs),
(675,600,o),
(594,578,o),
(517,520,c),
(516,535,o),
(512,572,o),
(508,592,c),
(481,598,o),
(461,600,o),
(429,600,cs),
(208,600,o),
(40,432,o),
(40,210,cs),
(40,68,o),
(114,-25,o),
(227,-25,cs)
);
},
{
closed = 1;
nodes = (
(252,157,o),
(228,194,o),
(228,259,cs),
(228,387,o),
(329,480,o),
(449,480,c),
(426,374,o),
(417,318,o),
(410,262,c),
(382,197,o),
(338,157,o),
(294,157,cs)
);
},
{
closed = 1;
nodes = (
(616,396,o),
(676,483,o),
(748,483,cs),
(776,483,o),
(794,463,o),
(794,437,cs),
(794,390,o),
(739,324,o),
(593,312,c)
);
},
{
closed = 1;
nodes = (
(538,653,o),
(608,720,o),
(699,720,cs),
(706,720,o),
(715,719,o),
(722,718,c),
(729,742,o),
(732,768,o),
(732,791,cs),
(732,863,o),
(706,886,o),
(676,886,cs),
(588,886,o),
(501,754,o),
(396,729,c),
(400,673,o),
(425,653,o),
(452,653,c,{
name = hr00;
})
);
}
);
};
layerId = master01;
shapes = (
{
ref = ae;
},
{
pos = (257,0);
ref = acutecomb;
}
);
width = 989;
}
);
unicode = 509;
},
{
glyphname = b;
lastChange = "2023-03-01 10:27:04 +0000";
layers = (
{
anchors = (
{
name = bottom;
pos = (370,0);
},
{
name = center;
pos = (370,288);
},
{
name = top;
pos = (370,575);
}
);
background = {
shapes = (
{
closed = 1;
nodes = (
(66,41,o),
(142,-25,o),
(291,-25,cs),
(470,-25,o),
(694,106,o),
(694,360,cs),
(694,485,o),
(636,591,o),
(528,591,cs),
(433,591,o),
(366,543,o),
(318,448,c),
(308,453,l),
(327,544,o),
(347,652,o),
(347,704,cs),
(347,754,o),
(321,775,o),
(264,775,cs),
(203,775,o),
(144,743,o),
(75,702,c),
(131,622,l),
(95,429,o),
(66,253,o),
(66,190,c,{
name = hr00;
})
);
},
{
closed = 1;
nodes = (
(264,163,o),
(283,450,o),
(433,450,cs),
(481,450,o),
(514,391,o),
(514,337,cs),
(514,220,o),
(420,91,o),
(264,91,c)
);
}
);
};
layerId = master01;
shapes = (
{
closed = 1;
nodes = (
(470,-25,o),
(694,106,o),
(694,360,cs),
(694,485,o),
(636,591,o),
(528,591,cs),
(433,591,o),
(366,543,o),
(318,448,c),
(308,453,l),
(327,544,o),
(347,652,o),
(347,704,cs),
(347,754,o),
(321,775,o),
(264,775,cs),
(203,775,o),
(144,743,o),
(75,702,c),
(131,622,l),
(95,429,o),
(66,253,o),
(66,190,c,{
name = hr00;
}),
(66,41,o),
(142,-25,o),
(291,-25,cs)
);
},
{
closed = 1;
nodes = (
(264,163,o),
(283,450,o),
(433,450,cs),
(481,450,o),
(514,391,o),
(514,337,cs),
(514,220,o),
(420,91,o),
(264,91,c)
);
}
);
width = 739;
}
);
unicode = 98;
},
{
glyphname = c;
lastChange = "2023-03-01 10:27:04 +0000";
layers = (
{
anchors = (
{
name = bottom;
pos = (319,0);
},
{
name = top;
pos = (319,575);
}
);
background = {
shapes = (
{
closed = 1;
nodes = (
(45,82,o),
(153,-25,o),
(328,-25,cs),
(487,-25,o),
(588,65,o),
(588,137,cs),
(588,189,o),
(533,206,o),
(442,206,c),
(442,128,o),
(397,95,o),
(352,95,cs),
(286,95,o),
(253,160,o),
(253,239,cs),
(253,326,o),
(300,430,o),
(389,467,c),
(415,411,o),
(465,385,o),
(505,385,cs),
(563,385,o),
(618,419,o),
(618,483,cs),
(618,550,o),
(550,600,o),
(432,600,cs),
(212,600,o),
(45,454,o),
(45,238,cs,{
name = hr00;
})
);
}
);
};
layerId = master01;
shapes = (
{
closed = 1;
nodes = (
(487,-25,o),
(588,65,o),
(588,137,cs),
(588,189,o),
(533,206,o),
(442,206,c),
(442,128,o),
(397,95,o),
(352,95,cs),
(286,95,o),
(253,160,o),
(253,239,cs),
(253,326,o),
(300,430,o),
(389,467,c),
(415,411,o),
(465,385,o),
(505,385,cs),
(563,385,o),
(618,419,o),
(618,483,cs),
(618,550,o),
(550,600,o),
(432,600,cs),
(212,600,o),
(45,454,o),
(45,238,cs,{
name = hr00;
}),
(45,82,o),
(153,-25,o),
(328,-25,cs)
);
}
);
width = 638;
}
);
unicode = 99;
},
{
glyphname = cacute;
lastChange = "2023-03-01 10:27:25 +0000";
layers = (
{
background = {
shapes = (
{
closed = 1;
nodes = (
(487,-25,o),
(588,65,o),
(588,137,cs),
(588,189,o),
(533,206,o),
(442,206,c),
(442,128,o),
(397,95,o),
(352,95,cs),
(286,95,o),
(253,160,o),
(253,239,cs),
(253,326,o),
(300,430,o),
(389,467,c),
(415,411,o),
(465,385,o),
(505,385,cs),
(563,385,o),
(618,419,o),
(618,483,cs),
(618,550,o),
(550,600,o),
(432,600,cs),
(212,600,o),
(45,454,o),
(45,238,cs,{
name = hr00;
}),
(45,82,o),
(153,-25,o),
(328,-25,cs)
);
},
{
closed = 1;
nodes = (
(363,653,o),
(433,720,o),
(524,720,cs),
(531,720,o),
(540,719,o),
(547,718,c),
(554,742,o),
(557,768,o),
(557,791,cs),
(557,863,o),
(531,886,o),
(501,886,cs),
(413,886,o),
(326,754,o),
(221,729,c),
(225,673,o),
(250,653,o),
(277,653,c,{
name = hr00;
})
);
}
);
};
layerId = master01;
shapes = (
{
ref = c;
},
{
pos = (81,0);
ref = acutecomb;
}
);
width = 638;
}
);
unicode = 263;
},
{
glyphname = ccaron;
lastChange = "2023-03-01 10:27:25 +0000";
layers = (
{
background = {
shapes = (
{
closed = 1;
nodes = (
(487,-25,o),
(588,65,o),
(588,137,cs),
(588,189,o),
(533,206,o),
(442,206,c),
(442,128,o),
(397,95,o),
(352,95,cs),
(286,95,o),
(253,160,o),
(253,239,cs),
(253,326,o),
(300,430,o),
(389,467,c),
(415,411,o),
(465,385,o),
(505,385,cs),
(563,385,o),
(618,419,o),
(618,483,cs),
(618,550,o),
(550,600,o),
(432,600,cs),
(212,600,o),
(45,454,o),
(45,238,cs,{
name = hr00;
}),
(45,82,o),
(153,-25,o),
(328,-25,cs)
);
},
{
closed = 1;
nodes = (
(392,634,o),
(451,645,o),
(484,661,c,{
name = hr00;
}),
(518,699,o),
(592,773,o),
(592,819,cs),
(592,842,o),
(572,858,o),
(515,858,cs),
(477,858,o),
(445,850,o),
(419,840,c),
(420,828,o),
(421,816,o),
(421,805,cs),
(421,763,o),
(402,719,o),
(380,696,c),
(350,696,l),
(355,727,o),
(361,760,o),
(361,783,cs),
(361,840,o),
(328,858,o),
(280,858,cs),
(247,858,o),
(211,849,o),
(186,839,c),
(203,827,o),
(217,808,o),
(217,774,cs),
(217,691,ls),
(217,650,o),
(271,634,o),
(337,634,cs)
);
}
);
};
layerId = master01;
shapes = (
{
ref = c;
},
{
pos = (21,0);
ref = caroncomb;
}
);
width = 638;
}
);
unicode = 269;
},
{
glyphname = ccedilla;
lastChange = "2023-03-01 10:27:25 +0000";
layers = (
{
background = {
shapes = (
{
closed = 1;
nodes = (
(487,-25,o),
(588,65,o),
(588,137,cs),
(588,189,o),
(533,206,o),
(442,206,c),
(442,128,o),
(397,95,o),
(352,95,cs),
(286,95,o),
(253,160,o),
(253,239,cs),
(253,326,o),
(300,430,o),
(389,467,c),
(415,411,o),
(465,385,o),
(505,385,cs),
(563,385,o),
(618,419,o),
(618,483,cs),
(618,550,o),
(550,600,o),
(432,600,cs),
(212,600,o),
(45,454,o),
(45,238,cs,{
name = hr00;
}),
(45,82,o),
(153,-25,o),
(328,-25,cs)
);
},
{
closed = 1;
nodes = (
(324,-287,o),
(399,-196,o),
(399,-111,cs),
(399,-39,o),
(344,28,o),
(225,28,cs),
(187,28,l),
(187,17,l),
(248,-8,o),
(276,-55,o),
(276,-97,cs,{
name = hr00;
}),
(276,-155,o),
(233,-188,o),
(196,-188,cs),
(169,-188,o),
(145,-170,o),
(145,-130,cs),
(145,-104,o),
(156,-75,o),
(173,-60,c),
(94,-60,o),
(39,-115,o),
(39,-180,cs),
(39,-228,o),
(77,-287,o),
(189,-287,cs)
);
}
);
};
layerId = master01;
shapes = (
{
ref = c;
},
{
pos = (68,0);
ref = cedillacomb;
}
);
width = 638;
}
);
unicode = 231;
},
